{"glyphs":{"0":{"ha":793,"x_min":78,"x_max":715,"o":"m 715 498 q 636 112 715 237 q 395 -14 556 -14 q 159 116 239 -14 q 78 498 78 245 q 156 882 78 758 q 395 1007 235 1007 q 633 878 551 1007 q 715 498 715 749 m 151 498 q 212 158 151 268 q 395 47 272 47 q 582 161 523 47 q 640 498 640 275 q 582 832 640 718 q 395 946 523 946 q 209 832 267 946 q 151 498 151 718 z "},"1":{"ha":793,"x_min":135,"x_max":463,"o":"m 463 0 l 396 0 l 396 722 q 404 926 396 821 q 383 907 394 916 q 174 742 372 897 l 135 790 l 404 991 l 463 991 l 463 0 z "},"2":{"ha":793,"x_min":77,"x_max":697,"o":"m 697 0 l 77 0 l 77 60 l 340 335 q 496 511 452 450 q 562 628 541 572 q 583 745 583 684 q 525 889 583 833 q 374 945 467 945 q 136 854 250 945 l 100 901 q 375 1006 224 1006 q 579 937 505 1006 q 653 746 653 867 q 603 556 653 648 q 421 329 553 464 l 167 68 l 167 65 l 697 65 l 697 0 z "},"3":{"ha":793,"x_min":64,"x_max":694,"o":"m 664 758 q 606 603 664 666 q 450 522 548 540 l 450 518 q 632 442 570 503 q 694 278 694 381 q 600 63 694 139 q 328 -14 505 -14 q 64 43 176 -14 l 64 110 q 192 63 121 80 q 325 46 262 46 q 550 107 475 46 q 625 278 625 168 q 548 429 625 376 q 322 482 471 482 l 215 482 l 215 547 l 323 547 q 519 606 447 547 q 591 765 591 665 q 533 898 591 848 q 379 947 474 947 q 244 927 305 947 q 107 856 183 906 l 74 901 q 213 978 132 949 q 378 1006 294 1006 q 589 941 515 1006 q 664 758 664 876 z "},"4":{"ha":793,"x_min":29,"x_max":774,"o":"m 774 253 l 603 253 l 603 0 l 539 0 l 539 253 l 29 253 l 29 298 l 521 997 l 603 997 l 603 311 l 774 311 l 774 253 m 539 311 l 539 595 q 549 939 539 800 l 543 939 q 460 811 530 913 l 110 311 l 539 311 z "},"5":{"ha":793,"x_min":97,"x_max":705,"o":"m 364 596 q 614 519 523 596 q 705 309 705 443 q 610 71 705 156 q 349 -14 515 -14 q 208 1 275 -14 q 97 43 142 16 l 97 113 q 227 61 170 75 q 349 46 284 46 q 557 115 479 46 q 636 301 636 184 q 559 475 636 412 q 351 538 483 538 q 167 511 263 538 l 126 538 l 165 991 l 643 991 l 643 926 l 229 926 l 199 576 q 364 596 304 596 z "},"6":{"ha":793,"x_min":89,"x_max":718,"o":"m 89 422 q 141 748 89 616 q 291 943 194 880 q 524 1007 387 1007 q 640 991 587 1007 l 640 932 q 521 950 591 950 q 260 829 353 950 q 155 478 167 709 l 164 478 q 282 578 216 545 q 422 612 349 612 q 640 533 562 612 q 718 314 718 454 q 636 74 718 162 q 414 -14 553 -14 q 176 101 263 -14 q 89 422 89 216 m 414 46 q 587 116 525 46 q 648 315 648 186 q 587 493 648 429 q 421 557 526 557 q 293 526 352 557 q 198 445 233 496 q 163 342 163 395 q 196 197 163 267 q 287 87 230 127 q 414 46 345 46 z "},"7":{"ha":793,"x_min":74,"x_max":715,"o":"m 227 0 l 635 926 l 74 926 l 74 991 l 715 991 l 715 942 l 306 0 l 227 0 z "},"8":{"ha":793,"x_min":82,"x_max":708,"o":"m 395 1008 q 598 944 521 1008 q 675 770 675 880 q 627 635 675 694 q 472 528 579 577 q 655 410 602 474 q 708 256 708 347 q 622 60 708 133 q 392 -14 536 -14 q 162 55 242 -14 q 82 254 82 123 q 138 410 82 343 q 313 525 195 477 q 159 634 203 576 q 114 771 114 691 q 150 896 114 842 q 251 979 186 950 q 395 1008 315 1008 m 151 244 q 215 99 151 151 q 392 47 278 47 q 571 102 503 47 q 639 250 639 157 q 586 387 639 334 q 380 497 532 439 q 203 391 256 449 q 151 244 151 332 m 393 947 q 240 900 298 947 q 182 771 182 853 q 203 687 182 724 q 265 622 224 651 q 400 553 305 592 q 559 647 511 595 q 607 771 607 699 q 550 900 607 852 q 393 947 492 947 z "},"9":{"ha":793,"x_min":75,"x_max":703,"o":"m 703 571 q 651 244 703 376 q 502 50 600 113 q 265 -14 404 -14 q 135 4 195 -14 l 135 62 q 205 48 164 53 q 268 43 246 43 q 530 164 435 43 q 636 517 625 285 l 628 517 q 510 417 578 452 q 367 382 441 382 q 152 458 229 382 q 75 673 75 534 q 160 915 75 823 q 379 1007 244 1007 q 550 956 477 1007 q 663 806 623 905 q 703 571 703 707 m 379 947 q 208 875 272 947 q 144 677 144 803 q 203 498 144 559 q 372 437 262 437 q 500 468 441 437 q 594 549 559 498 q 629 652 629 600 q 598 800 629 731 q 510 908 566 869 q 379 947 453 947 z "}," ":{"ha":361,"x_min":0,"x_max":0,"o":""},"!":{"ha":334,"x_min":111,"x_max":221,"o":"m 187 256 l 146 256 l 126 991 l 207 991 l 187 256 m 111 53 q 165 119 111 119 q 221 53 221 119 q 165 -14 221 -14 q 111 53 111 -14 z "},"\"":{"ha":490,"x_min":90,"x_max":400,"o":"m 176 991 l 154 633 l 113 633 l 90 991 l 176 991 m 400 991 l 378 633 l 336 633 l 314 991 l 400 991 z "},"#":{"ha":897,"x_min":37,"x_max":860,"o":"m 656 629 l 604 359 l 810 359 l 810 306 l 593 306 l 534 0 l 473 0 l 533 306 l 289 306 l 231 0 l 171 0 l 229 306 l 37 306 l 37 359 l 240 359 l 292 629 l 90 629 l 90 684 l 301 684 l 359 991 l 421 991 l 361 684 l 608 684 l 668 991 l 726 991 l 667 684 l 860 684 l 860 629 l 656 629 m 298 359 l 545 359 l 597 629 l 351 629 l 298 359 z "},"$":{"ha":793,"x_min":111,"x_max":672,"o":"m 672 298 q 605 151 672 208 q 419 79 538 94 l 419 -81 l 364 -81 l 364 77 q 228 92 302 78 q 111 126 155 106 l 111 196 q 233 155 162 172 q 364 138 304 138 l 364 482 q 218 542 266 512 q 149 612 171 572 q 127 711 127 653 q 192 853 127 795 q 364 924 256 910 l 364 1054 l 419 1054 l 419 925 q 657 876 553 919 l 635 815 q 419 864 539 857 l 419 534 q 618 437 564 490 q 672 298 672 384 m 597 301 q 555 396 597 359 q 419 461 512 434 l 419 142 q 550 193 502 151 q 597 301 597 235 m 201 711 q 240 616 201 653 q 364 553 279 578 l 364 860 q 242 808 283 849 q 201 711 201 768 z "},"%":{"ha":1121,"x_min":77,"x_max":1044,"o":"m 143 696 q 174 506 143 570 q 269 443 204 443 q 400 696 400 443 q 367 883 400 821 q 269 946 333 946 q 174 883 204 946 q 143 696 143 821 m 467 696 q 416 463 467 543 q 269 383 365 383 q 128 465 179 383 q 77 696 77 547 q 125 926 77 847 q 269 1006 174 1006 q 415 924 363 1006 q 467 696 467 842 m 721 297 q 751 109 721 172 q 847 46 782 46 q 978 297 978 46 q 847 547 978 547 q 751 485 782 547 q 721 297 721 423 m 1044 297 q 994 64 1044 144 q 848 -16 944 -16 q 705 67 756 -16 q 654 297 654 149 q 704 528 654 450 q 848 607 754 607 q 993 526 941 607 q 1044 297 1044 444 m 868 991 l 318 0 l 253 0 l 803 991 l 868 991 z "},"&":{"ha":990,"x_min":83,"x_max":960,"o":"m 83 252 q 133 411 83 345 q 319 550 183 477 l 269 606 q 202 700 224 654 q 180 796 180 746 q 245 950 180 893 q 419 1007 310 1007 q 586 952 524 1007 q 647 800 647 897 q 600 670 647 729 q 428 538 552 610 l 734 228 q 805 334 776 277 q 856 471 834 392 l 921 471 q 779 182 878 304 l 960 0 l 868 0 l 737 134 q 626 44 675 73 q 519 1 577 16 q 387 -14 461 -14 q 164 56 245 -14 q 83 252 83 126 m 392 47 q 551 77 479 47 q 693 176 623 106 l 366 505 q 232 422 273 456 q 173 348 191 388 q 154 254 154 308 q 217 102 154 157 q 392 47 280 47 m 253 798 q 280 699 253 744 q 383 581 307 653 q 533 688 491 638 q 575 803 575 739 q 533 906 575 867 q 419 946 491 946 q 297 907 342 946 q 253 798 253 867 z "},"'":{"ha":267,"x_min":90,"x_max":176,"o":"m 176 991 l 154 633 l 113 633 l 90 991 l 176 991 z "},"(":{"ha":378,"x_min":56,"x_max":336,"o":"m 56 380 q 108 717 56 560 q 260 991 161 873 l 336 991 q 182 712 236 868 q 129 382 129 555 q 335 -220 129 54 l 260 -220 q 108 50 160 -104 q 56 380 56 203 z "},")":{"ha":378,"x_min":41,"x_max":322,"o":"m 322 380 q 270 48 322 202 q 118 -220 217 -106 l 43 -220 q 249 382 249 54 q 195 712 249 556 q 41 991 142 869 l 118 991 q 270 716 218 873 q 322 380 322 559 z "},"*":{"ha":765,"x_min":71,"x_max":692,"o":"m 428 1055 l 403 781 l 677 851 l 692 762 l 424 736 l 591 505 l 507 457 l 378 714 l 256 457 l 171 505 l 335 736 l 71 762 l 83 851 l 355 781 l 329 1055 l 428 1055 z "},"+":{"ha":793,"x_min":75,"x_max":718,"o":"m 424 518 l 718 518 l 718 463 l 424 463 l 424 170 l 368 170 l 368 463 l 75 463 l 75 518 l 368 518 l 368 812 l 424 812 l 424 518 z "},",":{"ha":298,"x_min":46,"x_max":208,"o":"m 200 161 l 208 147 q 90 -179 157 -33 l 46 -179 q 121 161 98 7 l 200 161 z "},"-":{"ha":447,"x_min":62,"x_max":385,"o":"m 62 347 l 62 403 l 385 403 l 385 347 l 62 347 z "},".":{"ha":330,"x_min":110,"x_max":220,"o":"m 110 53 q 164 119 110 119 q 220 53 220 119 q 164 -14 220 -14 q 110 53 110 -14 z "},"/":{"ha":473,"x_min":17,"x_max":457,"o":"m 457 991 l 87 0 l 17 0 l 386 991 l 457 991 z "},":":{"ha":330,"x_min":110,"x_max":220,"o":"m 110 53 q 164 119 110 119 q 220 53 220 119 q 164 -14 220 -14 q 110 53 110 -14 m 110 659 q 164 725 110 725 q 220 659 220 725 q 204 607 220 623 q 164 591 188 591 q 125 607 141 591 q 110 659 110 623 z "},";":{"ha":330,"x_min":52,"x_max":220,"o":"m 205 161 l 214 147 q 96 -179 163 -33 l 52 -179 q 94 -13 71 -113 q 126 161 116 88 l 205 161 m 110 659 q 164 725 110 725 q 220 659 220 725 q 204 607 220 623 q 164 591 188 591 q 125 607 141 591 q 110 659 110 623 z "},"<":{"ha":793,"x_min":75,"x_max":718,"o":"m 718 180 l 75 463 l 75 504 l 718 825 l 718 761 l 160 486 l 718 245 l 718 180 z "},"=":{"ha":793,"x_min":75,"x_max":718,"o":"m 75 600 l 75 656 l 718 656 l 718 600 l 75 600 m 75 323 l 75 379 l 718 379 l 718 323 l 75 323 z "},">":{"ha":793,"x_min":75,"x_max":718,"o":"m 75 245 l 633 486 l 75 761 l 75 825 l 718 504 l 718 463 l 75 180 l 75 245 z "},"?":{"ha":585,"x_min":39,"x_max":534,"o":"m 199 256 l 199 281 q 224 417 199 364 q 318 530 250 470 l 380 584 q 450 666 429 625 q 471 760 471 707 q 414 897 471 846 q 265 947 357 947 q 165 936 212 947 q 64 897 118 924 l 39 951 q 164 995 113 984 q 268 1006 214 1006 q 463 939 392 1006 q 534 755 534 872 q 522 675 534 709 q 488 611 510 640 q 435 554 466 581 q 366 494 404 526 q 299 428 322 458 q 265 364 275 397 q 254 265 254 331 l 254 256 l 199 256 m 176 53 q 231 119 176 119 q 286 53 286 119 q 231 -14 286 -14 q 176 53 176 -14 z "},"@":{"ha":1231,"x_min":77,"x_max":1154,"o":"m 1154 492 q 1093 243 1154 337 q 926 150 1031 150 q 828 186 866 150 q 785 286 791 223 l 782 286 q 698 184 753 218 q 570 150 643 150 q 414 215 469 150 q 359 399 359 281 q 441 623 359 536 q 654 710 523 710 q 848 682 748 710 l 833 368 l 833 347 q 857 241 833 277 q 936 205 881 205 q 1050 284 1006 205 q 1095 490 1095 363 q 1041 721 1095 622 q 888 873 987 820 q 661 926 789 926 q 386 859 505 926 q 203 668 267 791 q 139 385 139 545 q 252 47 139 166 q 574 -72 366 -72 q 702 -60 637 -72 q 859 -12 766 -47 l 859 -79 q 578 -134 721 -134 q 209 2 341 -134 q 77 380 77 138 q 150 693 77 554 q 358 908 224 831 q 663 985 493 985 q 921 924 808 985 q 1094 752 1033 864 q 1154 492 1154 640 m 429 400 q 467 254 429 303 q 585 205 504 205 q 770 440 758 205 l 781 637 q 650 656 727 656 q 489 586 549 656 q 429 400 429 517 z "},"A":{"ha":833,"x_min":0,"x_max":833,"o":"m 618 350 l 215 350 l 77 0 l 0 0 l 399 996 l 443 996 l 833 0 l 755 0 l 618 350 m 240 412 l 595 412 l 460 770 q 419 886 443 812 q 379 768 401 821 l 240 412 z "},"B":{"ha":871,"x_min":140,"x_max":793,"o":"m 140 991 l 412 991 q 682 929 596 991 q 768 741 768 867 q 716 597 768 654 q 562 524 663 540 l 562 519 q 737 445 681 502 q 793 285 793 387 q 702 74 793 148 q 444 0 611 0 l 140 0 l 140 991 m 210 550 l 428 550 q 631 596 568 550 q 694 742 694 643 q 623 886 694 841 q 410 930 551 930 l 210 930 l 210 550 m 210 489 l 210 61 l 443 61 q 718 285 718 61 q 428 489 718 489 l 210 489 z "},"C":{"ha":863,"x_min":87,"x_max":819,"o":"m 564 943 q 270 824 377 943 q 163 497 163 705 q 264 168 163 285 q 553 50 365 50 q 782 82 677 50 l 782 21 q 536 -14 684 -14 q 208 121 328 -14 q 87 498 87 256 q 145 765 87 650 q 310 943 202 880 q 559 1006 417 1006 q 819 951 705 1006 l 791 889 q 564 943 683 943 z "},"D":{"ha":981,"x_min":140,"x_max":893,"o":"m 893 505 q 762 128 893 256 q 378 0 631 0 l 140 0 l 140 991 l 408 991 q 769 867 646 991 q 893 505 893 743 m 818 503 q 710 823 818 715 q 392 930 602 930 l 210 930 l 210 61 l 374 61 q 818 503 818 61 z "},"E":{"ha":766,"x_min":140,"x_max":682,"o":"m 682 0 l 140 0 l 140 991 l 682 991 l 682 928 l 210 928 l 210 553 l 656 553 l 656 489 l 210 489 l 210 64 l 682 64 l 682 0 z "},"F":{"ha":697,"x_min":140,"x_max":684,"o":"m 210 0 l 140 0 l 140 991 l 684 991 l 684 928 l 210 928 l 210 507 l 657 507 l 657 443 l 210 443 l 210 0 z "},"G":{"ha":1004,"x_min":87,"x_max":896,"o":"m 530 500 l 896 500 l 896 47 q 572 -14 752 -14 q 213 119 338 -14 q 87 494 87 252 q 150 763 87 646 q 327 943 212 880 q 593 1007 443 1007 q 884 947 755 1007 l 856 885 q 589 945 727 945 q 278 824 393 945 q 163 497 163 703 q 272 160 163 273 q 593 47 381 47 q 825 86 730 47 l 825 435 l 530 435 l 530 500 z "},"H":{"ha":999,"x_min":140,"x_max":859,"o":"m 859 0 l 789 0 l 789 488 l 210 488 l 210 0 l 140 0 l 140 991 l 210 991 l 210 551 l 789 551 l 789 991 l 859 991 l 859 0 z "},"J":{"ha":343,"x_min":-125,"x_max":210,"o":"m -22 -250 q -125 -232 -85 -250 l -125 -172 q -24 -186 -72 -186 q 140 -7 140 -186 l 140 991 l 210 991 l 210 0 q -22 -250 210 -250 z "},"K":{"ha":807,"x_min":140,"x_max":807,"o":"m 807 0 l 722 0 l 342 524 l 210 407 l 210 0 l 140 0 l 140 991 l 210 991 l 210 476 l 319 586 l 708 991 l 796 991 l 390 572 l 807 0 z "},"L":{"ha":713,"x_min":140,"x_max":682,"o":"m 140 0 l 140 991 l 210 991 l 210 65 l 682 65 l 682 0 l 140 0 z "},"M":{"ha":1198,"x_min":140,"x_max":1059,"o":"m 576 0 l 207 916 l 201 916 q 207 743 207 831 l 207 0 l 140 0 l 140 991 l 248 991 l 599 119 l 603 119 l 954 991 l 1059 991 l 1059 0 l 989 0 l 989 751 q 997 914 989 830 l 991 914 l 621 0 l 576 0 z "},"N":{"ha":1002,"x_min":140,"x_max":861,"o":"m 861 0 l 791 0 l 204 880 l 199 880 q 207 643 207 723 l 207 0 l 140 0 l 140 991 l 210 991 l 796 113 l 800 113 q 794 345 794 235 l 794 991 l 861 991 l 861 0 z "},"O":{"ha":1061,"x_min":87,"x_max":974,"o":"m 974 497 q 856 124 974 261 q 530 -14 738 -14 q 205 124 323 -14 q 87 498 87 261 q 207 871 87 735 q 532 1007 326 1007 q 857 870 739 1007 q 974 497 974 734 m 163 497 q 258 168 163 284 q 530 52 353 52 q 804 167 709 52 q 899 497 899 282 q 804 826 899 711 q 532 940 709 940 q 259 825 355 940 q 163 497 163 709 z "},"P":{"ha":812,"x_min":140,"x_max":737,"o":"m 737 707 q 640 486 737 563 q 363 410 542 410 l 210 410 l 210 0 l 140 0 l 140 991 l 383 991 q 737 707 737 991 m 210 469 l 346 469 q 588 525 513 469 q 663 704 663 580 q 592 874 663 819 q 374 929 522 929 l 210 929 l 210 469 z "},"Q":{"ha":1061,"x_min":87,"x_max":974,"o":"m 974 497 q 888 167 974 298 q 652 0 803 37 l 878 -236 l 765 -236 l 574 -12 l 551 -14 l 530 -14 q 205 124 323 -14 q 87 498 87 261 q 207 871 87 735 q 532 1007 326 1007 q 857 870 739 1007 q 974 497 974 734 m 163 497 q 258 168 163 284 q 530 52 353 52 q 804 167 709 52 q 899 497 899 282 q 804 826 899 711 q 532 940 709 940 q 259 825 355 940 q 163 497 163 709 z "},"R":{"ha":825,"x_min":140,"x_max":794,"o":"m 210 432 l 210 0 l 140 0 l 140 991 l 376 991 q 649 923 561 991 q 737 718 737 855 q 685 550 737 618 q 525 452 632 481 l 794 0 l 711 0 l 456 432 l 210 432 m 210 492 l 399 492 q 593 548 524 492 q 663 713 663 604 q 595 878 663 826 q 374 929 527 929 l 210 929 l 210 492 z "},"S":{"ha":757,"x_min":75,"x_max":688,"o":"m 688 256 q 596 59 688 132 q 354 -14 505 -14 q 75 26 172 -14 l 75 96 q 349 50 182 50 q 542 106 471 50 q 614 253 614 162 q 590 346 614 309 q 513 414 566 383 q 355 479 459 444 q 145 592 203 532 q 87 754 87 653 q 175 936 87 865 q 399 1006 262 1006 q 661 953 538 1006 l 636 893 q 400 945 513 945 q 225 894 290 945 q 160 755 160 843 q 180 665 160 701 q 245 602 200 630 q 401 534 291 574 q 576 457 517 494 q 661 371 634 419 q 688 256 688 323 z "},"T":{"ha":728,"x_min":7,"x_max":721,"o":"m 399 0 l 329 0 l 329 926 l 7 926 l 7 991 l 721 991 l 721 926 l 399 926 l 399 0 z "},"U":{"ha":999,"x_min":129,"x_max":869,"o":"m 869 991 l 869 350 q 770 83 869 179 q 494 -14 671 -14 q 225 83 322 -14 q 129 353 129 180 l 129 991 l 199 991 l 199 350 q 278 127 199 207 q 503 47 357 47 q 722 126 644 47 q 800 343 800 204 l 800 991 l 869 991 z "},"V":{"ha":802,"x_min":0,"x_max":802,"o":"m 726 991 l 802 991 l 431 0 l 370 0 l 0 991 l 74 991 l 323 317 q 400 87 380 164 q 454 245 414 138 l 726 991 z "},"W":{"ha":1239,"x_min":35,"x_max":1204,"o":"m 930 0 l 873 0 l 656 765 q 615 920 629 859 q 584 784 604 861 q 366 0 564 707 l 307 0 l 35 991 l 107 991 l 281 353 q 300 281 291 314 q 316 219 309 248 q 329 164 323 191 q 339 110 334 137 q 408 390 355 202 l 578 991 l 654 991 l 853 301 q 903 109 888 182 q 925 212 911 157 q 1135 991 939 267 l 1204 991 l 930 0 z "},"X":{"ha":747,"x_min":0,"x_max":747,"o":"m 747 0 l 668 0 l 375 463 l 77 0 l 0 0 l 334 517 l 31 991 l 109 991 l 376 567 l 648 991 l 722 991 l 415 518 l 747 0 z "},"Y":{"ha":733,"x_min":0,"x_max":733,"o":"m 368 449 l 659 991 l 733 991 l 403 383 l 403 0 l 332 0 l 332 378 l 0 991 l 79 991 l 368 449 z "},"Z":{"ha":800,"x_min":56,"x_max":745,"o":"m 745 0 l 56 0 l 56 52 l 636 926 l 82 926 l 82 991 l 729 991 l 729 940 l 147 65 l 745 65 l 745 0 z "},"[":{"ha":443,"x_min":118,"x_max":408,"o":"m 408 -220 l 118 -220 l 118 991 l 408 991 l 408 928 l 184 928 l 184 -155 l 408 -155 l 408 -220 z "},"\\":{"ha":473,"x_min":17,"x_max":457,"o":"m 86 991 l 457 0 l 387 0 l 17 991 l 86 991 z "},"]":{"ha":443,"x_min":35,"x_max":325,"o":"m 35 -155 l 258 -155 l 258 928 l 35 928 l 35 991 l 325 991 l 325 -220 l 35 -220 l 35 -155 z "},"^":{"ha":793,"x_min":60,"x_max":733,"o":"m 60 380 l 375 999 l 421 999 l 733 380 l 665 380 l 397 917 l 127 380 l 60 380 z "},"_":{"ha":571,"x_min":-3,"x_max":574,"o":"m 574 -180 l -3 -180 l -3 -125 l 574 -125 l 574 -180 z "},"`":{"ha":802,"x_min":267,"x_max":526,"o":"m 526 842 l 479 842 q 352 958 414 895 q 267 1053 289 1021 l 267 1064 l 363 1064 q 430 968 380 1031 q 526 852 479 904 l 526 842 z "},"a":{"ha":736,"x_min":66,"x_max":621,"o":"m 571 0 l 554 117 l 549 117 q 434 16 493 45 q 296 -14 376 -14 q 127 42 187 -14 q 66 196 66 98 q 156 363 66 304 q 416 427 246 423 l 557 431 l 557 479 q 514 638 557 585 q 376 692 471 692 q 164 635 274 692 l 139 693 q 379 750 260 750 q 561 687 500 750 q 621 490 621 624 l 621 0 l 571 0 m 300 47 q 486 115 418 47 q 554 302 554 182 l 554 375 l 425 370 q 204 321 270 362 q 138 193 138 280 q 180 86 138 124 q 300 47 222 47 z "},"b":{"ha":827,"x_min":123,"x_max":746,"o":"m 435 751 q 668 654 589 751 q 746 370 746 557 q 664 86 746 186 q 432 -14 581 -14 q 290 19 353 -14 q 191 111 227 52 l 184 111 l 165 0 l 123 0 l 123 1055 l 191 1055 l 191 790 q 188 680 191 730 l 186 623 l 191 623 q 292 720 233 689 q 435 751 351 751 m 433 690 q 247 616 303 690 q 191 370 191 541 l 191 358 q 249 119 191 191 q 432 46 308 46 q 614 131 553 46 q 675 371 675 215 q 433 690 675 690 z "},"c":{"ha":660,"x_min":81,"x_max":611,"o":"m 418 -14 q 170 86 260 -14 q 81 364 81 186 q 174 649 81 547 q 428 751 267 751 q 611 718 524 751 l 593 659 q 427 690 497 690 q 221 607 291 690 q 151 366 151 523 q 221 132 151 216 q 416 47 291 47 q 603 83 517 47 l 603 21 q 418 -14 532 -14 z "},"d":{"ha":827,"x_min":81,"x_max":703,"o":"m 393 751 q 532 722 473 751 q 636 623 590 693 l 640 623 q 636 790 636 708 l 636 1055 l 703 1055 l 703 0 l 659 0 l 642 113 l 636 113 q 395 -14 552 -14 q 161 81 242 -14 q 81 358 81 176 q 161 650 81 549 q 393 751 241 751 m 393 690 q 212 606 273 690 q 151 359 151 521 q 395 46 151 46 q 578 119 519 46 q 636 358 636 191 l 636 370 q 579 615 636 541 q 393 690 522 690 z "},"e":{"ha":762,"x_min":81,"x_max":682,"o":"m 421 -14 q 171 85 260 -14 q 81 363 81 184 q 168 645 81 539 q 401 751 254 751 q 607 661 532 751 q 682 414 682 570 l 682 359 l 151 359 q 222 127 153 208 q 421 47 292 47 q 532 56 484 47 q 653 94 580 65 l 653 33 q 538 -4 591 6 q 421 -14 485 -14 m 401 692 q 231 622 295 692 q 155 419 166 551 l 611 419 q 555 620 611 547 q 401 692 500 692 z "},"f":{"ha":416,"x_min":20,"x_max":492,"o":"m 397 679 l 224 679 l 224 0 l 157 0 l 157 679 l 20 679 l 20 718 l 157 743 l 157 800 q 207 999 157 936 q 370 1063 256 1063 q 492 1044 431 1063 l 476 986 q 368 1003 422 1003 q 257 957 290 1003 q 224 806 224 910 l 224 737 l 397 737 l 397 679 z "},"g":{"ha":726,"x_min":31,"x_max":699,"o":"m 699 737 l 699 690 l 546 681 q 607 514 607 605 q 536 341 607 408 q 346 275 465 275 q 275 279 296 275 q 214 230 235 258 q 193 170 193 201 q 220 118 193 134 q 310 102 247 102 l 439 102 q 623 53 559 102 q 686 -90 686 5 q 592 -270 686 -207 q 322 -334 497 -334 q 107 -280 183 -334 q 31 -131 31 -227 q 78 -5 31 -55 q 205 64 125 45 q 152 104 172 78 q 132 164 132 130 q 227 294 132 238 q 126 377 162 321 q 90 507 90 434 q 160 685 90 618 q 350 751 231 751 q 463 737 422 751 l 699 737 m 102 -125 q 328 -277 102 -277 q 618 -92 618 -277 q 572 5 618 -25 q 425 35 527 35 l 304 35 q 102 -125 102 35 m 158 507 q 210 375 158 422 q 349 328 262 328 q 490 374 441 328 q 539 510 539 421 q 489 651 539 604 q 347 699 438 699 q 209 648 259 699 q 158 507 158 597 z "},"h":{"ha":819,"x_min":123,"x_max":704,"o":"m 637 0 l 637 478 q 591 640 637 589 q 446 690 544 690 q 252 624 313 690 q 191 407 191 557 l 191 0 l 123 0 l 123 1055 l 191 1055 l 191 720 l 187 625 l 192 625 q 296 722 233 692 q 453 751 359 751 q 704 482 704 751 l 704 0 l 637 0 z "},"i":{"ha":314,"x_min":114,"x_max":201,"o":"m 191 0 l 123 0 l 123 737 l 191 737 l 191 0 m 114 942 q 157 1007 114 1007 q 190 990 178 1007 q 201 942 201 973 q 190 894 201 911 q 157 876 178 876 q 114 942 114 876 z "},"j":{"ha":314,"x_min":-66,"x_max":201,"o":"m 25 -334 q -66 -317 -29 -334 l -66 -258 q 21 -272 -20 -272 q 123 -153 123 -272 l 123 737 l 191 737 l 191 -143 q 148 -284 191 -235 q 25 -334 104 -334 m 114 942 q 157 1007 114 1007 q 190 990 178 1007 q 201 942 201 973 q 190 894 201 911 q 157 876 178 876 q 114 942 114 876 z "},"k":{"ha":672,"x_min":123,"x_max":672,"o":"m 189 323 l 566 737 l 647 737 l 357 422 l 672 0 l 591 0 l 311 372 l 191 262 l 191 0 l 123 0 l 123 1055 l 191 1055 l 191 526 l 186 323 l 189 323 z "},"l":{"ha":314,"x_min":123,"x_max":191,"o":"m 191 0 l 123 0 l 123 1055 l 191 1055 l 191 0 z "},"m":{"ha":1226,"x_min":123,"x_max":1111,"o":"m 1044 0 l 1044 484 q 1002 641 1044 591 q 873 690 960 690 q 706 628 760 690 q 652 432 652 566 l 652 0 l 583 0 l 583 504 q 412 690 583 690 q 243 623 296 690 q 191 407 191 555 l 191 0 l 123 0 l 123 737 l 179 737 l 193 636 l 197 636 q 284 721 228 691 q 408 751 340 751 q 632 621 583 751 l 635 621 q 731 718 671 684 q 869 751 792 751 q 1050 687 990 751 q 1111 482 1111 623 l 1111 0 l 1044 0 z "},"n":{"ha":819,"x_min":123,"x_max":704,"o":"m 637 0 l 637 478 q 591 640 637 589 q 446 690 544 690 q 252 624 313 690 q 191 407 191 557 l 191 0 l 123 0 l 123 737 l 180 737 l 193 636 l 197 636 q 453 751 269 751 q 704 482 704 751 l 704 0 l 637 0 z "},"o":{"ha":814,"x_min":81,"x_max":733,"o":"m 733 370 q 646 88 733 189 q 404 -14 558 -14 q 233 33 307 -14 q 120 168 159 80 q 81 370 81 255 q 168 651 81 550 q 408 751 256 751 q 647 649 560 751 q 733 370 733 547 m 151 370 q 218 133 151 218 q 407 47 285 47 q 596 133 529 47 q 663 370 663 218 q 595 606 663 522 q 406 690 528 690 q 217 607 283 690 q 151 370 151 523 z "},"p":{"ha":827,"x_min":123,"x_max":746,"o":"m 439 -14 q 191 114 269 -14 l 186 114 l 188 57 q 191 -53 191 7 l 191 -334 l 123 -334 l 123 737 l 180 737 l 193 632 l 197 632 q 440 751 273 751 q 668 653 589 751 q 746 368 746 555 q 664 86 746 186 q 439 -14 581 -14 m 437 46 q 613 130 551 46 q 675 366 675 214 q 440 690 675 690 q 251 620 311 690 q 191 389 191 549 l 191 367 q 249 120 191 194 q 437 46 307 46 z "},"q":{"ha":827,"x_min":81,"x_max":703,"o":"m 386 -14 q 161 83 241 -14 q 81 361 81 179 q 161 649 81 547 q 390 751 241 751 q 629 633 550 751 l 633 633 l 646 737 l 703 737 l 703 -334 l 636 -334 l 636 -53 q 640 115 636 30 l 636 115 q 386 -14 556 -14 m 387 46 q 579 120 522 46 q 636 368 636 194 l 636 376 q 578 616 636 543 q 395 690 521 690 q 213 606 275 690 q 151 359 151 522 q 212 125 151 204 q 387 46 273 46 z "},"r":{"ha":541,"x_min":123,"x_max":514,"o":"m 414 751 q 514 742 460 751 l 501 677 q 406 689 455 689 q 251 609 311 689 q 191 407 191 529 l 191 0 l 123 0 l 123 737 l 180 737 l 187 604 l 192 604 q 289 719 237 686 q 414 751 340 751 z "},"s":{"ha":647,"x_min":57,"x_max":581,"o":"m 581 192 q 505 40 581 93 q 292 -14 430 -14 q 57 32 144 -14 l 57 104 q 292 49 168 49 q 457 85 401 49 q 514 182 514 121 q 469 275 514 237 q 321 350 424 313 q 165 419 210 390 q 98 484 121 448 q 75 572 75 520 q 145 703 75 655 q 339 751 214 751 q 566 707 458 751 l 541 646 q 339 690 432 690 q 196 661 249 690 q 143 578 143 631 q 184 486 143 520 q 345 408 225 451 q 490 343 444 372 q 558 278 535 315 q 581 192 581 241 z "},"t":{"ha":465,"x_min":17,"x_max":429,"o":"m 318 46 q 429 57 382 46 l 429 3 q 317 -14 380 -14 q 173 39 219 -14 q 126 203 126 91 l 126 679 l 17 679 l 17 718 l 126 749 l 160 916 l 195 916 l 195 737 l 411 737 l 411 679 l 195 679 l 195 212 q 224 87 195 127 q 318 46 254 46 z "},"u":{"ha":819,"x_min":115,"x_max":696,"o":"m 182 737 l 182 260 q 229 98 182 149 q 374 47 275 47 q 567 114 505 47 q 629 330 629 180 l 629 737 l 696 737 l 696 0 l 639 0 l 627 102 l 623 102 q 367 -14 551 -14 q 115 256 115 -14 l 115 737 l 182 737 z "},"v":{"ha":637,"x_min":0,"x_max":637,"o":"m 285 0 l 0 737 l 69 737 l 260 236 q 317 68 298 140 l 321 68 q 378 237 349 160 l 568 737 l 637 737 l 353 0 l 285 0 z "},"w":{"ha":1004,"x_min":21,"x_max":983,"o":"m 713 0 l 551 493 q 511 640 536 543 l 507 640 l 493 590 l 463 492 l 298 0 l 232 0 l 21 737 l 93 737 l 211 310 q 265 77 252 151 l 269 77 q 328 288 309 235 l 479 737 l 541 737 l 685 289 q 745 78 734 130 l 749 78 q 803 314 754 122 l 916 737 l 983 737 l 783 0 l 713 0 z "},"x":{"ha":692,"x_min":37,"x_max":654,"o":"m 304 379 l 47 737 l 125 737 l 345 427 l 562 737 l 636 737 l 383 379 l 654 0 l 576 0 l 345 329 l 111 0 l 37 0 l 304 379 z "},"y":{"ha":637,"x_min":0,"x_max":637,"o":"m 0 737 l 69 737 l 225 323 q 315 66 296 133 l 319 66 q 412 328 348 154 l 568 737 l 637 737 l 307 -119 q 240 -260 267 -224 q 177 -315 213 -297 q 89 -334 140 -334 q 3 -319 50 -334 l 3 -261 q 87 -272 42 -272 q 149 -256 122 -272 q 196 -205 175 -239 q 246 -97 218 -171 q 282 0 274 -22 l 0 737 z "},"z":{"ha":640,"x_min":56,"x_max":582,"o":"m 582 0 l 56 0 l 56 43 l 493 677 l 87 677 l 87 737 l 581 737 l 581 694 l 140 60 l 582 60 l 582 0 z "},"{":{"ha":490,"x_min":41,"x_max":441,"o":"m 264 -18 q 304 -122 264 -87 q 441 -158 345 -156 l 441 -220 q 253 -169 309 -220 q 197 -12 197 -118 l 197 216 q 41 358 197 355 l 41 412 q 161 447 124 414 q 197 547 197 480 l 197 785 q 441 991 197 987 l 441 930 q 306 891 348 927 q 264 785 264 855 l 264 578 q 234 446 264 490 q 138 389 204 403 l 138 383 q 234 327 203 370 q 264 200 264 283 l 264 -18 z "},"|":{"ha":751,"x_min":345,"x_max":407,"o":"m 345 1059 l 407 1059 l 407 -343 l 345 -343 l 345 1059 z "},"}":{"ha":490,"x_min":49,"x_max":449,"o":"m 227 200 q 257 327 227 283 q 353 383 287 370 l 353 389 q 257 446 287 402 q 227 578 227 489 l 227 785 q 185 891 227 854 q 49 930 143 927 l 49 991 q 230 939 167 991 q 293 785 293 886 l 293 547 q 330 447 293 479 q 449 412 367 414 l 449 358 q 293 216 293 355 l 293 -12 q 237 -169 293 -117 q 49 -220 181 -220 l 49 -158 q 185 -122 144 -157 q 227 -18 227 -88 l 227 200 z "},"~":{"ha":793,"x_min":75,"x_max":718,"o":"m 227 505 q 153 485 193 505 q 75 424 113 464 l 75 488 q 233 562 149 562 q 311 553 275 562 q 416 514 348 544 q 566 475 502 475 q 640 495 604 475 q 718 559 676 516 l 718 494 q 647 439 686 461 q 559 418 609 418 q 376 467 481 418 q 227 505 292 505 z "}," ":{"ha":361,"x_min":0,"x_max":0,"o":""},"¡":{"ha":334,"x_min":113,"x_max":222,"o":"m 146 482 l 187 482 l 207 -254 l 126 -254 l 146 482 m 113 685 q 167 751 113 751 q 222 685 222 751 q 207 633 222 649 q 167 618 191 618 q 128 633 144 618 q 113 685 113 649 z "},"¢":{"ha":793,"x_min":143,"x_max":660,"o":"m 408 129 q 213 248 282 149 q 143 505 143 346 q 213 764 143 663 q 408 888 282 865 l 408 1006 l 464 1006 l 464 893 l 473 893 q 660 856 562 893 l 639 799 q 478 833 548 833 q 282 750 351 833 q 214 507 214 667 q 282 270 214 355 q 472 186 350 186 q 653 225 561 186 l 653 163 q 472 125 578 125 l 464 125 l 464 -14 l 408 -14 l 408 129 z "},"£":{"ha":793,"x_min":53,"x_max":728,"o":"m 279 458 l 279 285 q 256 152 279 206 q 179 65 232 98 l 728 65 l 728 0 l 53 0 l 53 57 q 169 132 127 71 q 211 283 211 192 l 211 458 l 68 458 l 68 514 l 211 514 l 211 715 q 277 929 211 854 q 468 1004 344 1004 q 692 958 587 1004 l 668 900 q 468 945 562 945 q 326 890 372 945 q 279 718 279 835 l 279 514 l 558 514 l 558 458 l 279 458 z "},"¤":{"ha":793,"x_min":86,"x_max":705,"o":"m 672 490 q 611 317 672 388 l 705 221 l 665 180 l 572 277 q 396 214 498 214 q 220 277 292 214 l 126 180 l 86 221 l 180 317 q 119 490 119 389 q 180 665 119 590 l 86 761 l 126 802 l 220 705 q 396 768 290 768 q 572 705 501 768 l 665 802 l 705 761 l 611 665 q 672 490 672 590 m 396 268 q 551 333 487 268 q 615 490 615 397 q 551 648 615 583 q 396 714 486 714 q 241 648 305 714 q 176 490 176 583 q 240 333 176 398 q 396 268 304 268 z "},"¥":{"ha":793,"x_min":29,"x_max":762,"o":"m 397 452 l 688 991 l 762 991 l 469 457 l 661 457 l 661 401 l 432 401 l 432 262 l 661 262 l 661 207 l 432 207 l 432 0 l 361 0 l 361 207 l 132 207 l 132 262 l 361 262 l 361 401 l 132 401 l 132 457 l 321 457 l 29 991 l 109 991 l 397 452 z "},"¦":{"ha":751,"x_min":345,"x_max":407,"o":"m 345 1059 l 407 1059 l 407 541 l 345 541 l 345 1059 m 345 175 l 407 175 l 407 -343 l 345 -343 l 345 175 z "},"§":{"ha":717,"x_min":87,"x_max":612,"o":"m 98 551 q 133 655 98 608 q 227 728 167 702 q 142 797 168 760 q 115 889 115 834 q 184 1014 115 968 q 371 1059 253 1059 q 599 1015 490 1059 l 575 961 q 468 993 513 984 q 370 1002 422 1002 q 230 971 279 1002 q 182 890 182 941 q 199 830 182 854 q 257 786 216 807 q 385 736 298 765 q 564 646 515 692 q 612 530 612 600 q 486 345 612 413 q 574 279 545 316 q 603 187 603 243 q 526 46 603 96 q 315 -3 450 -3 q 199 7 253 -3 q 87 43 146 18 l 87 107 q 313 54 211 54 q 480 88 422 54 q 538 183 538 121 q 521 242 538 220 q 461 287 504 264 q 332 340 418 309 q 147 436 196 390 q 98 551 98 483 m 167 559 q 188 489 167 515 q 260 438 210 463 q 429 371 310 414 q 515 437 485 399 q 545 519 545 476 q 523 589 545 562 q 449 641 501 616 q 289 700 397 666 q 200 646 234 684 q 167 559 167 608 z "},"¨":{"ha":802,"x_min":228,"x_max":572,"o":"m 228 942 q 238 987 228 973 q 271 1000 249 1000 q 314 942 314 1000 q 271 884 314 884 q 228 942 228 884 m 486 942 q 497 987 486 973 q 529 1000 507 1000 q 572 942 572 1000 q 529 884 572 884 q 486 942 486 884 z "},"©":{"ha":1156,"x_min":68,"x_max":1088,"o":"m 608 741 q 457 676 512 741 q 403 497 403 612 q 453 311 403 371 q 603 250 504 250 q 737 279 660 250 l 737 220 q 596 189 668 189 q 400 267 469 189 q 332 492 332 345 q 407 717 332 633 q 608 802 482 802 q 762 766 689 802 l 737 710 q 608 741 671 741 m 68 496 q 136 750 68 631 q 322 937 203 869 q 578 1006 441 1006 q 832 938 713 1006 q 1019 751 951 870 q 1088 496 1088 633 q 1022 245 1088 362 q 838 57 956 127 q 578 -14 719 -14 q 319 57 437 -14 q 134 244 200 127 q 68 496 68 361 m 131 496 q 191 272 131 375 q 354 109 251 170 q 578 49 457 49 q 801 109 699 49 q 964 272 904 169 q 1025 496 1025 375 q 967 716 1025 614 q 805 881 909 819 q 578 943 701 943 q 355 883 458 943 q 191 719 252 823 q 131 496 131 614 z "},"ª":{"ha":465,"x_min":53,"x_max":393,"o":"m 347 551 l 330 600 q 193 543 273 543 q 91 576 129 543 q 53 671 53 610 q 107 773 53 739 q 271 814 161 808 l 335 817 l 335 846 q 309 923 335 898 q 237 949 283 949 q 104 916 178 949 l 82 965 q 239 1003 161 1003 q 393 857 393 1003 l 393 551 l 347 551 m 114 673 q 138 616 114 637 q 203 595 161 595 q 299 629 264 595 q 335 725 335 663 l 335 768 l 275 765 q 155 740 197 761 q 114 673 114 720 z "},"«":{"ha":600,"x_min":56,"x_max":551,"o":"m 56 368 l 265 635 l 307 606 l 135 359 l 307 114 l 265 85 l 56 350 l 56 368 m 300 368 l 510 635 l 551 606 l 379 359 l 551 114 l 510 85 l 300 350 l 300 368 z "},"¬":{"ha":793,"x_min":75,"x_max":704,"o":"m 704 518 l 704 183 l 648 183 l 648 463 l 75 463 l 75 518 l 704 518 z "},"­":{"ha":447,"x_min":62,"x_max":385,"o":"m 62 347 l 62 403 l 385 403 l 385 347 l 62 347 z "},"®":{"ha":1156,"x_min":68,"x_max":1088,"o":"m 481 496 l 557 496 q 654 527 618 496 q 689 619 689 559 q 555 736 689 736 l 481 736 l 481 496 m 760 623 q 733 528 760 569 q 659 464 707 487 l 819 197 l 737 197 l 595 441 l 481 441 l 481 197 l 412 197 l 412 794 l 555 794 q 706 752 652 794 q 760 623 760 710 m 68 496 q 136 750 68 631 q 322 937 203 869 q 578 1006 441 1006 q 832 938 713 1006 q 1019 751 951 870 q 1088 496 1088 633 q 1022 245 1088 362 q 838 57 956 127 q 578 -14 719 -14 q 319 57 437 -14 q 134 244 200 127 q 68 496 68 361 m 131 496 q 191 272 131 375 q 354 109 251 170 q 578 49 457 49 q 801 109 699 49 q 964 272 904 169 q 1025 496 1025 375 q 967 716 1025 614 q 805 881 909 819 q 578 943 701 943 q 355 883 458 943 q 191 719 252 823 q 131 496 131 614 z "},"¯":{"ha":694,"x_min":-4,"x_max":699,"o":"m 699 1055 l -4 1055 l -4 1111 l 699 1111 l 699 1055 z "},"°":{"ha":595,"x_min":94,"x_max":500,"o":"m 94 803 q 153 949 94 892 q 297 1006 212 1006 q 441 949 382 1006 q 500 803 500 892 q 441 657 500 713 q 297 600 382 600 q 152 656 209 600 q 94 803 94 713 m 155 803 q 197 699 155 741 q 297 656 238 656 q 397 698 355 656 q 439 803 439 740 q 398 908 439 865 q 297 950 357 950 q 196 907 236 950 q 155 803 155 863 z "},"±":{"ha":793,"x_min":75,"x_max":718,"o":"m 75 1 l 75 56 l 718 56 l 718 1 l 75 1 m 424 518 l 718 518 l 718 463 l 424 463 l 424 170 l 368 170 l 368 463 l 75 463 l 75 518 l 368 518 l 368 812 l 424 812 l 424 518 z "},"²":{"ha":467,"x_min":36,"x_max":427,"o":"m 427 397 l 36 397 l 36 450 l 200 611 q 317 742 285 693 q 349 843 349 791 q 317 919 349 891 q 233 947 286 947 q 86 892 160 947 l 53 936 q 236 1006 134 1006 q 368 963 320 1006 q 415 844 415 920 q 406 784 415 812 q 379 726 397 755 q 333 665 361 696 q 123 457 304 633 l 427 457 l 427 397 z "},"³":{"ha":467,"x_min":28,"x_max":435,"o":"m 418 854 q 388 765 418 802 q 309 714 358 729 q 435 571 435 684 q 375 434 435 483 q 207 386 315 386 q 28 427 109 386 l 28 486 q 208 444 120 444 q 327 477 286 444 q 367 570 367 511 q 327 652 367 626 q 205 679 286 679 l 117 679 l 117 736 l 208 736 q 315 765 279 736 q 351 847 351 795 q 319 920 351 892 q 233 947 288 947 q 66 895 146 947 l 35 942 q 233 1006 123 1006 q 369 965 319 1006 q 418 854 418 924 z "},"´":{"ha":802,"x_min":267,"x_max":526,"o":"m 267 852 q 365 969 316 906 q 431 1064 413 1031 l 526 1064 l 526 1053 q 443 959 502 1017 q 314 842 385 901 l 267 842 l 267 852 z "},"µ":{"ha":828,"x_min":123,"x_max":704,"o":"m 191 737 l 191 260 q 237 98 191 149 q 382 47 284 47 q 575 114 513 47 q 637 330 637 180 l 637 737 l 704 737 l 704 0 l 647 0 l 635 102 l 631 102 q 529 18 597 50 q 382 -14 461 -14 q 268 5 315 -14 q 187 62 222 24 q 191 -53 191 0 l 191 -334 l 123 -334 l 123 737 l 191 737 z "},"¶":{"ha":909,"x_min":77,"x_max":750,"o":"m 750 -176 l 682 -176 l 682 991 l 528 991 l 528 -176 l 460 -176 l 460 379 q 361 367 416 367 q 145 452 214 367 q 77 707 77 536 q 151 969 77 883 q 382 1055 224 1055 l 750 1055 l 750 -176 z "},"·":{"ha":330,"x_min":110,"x_max":220,"o":"m 110 489 q 164 555 110 555 q 220 489 220 555 q 164 422 220 422 q 110 489 110 422 z "},"¸":{"ha":285,"x_min":29,"x_max":267,"o":"m 267 -197 q 221 -299 267 -265 q 93 -334 175 -334 q 29 -326 47 -334 l 29 -267 q 92 -273 50 -273 q 172 -254 144 -273 q 200 -200 200 -235 q 69 -118 200 -136 l 132 0 l 197 0 l 153 -79 q 267 -197 267 -104 z "},"¹":{"ha":467,"x_min":52,"x_max":300,"o":"m 237 991 l 300 991 l 300 397 l 233 397 l 233 768 q 241 926 233 836 q 83 828 224 911 l 52 880 l 237 991 z "},"º":{"ha":501,"x_min":47,"x_max":454,"o":"m 454 774 q 400 604 454 665 q 249 543 346 543 q 100 602 152 543 q 47 774 47 660 q 100 943 47 884 q 252 1003 153 1003 q 401 944 348 1003 q 454 774 454 885 m 109 774 q 250 595 109 595 q 392 774 392 595 q 358 906 392 863 q 250 949 324 949 q 142 906 176 949 q 109 774 109 863 z "},"»":{"ha":600,"x_min":49,"x_max":545,"o":"m 545 351 l 335 85 l 293 114 l 465 359 l 293 606 l 335 635 l 545 370 l 545 351 m 300 351 l 90 85 l 49 114 l 221 359 l 49 606 l 90 635 l 300 370 l 300 351 z "},"¼":{"ha":1028,"x_min":40,"x_max":944,"o":"m 226 991 l 288 991 l 288 397 l 222 397 l 222 768 q 230 926 222 836 q 72 828 212 911 l 40 880 l 226 991 m 779 991 l 229 0 l 165 0 l 715 991 l 779 991 m 944 164 l 857 164 l 857 1 l 795 1 l 795 164 l 515 164 l 515 205 l 791 599 l 857 599 l 857 217 l 944 217 l 944 164 m 795 217 l 795 367 q 801 524 795 456 q 786 500 797 516 q 586 217 776 484 l 795 217 z "},"½":{"ha":1028,"x_min":7,"x_max":951,"o":"m 193 991 l 256 991 l 256 397 l 189 397 l 189 768 q 197 926 189 836 q 39 828 180 911 l 7 880 l 193 991 m 728 991 l 178 0 l 114 0 l 664 991 l 728 991 m 951 1 l 561 1 l 561 54 l 725 214 q 842 345 810 296 q 873 446 873 394 q 842 523 873 494 q 758 551 810 551 q 611 495 685 551 l 578 539 q 761 609 659 609 q 892 566 845 609 q 940 448 940 523 q 931 387 940 416 q 904 329 922 359 q 858 268 886 300 q 648 60 829 237 l 951 60 l 951 1 z "},"¾":{"ha":1028,"x_min":28,"x_max":1014,"o":"m 418 854 q 388 765 418 802 q 309 714 358 729 q 435 571 435 684 q 375 434 435 483 q 207 386 315 386 q 28 427 109 386 l 28 486 q 208 444 120 444 q 327 477 286 444 q 367 570 367 511 q 327 652 367 626 q 205 679 286 679 l 117 679 l 117 736 l 208 736 q 315 765 279 736 q 351 847 351 795 q 319 920 351 892 q 233 947 288 947 q 66 895 146 947 l 35 942 q 233 1006 123 1006 q 369 965 319 1006 q 418 854 418 924 m 882 991 l 332 0 l 268 0 l 818 991 l 882 991 m 1014 164 l 926 164 l 926 1 l 865 1 l 865 164 l 585 164 l 585 205 l 861 599 l 926 599 l 926 217 l 1014 217 l 1014 164 m 865 217 l 865 367 q 871 524 865 456 q 856 500 867 516 q 656 217 846 484 l 865 217 z "},"¿":{"ha":585,"x_min":50,"x_max":546,"o":"m 386 482 l 386 457 q 359 318 386 372 q 267 207 332 264 l 205 153 q 135 72 156 112 q 114 -22 114 31 q 170 -158 114 -106 q 319 -210 225 -210 q 477 -178 404 -210 l 521 -160 l 546 -214 q 420 -257 471 -246 q 317 -268 370 -268 q 121 -201 192 -268 q 50 -18 50 -134 q 64 66 50 29 q 103 135 77 102 q 220 243 130 168 q 287 310 263 279 q 320 373 310 340 q 330 472 330 406 l 330 482 l 386 482 m 298 685 q 353 751 298 751 q 408 685 408 751 q 392 633 408 649 q 353 618 376 618 q 314 633 330 618 q 298 685 298 649 z "},"À":{"ha":833,"x_min":0,"x_max":833,"o":"m 618 350 l 215 350 l 77 0 l 0 0 l 399 996 l 443 996 l 833 0 l 755 0 l 618 350 m 240 412 l 595 412 l 460 770 q 419 886 443 812 q 379 768 401 821 l 240 412 m 488 1071 l 441 1071 q 314 1187 376 1124 q 229 1282 251 1250 l 229 1293 l 325 1293 q 392 1197 342 1261 q 488 1082 441 1133 l 488 1071 z "},"Á":{"ha":833,"x_min":0,"x_max":833,"o":"m 618 350 l 215 350 l 77 0 l 0 0 l 399 996 l 443 996 l 833 0 l 755 0 l 618 350 m 240 412 l 595 412 l 460 770 q 419 886 443 812 q 379 768 401 821 l 240 412 m 342 1082 q 440 1198 391 1135 q 506 1293 488 1261 l 602 1293 l 602 1282 q 518 1188 577 1246 q 389 1071 460 1130 l 342 1071 l 342 1082 z "},"Â":{"ha":833,"x_min":0,"x_max":833,"o":"m 618 350 l 215 350 l 77 0 l 0 0 l 399 996 l 443 996 l 833 0 l 755 0 l 618 350 m 240 412 l 595 412 l 460 770 q 419 886 443 812 q 379 768 401 821 l 240 412 m 222 1082 q 312 1187 264 1127 q 387 1293 359 1248 l 453 1293 q 617 1082 499 1212 l 617 1071 l 570 1071 q 420 1211 487 1139 q 270 1071 347 1134 l 222 1071 l 222 1082 z "},"Ã":{"ha":833,"x_min":0,"x_max":833,"o":"m 618 350 l 215 350 l 77 0 l 0 0 l 399 996 l 443 996 l 833 0 l 755 0 l 618 350 m 240 412 l 595 412 l 460 770 q 419 886 443 812 q 379 768 401 821 l 240 412 m 532 1072 q 481 1085 507 1072 q 412 1133 454 1097 q 370 1164 391 1151 q 328 1178 349 1178 q 277 1155 297 1178 q 244 1072 256 1131 l 195 1072 q 237 1191 201 1147 q 330 1234 273 1234 q 390 1217 363 1234 q 446 1177 417 1200 q 490 1143 469 1158 q 532 1128 512 1128 q 584 1153 563 1128 q 616 1234 605 1177 l 668 1234 q 621 1114 657 1155 q 532 1072 585 1072 z "},"Ä":{"ha":833,"x_min":0,"x_max":833,"o":"m 618 350 l 215 350 l 77 0 l 0 0 l 399 996 l 443 996 l 833 0 l 755 0 l 618 350 m 240 412 l 595 412 l 460 770 q 419 886 443 812 q 379 768 401 821 l 240 412 m 249 1171 q 259 1216 249 1202 q 292 1230 270 1230 q 335 1171 335 1230 q 292 1113 335 1113 q 249 1171 249 1113 m 507 1171 q 518 1216 507 1202 q 550 1230 528 1230 q 593 1171 593 1230 q 550 1113 593 1113 q 507 1171 507 1113 z "},"Å":{"ha":833,"x_min":0,"x_max":833,"o":"m 618 350 l 215 350 l 77 0 l 0 0 l 399 996 l 443 996 l 833 0 l 755 0 l 618 350 m 240 412 l 595 412 l 460 770 q 419 886 443 812 q 379 768 401 821 l 240 412 m 567 1092 q 526 987 567 1026 q 420 947 486 947 q 313 987 354 947 q 273 1092 273 1026 q 313 1195 273 1156 q 420 1235 354 1235 q 526 1195 486 1235 q 567 1092 567 1155 m 327 1092 q 352 1022 327 1047 q 420 996 378 996 q 487 1022 462 996 q 513 1092 513 1047 q 486 1161 513 1135 q 420 1186 460 1186 q 352 1160 378 1186 q 327 1092 327 1135 z "},"Æ":{"ha":1121,"x_min":-1,"x_max":1036,"o":"m 1036 0 l 550 0 l 550 350 l 228 350 l 74 0 l -1 0 l 441 991 l 1036 991 l 1036 928 l 619 928 l 619 553 l 1010 553 l 1010 489 l 619 489 l 619 64 l 1036 64 l 1036 0 m 256 412 l 550 412 l 550 928 l 482 928 l 256 412 z "},"Ç":{"ha":863,"x_min":87,"x_max":819,"o":"m 564 943 q 270 824 377 943 q 163 497 163 705 q 264 168 163 285 q 553 50 365 50 q 782 82 677 50 l 782 21 q 536 -14 684 -14 q 208 121 328 -14 q 87 498 87 256 q 145 765 87 650 q 310 943 202 880 q 559 1006 417 1006 q 819 951 705 1006 l 791 889 q 564 943 683 943 m 618 -197 q 572 -299 618 -265 q 444 -334 526 -334 q 380 -326 398 -334 l 380 -267 q 443 -273 401 -273 q 524 -254 496 -273 q 551 -200 551 -235 q 420 -118 551 -136 l 484 0 l 549 0 l 504 -79 q 618 -197 618 -104 z "},"È":{"ha":766,"x_min":140,"x_max":682,"o":"m 682 0 l 140 0 l 140 991 l 682 991 l 682 928 l 210 928 l 210 553 l 656 553 l 656 489 l 210 489 l 210 64 l 682 64 l 682 0 m 473 1071 l 426 1071 q 298 1187 361 1124 q 213 1282 235 1250 l 213 1293 l 309 1293 q 376 1197 327 1261 q 473 1082 425 1133 l 473 1071 z "},"É":{"ha":766,"x_min":140,"x_max":682,"o":"m 682 0 l 140 0 l 140 991 l 682 991 l 682 928 l 210 928 l 210 553 l 656 553 l 656 489 l 210 489 l 210 64 l 682 64 l 682 0 m 314 1082 q 412 1198 363 1135 q 478 1293 460 1261 l 574 1293 l 574 1282 q 491 1188 549 1246 q 361 1071 432 1130 l 314 1071 l 314 1082 z "},"Ê":{"ha":766,"x_min":140,"x_max":682,"o":"m 682 0 l 140 0 l 140 991 l 682 991 l 682 928 l 210 928 l 210 553 l 656 553 l 656 489 l 210 489 l 210 64 l 682 64 l 682 0 m 214 1082 q 303 1187 256 1127 q 378 1293 350 1248 l 444 1293 q 608 1082 490 1212 l 608 1071 l 561 1071 q 411 1211 478 1139 q 261 1071 338 1134 l 214 1071 l 214 1082 z "},"Ë":{"ha":766,"x_min":140,"x_max":682,"o":"m 682 0 l 140 0 l 140 991 l 682 991 l 682 928 l 210 928 l 210 553 l 656 553 l 656 489 l 210 489 l 210 64 l 682 64 l 682 0 m 240 1171 q 251 1216 240 1202 q 283 1230 261 1230 q 326 1171 326 1230 q 283 1113 326 1113 q 240 1171 240 1113 m 498 1171 q 509 1216 498 1202 q 541 1230 519 1230 q 585 1171 585 1230 q 541 1113 585 1113 q 498 1171 498 1113 z "},"Ð":{"ha":994,"x_min":32,"x_max":893,"o":"m 893 505 q 762 128 893 256 q 378 0 631 0 l 140 0 l 140 460 l 32 460 l 32 524 l 140 524 l 140 991 l 408 991 q 769 867 646 991 q 893 505 893 743 m 818 503 q 710 823 818 715 q 392 930 602 930 l 210 930 l 210 524 l 485 524 l 485 460 l 210 460 l 210 61 l 374 61 q 818 503 818 61 z "},"Ñ":{"ha":1002,"x_min":140,"x_max":861,"o":"m 861 0 l 791 0 l 204 880 l 199 880 q 207 643 207 723 l 207 0 l 140 0 l 140 991 l 210 991 l 796 113 l 800 113 q 794 345 794 235 l 794 991 l 861 991 l 861 0 m 608 1072 q 557 1085 584 1072 q 489 1133 531 1097 q 447 1164 467 1151 q 404 1178 426 1178 q 353 1155 374 1178 q 321 1072 333 1131 l 271 1072 q 314 1191 278 1147 q 407 1234 350 1234 q 467 1217 439 1234 q 522 1177 494 1200 q 567 1143 545 1158 q 608 1128 589 1128 q 661 1153 640 1128 q 693 1234 682 1177 l 745 1234 q 698 1114 734 1155 q 608 1072 662 1072 z "},"Ò":{"ha":1061,"x_min":87,"x_max":974,"o":"m 974 497 q 856 124 974 261 q 530 -14 738 -14 q 205 124 323 -14 q 87 498 87 261 q 207 871 87 735 q 532 1007 326 1007 q 857 870 739 1007 q 974 497 974 734 m 163 497 q 258 168 163 284 q 530 52 353 52 q 804 167 709 52 q 899 497 899 282 q 804 826 899 711 q 532 940 709 940 q 259 825 355 940 q 163 497 163 709 m 600 1071 l 553 1071 q 426 1187 488 1124 q 340 1282 363 1250 l 340 1293 l 437 1293 q 504 1197 454 1261 q 600 1082 553 1133 l 600 1071 z "},"Ó":{"ha":1061,"x_min":87,"x_max":974,"o":"m 974 497 q 856 124 974 261 q 530 -14 738 -14 q 205 124 323 -14 q 87 498 87 261 q 207 871 87 735 q 532 1007 326 1007 q 857 870 739 1007 q 974 497 974 734 m 163 497 q 258 168 163 284 q 530 52 353 52 q 804 167 709 52 q 899 497 899 282 q 804 826 899 711 q 532 940 709 940 q 259 825 355 940 q 163 497 163 709 m 465 1082 q 563 1198 515 1135 q 629 1293 612 1261 l 725 1293 l 725 1282 q 642 1188 701 1246 q 513 1071 583 1130 l 465 1071 l 465 1082 z "},"Ô":{"ha":1061,"x_min":87,"x_max":974,"o":"m 974 497 q 856 124 974 261 q 530 -14 738 -14 q 205 124 323 -14 q 87 498 87 261 q 207 871 87 735 q 532 1007 326 1007 q 857 870 739 1007 q 974 497 974 734 m 163 497 q 258 168 163 284 q 530 52 353 52 q 804 167 709 52 q 899 497 899 282 q 804 826 899 711 q 532 940 709 940 q 259 825 355 940 q 163 497 163 709 m 334 1082 q 423 1187 376 1127 q 498 1293 470 1248 l 564 1293 q 728 1082 610 1212 l 728 1071 l 681 1071 q 531 1211 598 1139 q 381 1071 458 1134 l 334 1071 l 334 1082 z "},"Õ":{"ha":1061,"x_min":87,"x_max":974,"o":"m 974 497 q 856 124 974 261 q 530 -14 738 -14 q 205 124 323 -14 q 87 498 87 261 q 207 871 87 735 q 532 1007 326 1007 q 857 870 739 1007 q 974 497 974 734 m 163 497 q 258 168 163 284 q 530 52 353 52 q 804 167 709 52 q 899 497 899 282 q 804 826 899 711 q 532 940 709 940 q 259 825 355 940 q 163 497 163 709 m 637 1072 q 587 1085 613 1072 q 518 1133 560 1097 q 476 1164 496 1151 q 433 1178 455 1178 q 382 1155 403 1178 q 350 1072 362 1131 l 300 1072 q 343 1191 307 1147 q 436 1234 379 1234 q 496 1217 469 1234 q 551 1177 523 1200 q 596 1143 574 1158 q 637 1128 618 1128 q 690 1153 669 1128 q 722 1234 711 1177 l 774 1234 q 727 1114 763 1155 q 637 1072 691 1072 z "},"Ö":{"ha":1061,"x_min":87,"x_max":974,"o":"m 974 497 q 856 124 974 261 q 530 -14 738 -14 q 205 124 323 -14 q 87 498 87 261 q 207 871 87 735 q 532 1007 326 1007 q 857 870 739 1007 q 974 497 974 734 m 163 497 q 258 168 163 284 q 530 52 353 52 q 804 167 709 52 q 899 497 899 282 q 804 826 899 711 q 532 940 709 940 q 259 825 355 940 q 163 497 163 709 m 359 1171 q 369 1216 359 1202 q 401 1230 380 1230 q 445 1171 445 1230 q 401 1113 445 1113 q 359 1171 359 1113 m 617 1171 q 628 1216 617 1202 q 660 1230 638 1230 q 703 1171 703 1230 q 660 1113 703 1113 q 617 1171 617 1113 z "},"×":{"ha":793,"x_min":81,"x_max":713,"o":"m 396 529 l 673 806 l 713 766 l 436 490 l 711 214 l 672 175 l 396 452 l 121 175 l 82 214 l 357 490 l 81 766 l 119 806 l 396 529 z "},"Ø":{"ha":1061,"x_min":87,"x_max":974,"o":"m 974 497 q 856 124 974 261 q 530 -14 738 -14 q 262 68 370 -14 l 204 -14 l 154 26 l 215 113 q 87 498 87 248 q 207 871 87 735 q 532 1007 326 1007 q 798 925 689 1007 l 871 1028 l 920 987 l 844 884 q 974 497 974 743 m 899 497 q 804 827 899 711 l 301 123 q 530 52 391 52 q 804 167 709 52 q 899 497 899 282 m 163 497 q 257 170 163 286 l 758 871 q 532 940 668 940 q 259 825 355 940 q 163 497 163 709 z "},"Ù":{"ha":999,"x_min":129,"x_max":869,"o":"m 869 991 l 869 350 q 770 83 869 179 q 494 -14 671 -14 q 225 83 322 -14 q 129 353 129 180 l 129 991 l 199 991 l 199 350 q 278 127 199 207 q 503 47 357 47 q 722 126 644 47 q 800 343 800 204 l 800 991 l 869 991 m 565 1071 l 518 1071 q 390 1187 453 1124 q 305 1282 328 1250 l 305 1293 l 401 1293 q 468 1197 419 1261 q 565 1082 517 1133 l 565 1071 z "},"Ú":{"ha":999,"x_min":129,"x_max":869,"o":"m 869 991 l 869 350 q 770 83 869 179 q 494 -14 671 -14 q 225 83 322 -14 q 129 353 129 180 l 129 991 l 199 991 l 199 350 q 278 127 199 207 q 503 47 357 47 q 722 126 644 47 q 800 343 800 204 l 800 991 l 869 991 m 429 1082 q 527 1198 479 1135 q 593 1293 576 1261 l 689 1293 l 689 1282 q 606 1188 665 1246 q 477 1071 547 1130 l 429 1071 l 429 1082 z "},"Û":{"ha":999,"x_min":129,"x_max":869,"o":"m 869 991 l 869 350 q 770 83 869 179 q 494 -14 671 -14 q 225 83 322 -14 q 129 353 129 180 l 129 991 l 199 991 l 199 350 q 278 127 199 207 q 503 47 357 47 q 722 126 644 47 q 800 343 800 204 l 800 991 l 869 991 m 301 1082 q 390 1187 343 1127 q 465 1293 437 1248 l 532 1293 q 696 1082 578 1212 l 696 1071 l 648 1071 q 498 1211 566 1139 q 349 1071 425 1134 l 301 1071 l 301 1082 z "},"Ü":{"ha":999,"x_min":129,"x_max":869,"o":"m 869 991 l 869 350 q 770 83 869 179 q 494 -14 671 -14 q 225 83 322 -14 q 129 353 129 180 l 129 991 l 199 991 l 199 350 q 278 127 199 207 q 503 47 357 47 q 722 126 644 47 q 800 343 800 204 l 800 991 l 869 991 m 326 1171 q 337 1216 326 1202 q 369 1230 347 1230 q 412 1171 412 1230 q 369 1113 412 1113 q 326 1171 326 1113 m 585 1171 q 595 1216 585 1202 q 627 1230 606 1230 q 671 1171 671 1230 q 627 1113 671 1113 q 585 1171 585 1113 z "},"Ý":{"ha":733,"x_min":0,"x_max":733,"o":"m 368 449 l 659 991 l 733 991 l 403 383 l 403 0 l 332 0 l 332 378 l 0 991 l 79 991 l 368 449 m 294 1082 q 392 1198 344 1135 q 458 1293 441 1261 l 554 1293 l 554 1282 q 471 1188 530 1246 q 342 1071 412 1130 l 294 1071 l 294 1082 z "},"Þ":{"ha":812,"x_min":140,"x_max":737,"o":"m 737 528 q 640 307 737 384 q 363 231 542 231 l 210 231 l 210 0 l 140 0 l 140 991 l 210 991 l 210 812 l 383 812 q 737 528 737 812 m 210 290 l 346 290 q 588 346 513 290 q 663 525 663 401 q 592 695 663 640 q 374 750 522 750 l 210 750 l 210 290 z "},"ß":{"ha":810,"x_min":123,"x_max":741,"o":"m 652 871 q 557 701 652 777 q 483 633 503 658 q 463 582 463 608 q 472 536 463 552 q 507 497 482 519 q 576 444 532 475 q 679 360 648 393 q 725 290 710 326 q 741 208 741 254 q 681 44 741 102 q 514 -14 621 -14 q 396 -1 450 -14 q 310 32 342 12 l 310 104 q 411 62 354 79 q 514 46 467 46 q 632 83 591 46 q 673 192 673 120 q 647 290 673 248 q 546 382 621 331 q 427 481 460 441 q 395 581 395 522 q 417 655 395 621 q 489 728 439 689 q 561 800 539 767 q 583 872 583 833 q 536 969 583 935 q 399 1003 488 1003 q 245 956 300 1003 q 191 823 191 909 l 191 0 l 123 0 l 123 818 q 194 999 123 935 q 392 1063 264 1063 q 586 1014 519 1063 q 652 871 652 964 z "},"à":{"ha":736,"x_min":66,"x_max":621,"o":"m 571 0 l 554 117 l 549 117 q 434 16 493 45 q 296 -14 376 -14 q 127 42 187 -14 q 66 196 66 98 q 156 363 66 304 q 416 427 246 423 l 557 431 l 557 479 q 514 638 557 585 q 376 692 471 692 q 164 635 274 692 l 139 693 q 379 750 260 750 q 561 687 500 750 q 621 490 621 624 l 621 0 l 571 0 m 300 47 q 486 115 418 47 q 554 302 554 182 l 554 375 l 425 370 q 204 321 270 362 q 138 193 138 280 q 180 86 138 124 q 300 47 222 47 m 433 842 l 386 842 q 258 958 321 895 q 173 1053 195 1021 l 173 1064 l 269 1064 q 336 968 287 1031 q 433 852 385 904 l 433 842 z "},"á":{"ha":736,"x_min":66,"x_max":621,"o":"m 571 0 l 554 117 l 549 117 q 434 16 493 45 q 296 -14 376 -14 q 127 42 187 -14 q 66 196 66 98 q 156 363 66 304 q 416 427 246 423 l 557 431 l 557 479 q 514 638 557 585 q 376 692 471 692 q 164 635 274 692 l 139 693 q 379 750 260 750 q 561 687 500 750 q 621 490 621 624 l 621 0 l 571 0 m 300 47 q 486 115 418 47 q 554 302 554 182 l 554 375 l 425 370 q 204 321 270 362 q 138 193 138 280 q 180 86 138 124 q 300 47 222 47 m 286 852 q 384 969 336 906 q 450 1064 433 1031 l 546 1064 l 546 1053 q 463 959 522 1017 q 334 842 404 901 l 286 842 l 286 852 z "},"â":{"ha":736,"x_min":66,"x_max":621,"o":"m 571 0 l 554 117 l 549 117 q 434 16 493 45 q 296 -14 376 -14 q 127 42 187 -14 q 66 196 66 98 q 156 363 66 304 q 416 427 246 423 l 557 431 l 557 479 q 514 638 557 585 q 376 692 471 692 q 164 635 274 692 l 139 693 q 379 750 260 750 q 561 687 500 750 q 621 490 621 624 l 621 0 l 571 0 m 300 47 q 486 115 418 47 q 554 302 554 182 l 554 375 l 425 370 q 204 321 270 362 q 138 193 138 280 q 180 86 138 124 q 300 47 222 47 m 170 852 q 259 958 212 898 q 334 1064 307 1019 l 401 1064 q 565 852 447 983 l 565 842 l 517 842 q 368 982 435 910 q 218 842 294 905 l 170 842 l 170 852 z "},"ã":{"ha":736,"x_min":66,"x_max":621,"o":"m 571 0 l 554 117 l 549 117 q 434 16 493 45 q 296 -14 376 -14 q 127 42 187 -14 q 66 196 66 98 q 156 363 66 304 q 416 427 246 423 l 557 431 l 557 479 q 514 638 557 585 q 376 692 471 692 q 164 635 274 692 l 139 693 q 379 750 260 750 q 561 687 500 750 q 621 490 621 624 l 621 0 l 571 0 m 300 47 q 486 115 418 47 q 554 302 554 182 l 554 375 l 425 370 q 204 321 270 362 q 138 193 138 280 q 180 86 138 124 q 300 47 222 47 m 473 843 q 422 856 448 843 q 353 904 395 868 q 311 935 332 922 q 269 949 290 949 q 218 925 238 949 q 185 843 197 902 l 136 843 q 178 961 142 918 q 271 1004 214 1004 q 331 987 304 1004 q 387 947 358 970 q 431 913 410 928 q 473 899 453 899 q 525 923 504 899 q 557 1004 546 948 l 609 1004 q 562 884 598 926 q 473 843 526 843 z "},"ä":{"ha":736,"x_min":66,"x_max":621,"o":"m 571 0 l 554 117 l 549 117 q 434 16 493 45 q 296 -14 376 -14 q 127 42 187 -14 q 66 196 66 98 q 156 363 66 304 q 416 427 246 423 l 557 431 l 557 479 q 514 638 557 585 q 376 692 471 692 q 164 635 274 692 l 139 693 q 379 750 260 750 q 561 687 500 750 q 621 490 621 624 l 621 0 l 571 0 m 300 47 q 486 115 418 47 q 554 302 554 182 l 554 375 l 425 370 q 204 321 270 362 q 138 193 138 280 q 180 86 138 124 q 300 47 222 47 m 191 942 q 202 987 191 973 q 234 1000 212 1000 q 277 942 277 1000 q 234 884 277 884 q 191 942 191 884 m 450 942 q 460 987 450 973 q 492 1000 471 1000 q 536 942 536 1000 q 492 884 536 884 q 450 942 450 884 z "},"å":{"ha":736,"x_min":66,"x_max":621,"o":"m 571 0 l 554 117 l 549 117 q 434 16 493 45 q 296 -14 376 -14 q 127 42 187 -14 q 66 196 66 98 q 156 363 66 304 q 416 427 246 423 l 557 431 l 557 479 q 514 638 557 585 q 376 692 471 692 q 164 635 274 692 l 139 693 q 379 750 260 750 q 561 687 500 750 q 621 490 621 624 l 621 0 l 571 0 m 300 47 q 486 115 418 47 q 554 302 554 182 l 554 375 l 425 370 q 204 321 270 362 q 138 193 138 280 q 180 86 138 124 q 300 47 222 47 m 515 987 q 474 882 515 922 q 368 843 433 843 q 261 882 302 843 q 220 987 220 922 q 261 1091 220 1051 q 368 1131 302 1131 q 474 1090 433 1131 q 515 987 515 1050 m 275 987 q 300 917 275 943 q 368 892 326 892 q 435 917 410 892 q 460 987 460 943 q 434 1056 460 1031 q 368 1082 408 1082 q 300 1056 326 1082 q 275 987 275 1030 z "},"æ":{"ha":1174,"x_min":66,"x_max":1093,"o":"m 843 -14 q 574 160 643 -14 q 460 28 528 70 q 289 -14 392 -14 q 125 42 183 -14 q 66 196 66 98 q 151 361 66 300 q 407 427 236 421 l 543 431 l 543 479 q 502 638 543 585 q 367 692 460 692 q 160 635 267 692 l 135 693 q 370 750 252 750 q 590 607 547 750 q 825 751 665 751 q 1022 660 950 751 q 1093 414 1093 569 l 1093 359 l 608 359 q 844 47 608 47 q 946 56 902 47 q 1064 94 990 64 l 1064 33 q 952 -4 1002 5 q 843 -14 903 -14 m 294 47 q 475 115 409 47 q 541 302 541 182 l 541 375 l 414 370 q 201 321 265 362 q 138 193 138 280 q 179 86 138 124 q 294 47 220 47 m 825 692 q 612 419 633 692 l 1022 419 q 969 619 1022 547 q 825 692 917 692 z "},"ç":{"ha":660,"x_min":81,"x_max":611,"o":"m 418 -14 q 170 86 260 -14 q 81 364 81 186 q 174 649 81 547 q 428 751 267 751 q 611 718 524 751 l 593 659 q 427 690 497 690 q 221 607 291 690 q 151 366 151 523 q 221 132 151 216 q 416 47 291 47 q 603 83 517 47 l 603 21 q 418 -14 532 -14 m 490 -197 q 445 -299 490 -265 q 317 -334 399 -334 q 253 -326 271 -334 l 253 -267 q 315 -273 273 -273 q 396 -254 368 -273 q 424 -200 424 -235 q 293 -118 424 -136 l 356 0 l 421 0 l 376 -79 q 490 -197 490 -104 z "},"è":{"ha":762,"x_min":81,"x_max":682,"o":"m 421 -14 q 171 85 260 -14 q 81 363 81 184 q 168 645 81 539 q 401 751 254 751 q 607 661 532 751 q 682 414 682 570 l 682 359 l 151 359 q 222 127 153 208 q 421 47 292 47 q 532 56 484 47 q 653 94 580 65 l 653 33 q 538 -4 591 6 q 421 -14 485 -14 m 401 692 q 231 622 295 692 q 155 419 166 551 l 611 419 q 555 620 611 547 q 401 692 500 692 m 465 842 l 418 842 q 290 958 353 895 q 205 1053 227 1021 l 205 1064 l 301 1064 q 368 968 319 1031 q 465 852 417 904 l 465 842 z "},"é":{"ha":762,"x_min":81,"x_max":682,"o":"m 421 -14 q 171 85 260 -14 q 81 363 81 184 q 168 645 81 539 q 401 751 254 751 q 607 661 532 751 q 682 414 682 570 l 682 359 l 151 359 q 222 127 153 208 q 421 47 292 47 q 532 56 484 47 q 653 94 580 65 l 653 33 q 538 -4 591 6 q 421 -14 485 -14 m 401 692 q 231 622 295 692 q 155 419 166 551 l 611 419 q 555 620 611 547 q 401 692 500 692 m 307 852 q 405 969 356 906 q 471 1064 453 1031 l 566 1064 l 566 1053 q 483 959 542 1017 q 354 842 425 901 l 307 842 l 307 852 z "},"ê":{"ha":762,"x_min":81,"x_max":682,"o":"m 421 -14 q 171 85 260 -14 q 81 363 81 184 q 168 645 81 539 q 401 751 254 751 q 607 661 532 751 q 682 414 682 570 l 682 359 l 151 359 q 222 127 153 208 q 421 47 292 47 q 532 56 484 47 q 653 94 580 65 l 653 33 q 538 -4 591 6 q 421 -14 485 -14 m 401 692 q 231 622 295 692 q 155 419 166 551 l 611 419 q 555 620 611 547 q 401 692 500 692 m 197 852 q 286 958 239 898 q 361 1064 333 1019 l 427 1064 q 591 852 473 983 l 591 842 l 544 842 q 394 982 461 910 q 244 842 321 905 l 197 842 l 197 852 z "},"ë":{"ha":762,"x_min":81,"x_max":682,"o":"m 421 -14 q 171 85 260 -14 q 81 363 81 184 q 168 645 81 539 q 401 751 254 751 q 607 661 532 751 q 682 414 682 570 l 682 359 l 151 359 q 222 127 153 208 q 421 47 292 47 q 532 56 484 47 q 653 94 580 65 l 653 33 q 538 -4 591 6 q 421 -14 485 -14 m 401 692 q 231 622 295 692 q 155 419 166 551 l 611 419 q 555 620 611 547 q 401 692 500 692 m 224 942 q 235 987 224 973 q 267 1000 245 1000 q 311 942 311 1000 q 267 884 311 884 q 224 942 224 884 m 483 942 q 493 987 483 973 q 526 1000 504 1000 q 569 942 569 1000 q 526 884 569 884 q 483 942 483 884 z "},"ì":{"ha":314,"x_min":-23,"x_max":237,"o":"m 191 0 l 123 0 l 123 737 l 191 737 l 191 0 m 237 842 l 190 842 q 62 958 125 895 q -23 1053 -1 1021 l -23 1064 l 73 1064 q 140 968 91 1031 q 237 852 189 904 l 237 842 z "},"í":{"ha":314,"x_min":73,"x_max":332,"o":"m 191 0 l 123 0 l 123 737 l 191 737 l 191 0 m 73 852 q 171 969 122 906 q 237 1064 219 1031 l 332 1064 l 332 1053 q 249 959 308 1017 q 120 842 191 901 l 73 842 l 73 852 z "},"î":{"ha":314,"x_min":-39,"x_max":355,"o":"m 191 0 l 123 0 l 123 737 l 191 737 l 191 0 m -39 852 q 50 958 3 898 q 125 1064 97 1019 l 191 1064 q 355 852 237 983 l 355 842 l 308 842 q 158 982 225 910 q 8 842 85 905 l -39 842 l -39 852 z "},"ï":{"ha":314,"x_min":-14,"x_max":330,"o":"m 191 0 l 123 0 l 123 737 l 191 737 l 191 0 m -14 942 q -4 987 -14 973 q 28 1000 7 1000 q 72 942 72 1000 q 28 884 72 884 q -14 942 -14 884 m 244 942 q 255 987 244 973 q 287 1000 265 1000 q 330 942 330 1000 q 287 884 330 884 q 244 942 244 884 z "},"ð":{"ha":796,"x_min":79,"x_max":715,"o":"m 715 379 q 631 89 715 192 q 395 -14 547 -14 q 164 75 250 -14 q 79 319 79 163 q 165 562 79 474 q 397 650 251 650 q 525 627 471 650 q 625 562 578 605 l 628 564 q 446 875 585 747 l 262 768 l 229 821 l 395 920 q 260 1000 336 962 l 290 1055 q 458 957 390 1008 l 611 1050 l 644 993 l 507 911 q 664 671 612 808 q 715 379 715 534 m 644 378 q 578 533 644 477 q 397 589 513 589 q 211 520 272 589 q 150 314 150 452 q 214 118 150 188 q 396 47 278 47 q 581 131 517 47 q 644 378 644 214 z "},"ñ":{"ha":819,"x_min":123,"x_max":704,"o":"m 637 0 l 637 478 q 591 640 637 589 q 446 690 544 690 q 252 624 313 690 q 191 407 191 557 l 191 0 l 123 0 l 123 737 l 180 737 l 193 636 l 197 636 q 453 751 269 751 q 704 482 704 751 l 704 0 l 637 0 m 528 843 q 477 856 504 843 q 409 904 451 868 q 367 935 387 922 q 324 949 346 949 q 273 925 294 949 q 241 843 253 902 l 191 843 q 234 961 198 918 q 327 1004 270 1004 q 387 987 359 1004 q 442 947 414 970 q 487 913 465 928 q 528 899 509 899 q 581 923 559 899 q 613 1004 602 948 l 665 1004 q 618 884 654 926 q 528 843 582 843 z "},"ò":{"ha":814,"x_min":81,"x_max":733,"o":"m 733 370 q 646 88 733 189 q 404 -14 558 -14 q 233 33 307 -14 q 120 168 159 80 q 81 370 81 255 q 168 651 81 550 q 408 751 256 751 q 647 649 560 751 q 733 370 733 547 m 151 370 q 218 133 151 218 q 407 47 285 47 q 596 133 529 47 q 663 370 663 218 q 595 606 663 522 q 406 690 528 690 q 217 607 283 690 q 151 370 151 523 m 487 842 l 440 842 q 312 958 375 895 q 227 1053 250 1021 l 227 1064 l 323 1064 q 390 968 341 1031 q 487 852 439 904 l 487 842 z "},"ó":{"ha":814,"x_min":81,"x_max":733,"o":"m 733 370 q 646 88 733 189 q 404 -14 558 -14 q 233 33 307 -14 q 120 168 159 80 q 81 370 81 255 q 168 651 81 550 q 408 751 256 751 q 647 649 560 751 q 733 370 733 547 m 151 370 q 218 133 151 218 q 407 47 285 47 q 596 133 529 47 q 663 370 663 218 q 595 606 663 522 q 406 690 528 690 q 217 607 283 690 q 151 370 151 523 m 338 852 q 436 969 388 906 q 503 1064 485 1031 l 598 1064 l 598 1053 q 515 959 574 1017 q 386 842 456 901 l 338 842 l 338 852 z "},"ô":{"ha":814,"x_min":81,"x_max":733,"o":"m 733 370 q 646 88 733 189 q 404 -14 558 -14 q 233 33 307 -14 q 120 168 159 80 q 81 370 81 255 q 168 651 81 550 q 408 751 256 751 q 647 649 560 751 q 733 370 733 547 m 151 370 q 218 133 151 218 q 407 47 285 47 q 596 133 529 47 q 663 370 663 218 q 595 606 663 522 q 406 690 528 690 q 217 607 283 690 q 151 370 151 523 m 210 852 q 299 958 252 898 q 374 1064 346 1019 l 440 1064 q 604 852 486 983 l 604 842 l 557 842 q 407 982 474 910 q 257 842 334 905 l 210 842 l 210 852 z "},"õ":{"ha":814,"x_min":81,"x_max":733,"o":"m 733 370 q 646 88 733 189 q 404 -14 558 -14 q 233 33 307 -14 q 120 168 159 80 q 81 370 81 255 q 168 651 81 550 q 408 751 256 751 q 647 649 560 751 q 733 370 733 547 m 151 370 q 218 133 151 218 q 407 47 285 47 q 596 133 529 47 q 663 370 663 218 q 595 606 663 522 q 406 690 528 690 q 217 607 283 690 q 151 370 151 523 m 516 843 q 465 856 492 843 q 397 904 439 868 q 354 935 375 922 q 312 949 334 949 q 261 925 281 949 q 229 843 241 902 l 179 843 q 222 961 186 918 q 315 1004 258 1004 q 374 987 347 1004 q 430 947 401 970 q 475 913 453 928 q 516 899 496 899 q 568 923 547 899 q 601 1004 589 948 l 652 1004 q 606 884 642 926 q 516 843 570 843 z "},"ö":{"ha":814,"x_min":81,"x_max":733,"o":"m 733 370 q 646 88 733 189 q 404 -14 558 -14 q 233 33 307 -14 q 120 168 159 80 q 81 370 81 255 q 168 651 81 550 q 408 751 256 751 q 647 649 560 751 q 733 370 733 547 m 151 370 q 218 133 151 218 q 407 47 285 47 q 596 133 529 47 q 663 370 663 218 q 595 606 663 522 q 406 690 528 690 q 217 607 283 690 q 151 370 151 523 m 235 942 q 245 987 235 973 q 277 1000 256 1000 q 321 942 321 1000 q 277 884 321 884 q 235 942 235 884 m 493 942 q 504 987 493 973 q 536 1000 514 1000 q 579 942 579 1000 q 536 884 579 884 q 493 942 493 884 z "},"÷":{"ha":793,"x_min":75,"x_max":718,"o":"m 75 463 l 75 518 l 718 518 l 718 463 l 75 463 m 342 729 q 396 796 342 796 q 452 729 452 796 q 436 678 452 694 q 396 663 420 663 q 357 678 373 663 q 342 729 342 694 m 342 252 q 396 318 342 318 q 452 252 452 318 q 436 200 452 216 q 396 184 420 184 q 357 200 373 184 q 342 252 342 216 z "},"ø":{"ha":814,"x_min":81,"x_max":733,"o":"m 733 370 q 646 88 733 189 q 404 -14 558 -14 q 207 53 287 -14 l 149 -24 l 100 16 l 163 97 q 81 370 81 201 q 168 651 81 550 q 408 751 256 751 q 612 681 530 751 l 677 765 l 728 728 l 657 635 q 733 370 733 535 m 151 370 q 204 151 151 234 l 572 629 q 406 690 506 690 q 217 607 283 690 q 151 370 151 523 m 663 370 q 614 579 663 498 l 245 103 q 407 47 309 47 q 596 133 529 47 q 663 370 663 218 z "},"ù":{"ha":819,"x_min":115,"x_max":696,"o":"m 182 737 l 182 260 q 229 98 182 149 q 374 47 275 47 q 567 114 505 47 q 629 330 629 180 l 629 737 l 696 737 l 696 0 l 639 0 l 627 102 l 623 102 q 367 -14 551 -14 q 115 256 115 -14 l 115 737 l 182 737 m 466 842 l 419 842 q 291 958 354 895 q 206 1053 229 1021 l 206 1064 l 302 1064 q 369 968 320 1031 q 466 852 418 904 l 466 842 z "},"ú":{"ha":819,"x_min":115,"x_max":696,"o":"m 182 737 l 182 260 q 229 98 182 149 q 374 47 275 47 q 567 114 505 47 q 629 330 629 180 l 629 737 l 696 737 l 696 0 l 639 0 l 627 102 l 623 102 q 367 -14 551 -14 q 115 256 115 -14 l 115 737 l 182 737 m 336 852 q 434 969 385 906 q 500 1064 482 1031 l 595 1064 l 595 1053 q 512 959 571 1017 q 383 842 454 901 l 336 842 l 336 852 z "},"û":{"ha":819,"x_min":115,"x_max":696,"o":"m 182 737 l 182 260 q 229 98 182 149 q 374 47 275 47 q 567 114 505 47 q 629 330 629 180 l 629 737 l 696 737 l 696 0 l 639 0 l 627 102 l 623 102 q 367 -14 551 -14 q 115 256 115 -14 l 115 737 l 182 737 m 212 852 q 301 958 254 898 q 376 1064 349 1019 l 443 1064 q 607 852 489 983 l 607 842 l 559 842 q 410 982 477 910 q 260 842 336 905 l 212 842 l 212 852 z "},"ü":{"ha":819,"x_min":115,"x_max":696,"o":"m 182 737 l 182 260 q 229 98 182 149 q 374 47 275 47 q 567 114 505 47 q 629 330 629 180 l 629 737 l 696 737 l 696 0 l 639 0 l 627 102 l 623 102 q 367 -14 551 -14 q 115 256 115 -14 l 115 737 l 182 737 m 237 942 q 248 987 237 973 q 280 1000 258 1000 q 323 942 323 1000 q 280 884 323 884 q 237 942 237 884 m 496 942 q 506 987 496 973 q 538 1000 517 1000 q 582 942 582 1000 q 538 884 582 884 q 496 942 496 884 z "},"ý":{"ha":637,"x_min":0,"x_max":637,"o":"m 0 737 l 69 737 l 225 323 q 315 66 296 133 l 319 66 q 412 328 348 154 l 568 737 l 637 737 l 307 -119 q 240 -260 267 -224 q 177 -315 213 -297 q 89 -334 140 -334 q 3 -319 50 -334 l 3 -261 q 87 -272 42 -272 q 149 -256 122 -272 q 196 -205 175 -239 q 246 -97 218 -171 q 282 0 274 -22 l 0 737 m 245 852 q 343 969 294 906 q 409 1064 391 1031 l 505 1064 l 505 1053 q 421 959 480 1017 q 292 842 363 901 l 245 842 l 245 852 z "},"þ":{"ha":827,"x_min":123,"x_max":746,"o":"m 191 623 q 440 751 268 751 q 668 653 589 751 q 746 368 746 555 q 664 86 746 186 q 439 -14 581 -14 q 191 114 269 -14 l 186 114 l 188 57 q 191 -53 191 7 l 191 -334 l 123 -334 l 123 1055 l 191 1055 l 191 790 l 186 623 l 191 623 m 437 46 q 613 130 551 46 q 675 366 675 214 q 439 690 675 690 q 249 619 308 690 q 191 379 191 548 l 191 367 q 249 120 191 194 q 437 46 307 46 z "},"ÿ":{"ha":637,"x_min":0,"x_max":637,"o":"m 0 737 l 69 737 l 225 323 q 315 66 296 133 l 319 66 q 412 328 348 154 l 568 737 l 637 737 l 307 -119 q 240 -260 267 -224 q 177 -315 213 -297 q 89 -334 140 -334 q 3 -319 50 -334 l 3 -261 q 87 -272 42 -272 q 149 -256 122 -272 q 196 -205 175 -239 q 246 -97 218 -171 q 282 0 274 -22 l 0 737 m 145 942 q 156 987 145 973 q 188 1000 166 1000 q 231 942 231 1000 q 188 884 231 884 q 145 942 145 884 m 404 942 q 414 987 404 973 q 446 1000 425 1000 q 490 942 490 1000 q 446 884 490 884 q 404 942 404 884 z "},"Ā":{"ha":833,"x_min":0,"x_max":833,"o":"m 618 350 l 215 350 l 77 0 l 0 0 l 399 996 l 443 996 l 833 0 l 755 0 l 618 350 m 240 412 l 595 412 l 460 770 q 419 886 443 812 q 379 768 401 821 l 240 412 m 232 1133 l 608 1133 l 608 1078 l 232 1078 l 232 1133 z "},"ā":{"ha":736,"x_min":66,"x_max":621,"o":"m 571 0 l 554 117 l 549 117 q 434 16 493 45 q 296 -14 376 -14 q 127 42 187 -14 q 66 196 66 98 q 156 363 66 304 q 416 427 246 423 l 557 431 l 557 479 q 514 638 557 585 q 376 692 471 692 q 164 635 274 692 l 139 693 q 379 750 260 750 q 561 687 500 750 q 621 490 621 624 l 621 0 l 571 0 m 300 47 q 486 115 418 47 q 554 302 554 182 l 554 375 l 425 370 q 204 321 270 362 q 138 193 138 280 q 180 86 138 124 q 300 47 222 47 m 186 904 l 562 904 l 562 848 l 186 848 l 186 904 z "},"Ă":{"ha":833,"x_min":0,"x_max":833,"o":"m 618 350 l 215 350 l 77 0 l 0 0 l 399 996 l 443 996 l 833 0 l 755 0 l 618 350 m 240 412 l 595 412 l 460 770 q 419 886 443 812 q 379 768 401 821 l 240 412 m 418 1071 q 232 1238 247 1071 l 288 1238 q 329 1153 297 1179 q 420 1128 360 1128 q 511 1153 479 1128 q 553 1238 543 1179 l 607 1238 q 418 1071 587 1071 z "},"ă":{"ha":736,"x_min":66,"x_max":621,"o":"m 571 0 l 554 117 l 549 117 q 434 16 493 45 q 296 -14 376 -14 q 127 42 187 -14 q 66 196 66 98 q 156 363 66 304 q 416 427 246 423 l 557 431 l 557 479 q 514 638 557 585 q 376 692 471 692 q 164 635 274 692 l 139 693 q 379 750 260 750 q 561 687 500 750 q 621 490 621 624 l 621 0 l 571 0 m 300 47 q 486 115 418 47 q 554 302 554 182 l 554 375 l 425 370 q 204 321 270 362 q 138 193 138 280 q 180 86 138 124 q 300 47 222 47 m 374 842 q 188 1008 203 842 l 243 1008 q 284 924 253 949 q 376 899 316 899 q 467 924 435 899 q 509 1008 498 949 l 563 1008 q 374 842 543 842 z "},"Ą":{"ha":833,"x_min":0,"x_max":847,"o":"m 618 350 l 215 350 l 77 0 l 0 0 l 399 996 l 443 996 l 833 0 l 755 0 l 618 350 m 240 412 l 595 412 l 460 770 q 419 886 443 812 q 379 768 401 821 l 240 412 m 720 -168 q 791 -243 720 -243 q 847 -235 825 -243 l 847 -292 q 777 -302 820 -302 q 686 -270 720 -302 q 652 -179 652 -238 q 680 -85 652 -132 q 755 0 707 -38 l 817 0 q 744 -81 768 -43 q 720 -168 720 -119 z "},"ą":{"ha":736,"x_min":66,"x_max":651,"o":"m 524 -168 q 595 -243 524 -243 q 651 -235 629 -243 l 651 -292 q 581 -302 624 -302 q 490 -270 524 -302 q 456 -179 456 -238 q 484 -85 456 -132 q 570 9 509 -39 l 554 117 l 549 117 q 434 16 493 45 q 296 -14 376 -14 q 127 42 187 -14 q 66 196 66 98 q 156 363 66 304 q 416 427 246 423 l 557 431 l 557 479 q 514 638 557 585 q 376 692 471 692 q 164 635 274 692 l 139 693 q 379 750 260 750 q 561 687 500 750 q 621 490 621 624 l 621 0 q 548 -81 572 -43 q 524 -168 524 -119 m 300 47 q 486 115 418 47 q 554 302 554 182 l 554 375 l 425 370 q 204 321 270 362 q 138 193 138 280 q 180 86 138 124 q 300 47 222 47 z "},"Ć":{"ha":863,"x_min":87,"x_max":819,"o":"m 564 943 q 270 824 377 943 q 163 497 163 705 q 264 168 163 285 q 553 50 365 50 q 782 82 677 50 l 782 21 q 536 -14 684 -14 q 208 121 328 -14 q 87 498 87 256 q 145 765 87 650 q 310 943 202 880 q 559 1006 417 1006 q 819 951 705 1006 l 791 889 q 564 943 683 943 m 446 1082 q 544 1198 495 1135 q 610 1293 592 1261 l 705 1293 l 705 1282 q 622 1188 681 1246 q 493 1071 564 1130 l 446 1071 l 446 1082 z "},"ć":{"ha":660,"x_min":81,"x_max":611,"o":"m 418 -14 q 170 86 260 -14 q 81 364 81 186 q 174 649 81 547 q 428 751 267 751 q 611 718 524 751 l 593 659 q 427 690 497 690 q 221 607 291 690 q 151 366 151 523 q 221 132 151 216 q 416 47 291 47 q 603 83 517 47 l 603 21 q 418 -14 532 -14 m 301 852 q 399 969 351 906 q 465 1064 448 1031 l 561 1064 l 561 1053 q 478 959 536 1017 q 349 842 419 901 l 301 842 l 301 852 z "},"Ĉ":{"ha":863,"x_min":87,"x_max":819,"o":"m 564 943 q 270 824 377 943 q 163 497 163 705 q 264 168 163 285 q 553 50 365 50 q 782 82 677 50 l 782 21 q 536 -14 684 -14 q 208 121 328 -14 q 87 498 87 256 q 145 765 87 650 q 310 943 202 880 q 559 1006 417 1006 q 819 951 705 1006 l 791 889 q 564 943 683 943 m 321 1082 q 410 1187 363 1127 q 485 1293 457 1248 l 551 1293 q 715 1082 597 1212 l 715 1071 l 668 1071 q 518 1211 585 1139 q 368 1071 445 1134 l 321 1071 l 321 1082 z "},"ĉ":{"ha":660,"x_min":81,"x_max":611,"o":"m 418 -14 q 170 86 260 -14 q 81 364 81 186 q 174 649 81 547 q 428 751 267 751 q 611 718 524 751 l 593 659 q 427 690 497 690 q 221 607 291 690 q 151 366 151 523 q 221 132 151 216 q 416 47 291 47 q 603 83 517 47 l 603 21 q 418 -14 532 -14 m 197 852 q 286 958 239 898 q 361 1064 333 1019 l 427 1064 q 591 852 473 983 l 591 842 l 544 842 q 394 982 461 910 q 244 842 321 905 l 197 842 l 197 852 z "},"Ċ":{"ha":863,"x_min":87,"x_max":819,"o":"m 564 943 q 270 824 377 943 q 163 497 163 705 q 264 168 163 285 q 553 50 365 50 q 782 82 677 50 l 782 21 q 536 -14 684 -14 q 208 121 328 -14 q 87 498 87 256 q 145 765 87 650 q 310 943 202 880 q 559 1006 417 1006 q 819 951 705 1006 l 791 889 q 564 943 683 943 m 486 1171 q 530 1236 486 1236 q 562 1219 551 1236 q 574 1171 574 1202 q 562 1123 574 1141 q 530 1105 551 1105 q 486 1171 486 1105 z "},"ċ":{"ha":660,"x_min":81,"x_max":611,"o":"m 418 -14 q 170 86 260 -14 q 81 364 81 186 q 174 649 81 547 q 428 751 267 751 q 611 718 524 751 l 593 659 q 427 690 497 690 q 221 607 291 690 q 151 366 151 523 q 221 132 151 216 q 416 47 291 47 q 603 83 517 47 l 603 21 q 418 -14 532 -14 m 354 942 q 397 1007 354 1007 q 430 990 418 1007 q 441 942 441 973 q 430 894 441 911 q 397 876 418 876 q 354 942 354 876 z "},"Č":{"ha":863,"x_min":87,"x_max":819,"o":"m 564 943 q 270 824 377 943 q 163 497 163 705 q 264 168 163 285 q 553 50 365 50 q 782 82 677 50 l 782 21 q 536 -14 684 -14 q 208 121 328 -14 q 87 498 87 256 q 145 765 87 650 q 310 943 202 880 q 559 1006 417 1006 q 819 951 705 1006 l 791 889 q 564 943 683 943 m 713 1282 q 549 1071 597 1154 l 482 1071 q 318 1282 431 1158 l 318 1293 l 366 1293 q 515 1153 443 1230 q 665 1293 589 1230 l 713 1293 l 713 1282 z "},"č":{"ha":660,"x_min":81,"x_max":611,"o":"m 418 -14 q 170 86 260 -14 q 81 364 81 186 q 174 649 81 547 q 428 751 267 751 q 611 718 524 751 l 593 659 q 427 690 497 690 q 221 607 291 690 q 151 366 151 523 q 221 132 151 216 q 416 47 291 47 q 603 83 517 47 l 603 21 q 418 -14 532 -14 m 591 1053 q 427 842 476 925 l 361 842 q 197 1053 309 928 l 197 1064 l 244 1064 q 394 924 321 1000 q 544 1064 467 1001 l 591 1064 l 591 1053 z "},"Ď":{"ha":981,"x_min":140,"x_max":893,"o":"m 893 505 q 762 128 893 256 q 378 0 631 0 l 140 0 l 140 991 l 408 991 q 769 867 646 991 q 893 505 893 743 m 818 503 q 710 823 818 715 q 392 930 602 930 l 210 930 l 210 61 l 374 61 q 818 503 818 61 m 652 1282 q 488 1071 536 1154 l 421 1071 q 257 1282 370 1158 l 257 1293 l 304 1293 q 454 1153 382 1230 q 604 1293 528 1230 l 652 1293 l 652 1282 z "},"ď":{"ha":827,"x_min":81,"x_max":908,"o":"m 393 751 q 532 722 473 751 q 636 623 590 693 l 640 623 q 636 790 636 708 l 636 1055 l 703 1055 l 703 0 l 659 0 l 642 113 l 636 113 q 395 -14 552 -14 q 161 81 242 -14 q 81 358 81 176 q 161 650 81 549 q 393 751 241 751 m 393 690 q 212 606 273 690 q 151 359 151 521 q 395 46 151 46 q 578 119 519 46 q 636 358 636 191 l 636 370 q 579 615 636 541 q 393 690 522 690 m 774 844 q 806 939 788 875 q 832 1055 825 1003 l 908 1055 l 908 1046 q 872 946 898 1005 q 810 833 846 887 l 774 833 l 774 844 z "},"Đ":{"ha":994,"x_min":32,"x_max":893,"o":"m 893 505 q 762 128 893 256 q 378 0 631 0 l 140 0 l 140 460 l 32 460 l 32 524 l 140 524 l 140 991 l 408 991 q 769 867 646 991 q 893 505 893 743 m 818 503 q 710 823 818 715 q 392 930 602 930 l 210 930 l 210 524 l 485 524 l 485 460 l 210 460 l 210 61 l 374 61 q 818 503 818 61 z "},"đ":{"ha":827,"x_min":81,"x_max":808,"o":"m 393 751 q 532 722 473 751 q 636 623 590 693 l 640 623 q 636 790 636 708 l 636 863 l 315 863 l 315 918 l 636 918 l 636 1055 l 703 1055 l 703 918 l 808 918 l 808 863 l 703 863 l 703 0 l 659 0 l 642 113 l 636 113 q 395 -14 552 -14 q 161 81 242 -14 q 81 358 81 176 q 161 650 81 549 q 393 751 241 751 m 393 690 q 212 606 273 690 q 151 359 151 521 q 395 46 151 46 q 578 119 519 46 q 636 358 636 191 l 636 370 q 579 615 636 541 q 393 690 522 690 z "},"Ē":{"ha":766,"x_min":140,"x_max":682,"o":"m 682 0 l 140 0 l 140 991 l 682 991 l 682 928 l 210 928 l 210 553 l 656 553 l 656 489 l 210 489 l 210 64 l 682 64 l 682 0 m 218 1133 l 595 1133 l 595 1078 l 218 1078 l 218 1133 z "},"ē":{"ha":762,"x_min":81,"x_max":682,"o":"m 421 -14 q 171 85 260 -14 q 81 363 81 184 q 168 645 81 539 q 401 751 254 751 q 607 661 532 751 q 682 414 682 570 l 682 359 l 151 359 q 222 127 153 208 q 421 47 292 47 q 532 56 484 47 q 653 94 580 65 l 653 33 q 538 -4 591 6 q 421 -14 485 -14 m 401 692 q 231 622 295 692 q 155 419 166 551 l 611 419 q 555 620 611 547 q 401 692 500 692 m 210 904 l 586 904 l 586 848 l 210 848 l 210 904 z "},"Ĕ":{"ha":766,"x_min":140,"x_max":682,"o":"m 682 0 l 140 0 l 140 991 l 682 991 l 682 928 l 210 928 l 210 553 l 656 553 l 656 489 l 210 489 l 210 64 l 682 64 l 682 0 m 404 1071 q 218 1238 233 1071 l 273 1238 q 314 1153 283 1179 q 406 1128 346 1128 q 497 1153 465 1128 q 538 1238 528 1179 l 593 1238 q 404 1071 572 1071 z "},"ĕ":{"ha":762,"x_min":81,"x_max":682,"o":"m 421 -14 q 171 85 260 -14 q 81 363 81 184 q 168 645 81 539 q 401 751 254 751 q 607 661 532 751 q 682 414 682 570 l 682 359 l 151 359 q 222 127 153 208 q 421 47 292 47 q 532 56 484 47 q 653 94 580 65 l 653 33 q 538 -4 591 6 q 421 -14 485 -14 m 401 692 q 231 622 295 692 q 155 419 166 551 l 611 419 q 555 620 611 547 q 401 692 500 692 m 394 842 q 208 1008 222 842 l 263 1008 q 304 924 273 949 q 395 899 336 899 q 487 924 455 899 q 528 1008 518 949 l 583 1008 q 394 842 562 842 z "},"Ė":{"ha":766,"x_min":140,"x_max":682,"o":"m 682 0 l 140 0 l 140 991 l 682 991 l 682 928 l 210 928 l 210 553 l 656 553 l 656 489 l 210 489 l 210 64 l 682 64 l 682 0 m 368 1152 q 412 1217 368 1217 q 444 1200 433 1217 q 456 1152 456 1183 q 444 1103 456 1121 q 412 1086 433 1086 q 368 1152 368 1086 z "},"ė":{"ha":762,"x_min":81,"x_max":682,"o":"m 421 -14 q 171 85 260 -14 q 81 363 81 184 q 168 645 81 539 q 401 751 254 751 q 607 661 532 751 q 682 414 682 570 l 682 359 l 151 359 q 222 127 153 208 q 421 47 292 47 q 532 56 484 47 q 653 94 580 65 l 653 33 q 538 -4 591 6 q 421 -14 485 -14 m 401 692 q 231 622 295 692 q 155 419 166 551 l 611 419 q 555 620 611 547 q 401 692 500 692 m 347 942 q 391 1007 347 1007 q 423 990 412 1007 q 435 942 435 973 q 423 894 435 911 q 391 876 412 876 q 347 942 347 876 z "},"Ę":{"ha":766,"x_min":140,"x_max":682,"o":"m 682 0 l 140 0 l 140 991 l 682 991 l 682 928 l 210 928 l 210 553 l 656 553 l 656 489 l 210 489 l 210 64 l 682 64 l 682 0 m 511 -168 q 583 -243 511 -243 q 639 -235 616 -243 l 639 -292 q 568 -302 612 -302 q 478 -270 511 -302 q 444 -179 444 -238 q 471 -85 444 -132 q 547 0 498 -38 l 608 0 q 535 -81 559 -43 q 511 -168 511 -119 z "},"ę":{"ha":762,"x_min":81,"x_max":682,"o":"m 421 -14 q 171 85 260 -14 q 81 363 81 184 q 168 645 81 539 q 401 751 254 751 q 607 661 532 751 q 682 414 682 570 l 682 359 l 151 359 q 222 127 153 208 q 421 47 292 47 q 532 56 484 47 q 653 94 580 65 l 653 33 q 538 -4 591 6 q 421 -14 485 -14 m 401 692 q 231 622 295 692 q 155 419 166 551 l 611 419 q 555 620 611 547 q 401 692 500 692 m 510 -143 q 582 -218 510 -218 q 637 -210 615 -218 l 637 -267 q 567 -277 610 -277 q 476 -245 510 -277 q 443 -154 443 -213 q 470 -60 443 -106 q 546 25 497 -13 l 607 25 q 534 -56 558 -18 q 510 -143 510 -94 z "},"Ě":{"ha":766,"x_min":140,"x_max":682,"o":"m 682 0 l 140 0 l 140 991 l 682 991 l 682 928 l 210 928 l 210 553 l 656 553 l 656 489 l 210 489 l 210 64 l 682 64 l 682 0 m 603 1282 q 439 1071 488 1154 l 372 1071 q 208 1282 321 1158 l 208 1293 l 256 1293 q 406 1153 333 1230 q 555 1293 479 1230 l 603 1293 l 603 1282 z "},"ě":{"ha":762,"x_min":81,"x_max":682,"o":"m 421 -14 q 171 85 260 -14 q 81 363 81 184 q 168 645 81 539 q 401 751 254 751 q 607 661 532 751 q 682 414 682 570 l 682 359 l 151 359 q 222 127 153 208 q 421 47 292 47 q 532 56 484 47 q 653 94 580 65 l 653 33 q 538 -4 591 6 q 421 -14 485 -14 m 401 692 q 231 622 295 692 q 155 419 166 551 l 611 419 q 555 620 611 547 q 401 692 500 692 m 587 1053 q 423 842 472 925 l 357 842 q 193 1053 305 928 l 193 1064 l 240 1064 q 390 924 317 1000 q 540 1064 463 1001 l 587 1064 l 587 1053 z "},"Ĝ":{"ha":1004,"x_min":87,"x_max":896,"o":"m 530 500 l 896 500 l 896 47 q 572 -14 752 -14 q 213 119 338 -14 q 87 494 87 252 q 150 763 87 646 q 327 943 212 880 q 593 1007 443 1007 q 884 947 755 1007 l 856 885 q 589 945 727 945 q 278 824 393 945 q 163 497 163 703 q 272 160 163 273 q 593 47 381 47 q 825 86 730 47 l 825 435 l 530 435 l 530 500 m 347 1082 q 436 1187 389 1127 q 511 1293 484 1248 l 578 1293 q 742 1082 624 1212 l 742 1071 l 694 1071 q 545 1211 612 1139 q 395 1071 471 1134 l 347 1071 l 347 1082 z "},"ĝ":{"ha":726,"x_min":31,"x_max":699,"o":"m 699 737 l 699 690 l 546 681 q 607 514 607 605 q 536 341 607 408 q 346 275 465 275 q 275 279 296 275 q 214 230 235 258 q 193 170 193 201 q 220 118 193 134 q 310 102 247 102 l 439 102 q 623 53 559 102 q 686 -90 686 5 q 592 -270 686 -207 q 322 -334 497 -334 q 107 -280 183 -334 q 31 -131 31 -227 q 78 -5 31 -55 q 205 64 125 45 q 152 104 172 78 q 132 164 132 130 q 227 294 132 238 q 126 377 162 321 q 90 507 90 434 q 160 685 90 618 q 350 751 231 751 q 463 737 422 751 l 699 737 m 102 -125 q 328 -277 102 -277 q 618 -92 618 -277 q 572 5 618 -25 q 425 35 527 35 l 304 35 q 102 -125 102 35 m 158 507 q 210 375 158 422 q 349 328 262 328 q 490 374 441 328 q 539 510 539 421 q 489 651 539 604 q 347 699 438 699 q 209 648 259 699 q 158 507 158 597 m 156 852 q 245 958 198 898 q 320 1064 292 1019 l 387 1064 q 551 852 433 983 l 551 842 l 503 842 q 353 982 420 910 q 203 842 280 905 l 156 842 l 156 852 z "},"Ğ":{"ha":1004,"x_min":87,"x_max":896,"o":"m 530 500 l 896 500 l 896 47 q 572 -14 752 -14 q 213 119 338 -14 q 87 494 87 252 q 150 763 87 646 q 327 943 212 880 q 593 1007 443 1007 q 884 947 755 1007 l 856 885 q 589 945 727 945 q 278 824 393 945 q 163 497 163 703 q 272 160 163 273 q 593 47 381 47 q 825 86 730 47 l 825 435 l 530 435 l 530 500 m 542 1071 q 355 1238 370 1071 l 411 1238 q 452 1153 420 1179 q 543 1128 484 1128 q 634 1153 603 1128 q 676 1238 666 1179 l 730 1238 q 542 1071 710 1071 z "},"ğ":{"ha":726,"x_min":31,"x_max":699,"o":"m 699 737 l 699 690 l 546 681 q 607 514 607 605 q 536 341 607 408 q 346 275 465 275 q 275 279 296 275 q 214 230 235 258 q 193 170 193 201 q 220 118 193 134 q 310 102 247 102 l 439 102 q 623 53 559 102 q 686 -90 686 5 q 592 -270 686 -207 q 322 -334 497 -334 q 107 -280 183 -334 q 31 -131 31 -227 q 78 -5 31 -55 q 205 64 125 45 q 152 104 172 78 q 132 164 132 130 q 227 294 132 238 q 126 377 162 321 q 90 507 90 434 q 160 685 90 618 q 350 751 231 751 q 463 737 422 751 l 699 737 m 102 -125 q 328 -277 102 -277 q 618 -92 618 -277 q 572 5 618 -25 q 425 35 527 35 l 304 35 q 102 -125 102 35 m 158 507 q 210 375 158 422 q 349 328 262 328 q 490 374 441 328 q 539 510 539 421 q 489 651 539 604 q 347 699 438 699 q 209 648 259 699 q 158 507 158 597 m 348 842 q 161 1008 176 842 l 217 1008 q 258 924 227 949 q 349 899 290 899 q 440 924 409 899 q 482 1008 472 949 l 536 1008 q 348 842 516 842 z "},"Ġ":{"ha":1004,"x_min":87,"x_max":896,"o":"m 530 500 l 896 500 l 896 47 q 572 -14 752 -14 q 213 119 338 -14 q 87 494 87 252 q 150 763 87 646 q 327 943 212 880 q 593 1007 443 1007 q 884 947 755 1007 l 856 885 q 589 945 727 945 q 278 824 393 945 q 163 497 163 703 q 272 160 163 273 q 593 47 381 47 q 825 86 730 47 l 825 435 l 530 435 l 530 500 m 511 1171 q 554 1236 511 1236 q 587 1219 575 1236 q 598 1171 598 1202 q 587 1123 598 1141 q 554 1105 575 1105 q 511 1171 511 1105 z "},"ġ":{"ha":726,"x_min":31,"x_max":699,"o":"m 699 737 l 699 690 l 546 681 q 607 514 607 605 q 536 341 607 408 q 346 275 465 275 q 275 279 296 275 q 214 230 235 258 q 193 170 193 201 q 220 118 193 134 q 310 102 247 102 l 439 102 q 623 53 559 102 q 686 -90 686 5 q 592 -270 686 -207 q 322 -334 497 -334 q 107 -280 183 -334 q 31 -131 31 -227 q 78 -5 31 -55 q 205 64 125 45 q 152 104 172 78 q 132 164 132 130 q 227 294 132 238 q 126 377 162 321 q 90 507 90 434 q 160 685 90 618 q 350 751 231 751 q 463 737 422 751 l 699 737 m 102 -125 q 328 -277 102 -277 q 618 -92 618 -277 q 572 5 618 -25 q 425 35 527 35 l 304 35 q 102 -125 102 35 m 158 507 q 210 375 158 422 q 349 328 262 328 q 490 374 441 328 q 539 510 539 421 q 489 651 539 604 q 347 699 438 699 q 209 648 259 699 q 158 507 158 597 m 314 942 q 357 1007 314 1007 q 390 990 378 1007 q 401 942 401 973 q 390 894 401 911 q 357 876 378 876 q 314 942 314 876 z "},"Ģ":{"ha":1004,"x_min":87,"x_max":896,"o":"m 530 500 l 896 500 l 896 47 q 572 -14 752 -14 q 213 119 338 -14 q 87 494 87 252 q 150 763 87 646 q 327 943 212 880 q 593 1007 443 1007 q 884 947 755 1007 l 856 885 q 589 945 727 945 q 278 824 393 945 q 163 497 163 703 q 272 160 163 273 q 593 47 381 47 q 825 86 730 47 l 825 435 l 530 435 l 530 500 m 463 -296 q 496 -197 479 -259 q 521 -85 513 -136 l 597 -85 l 597 -94 q 554 -208 582 -150 q 499 -307 527 -266 l 463 -307 l 463 -296 z "},"ģ":{"ha":726,"x_min":31,"x_max":699,"o":"m 699 737 l 699 690 l 546 681 q 607 514 607 605 q 536 341 607 408 q 346 275 465 275 q 275 279 296 275 q 214 230 235 258 q 193 170 193 201 q 220 118 193 134 q 310 102 247 102 l 439 102 q 623 53 559 102 q 686 -90 686 5 q 592 -270 686 -207 q 322 -334 497 -334 q 107 -280 183 -334 q 31 -131 31 -227 q 78 -5 31 -55 q 205 64 125 45 q 152 104 172 78 q 132 164 132 130 q 227 294 132 238 q 126 377 162 321 q 90 507 90 434 q 160 685 90 618 q 350 751 231 751 q 463 737 422 751 l 699 737 m 102 -125 q 328 -277 102 -277 q 618 -92 618 -277 q 572 5 618 -25 q 425 35 527 35 l 304 35 q 102 -125 102 35 m 158 507 q 210 375 158 422 q 349 328 262 328 q 490 374 441 328 q 539 510 539 421 q 489 651 539 604 q 347 699 438 699 q 209 648 259 699 q 158 507 158 597 m 454 1053 q 417 945 435 1013 q 395 842 399 876 l 319 842 l 319 851 q 361 963 333 903 q 418 1064 389 1023 l 454 1064 l 454 1053 z "},"Ĥ":{"ha":999,"x_min":140,"x_max":859,"o":"m 859 0 l 789 0 l 789 488 l 210 488 l 210 0 l 140 0 l 140 991 l 210 991 l 210 551 l 789 551 l 789 991 l 859 991 l 859 0 m 301 1082 q 390 1187 343 1127 q 465 1293 437 1248 l 532 1293 q 696 1082 578 1212 l 696 1071 l 648 1071 q 498 1211 566 1139 q 349 1071 425 1134 l 301 1071 l 301 1082 z "},"ĥ":{"ha":819,"x_min":123,"x_max":704,"o":"m 637 0 l 637 478 q 591 640 637 589 q 446 690 544 690 q 252 624 313 690 q 191 407 191 557 l 191 0 l 123 0 l 123 1055 l 191 1055 l 191 720 l 187 625 l 192 625 q 296 722 233 692 q 453 751 359 751 q 704 482 704 751 l 704 0 l 637 0 m 212 1119 q 301 1225 254 1164 q 376 1331 349 1285 l 443 1331 q 607 1119 489 1249 l 607 1108 l 559 1108 q 410 1249 477 1177 q 260 1108 336 1171 l 212 1108 l 212 1119 z "},"Ħ":{"ha":999,"x_min":0,"x_max":999,"o":"m 140 808 l 140 991 l 210 991 l 210 808 l 789 808 l 789 991 l 859 991 l 859 808 l 999 808 l 999 745 l 859 745 l 859 0 l 789 0 l 789 488 l 210 488 l 210 0 l 140 0 l 140 745 l 0 745 l 0 808 l 140 808 m 789 551 l 789 745 l 210 745 l 210 551 l 789 551 z "},"ħ":{"ha":819,"x_min":18,"x_max":704,"o":"m 637 0 l 637 457 q 591 619 637 568 q 446 669 544 669 q 251 603 312 669 q 191 386 191 536 l 191 0 l 123 0 l 123 863 l 18 863 l 18 918 l 123 918 l 123 1055 l 191 1055 l 191 918 l 511 918 l 511 863 l 191 863 l 191 699 l 187 604 l 192 604 q 296 701 233 671 q 453 730 359 730 q 704 461 704 730 l 704 0 l 637 0 z "},"ĩ":{"ha":314,"x_min":-73,"x_max":401,"o":"m 191 0 l 123 0 l 123 737 l 191 737 l 191 0 m 264 843 q 214 856 240 843 q 145 904 187 868 q 103 935 123 922 q 60 949 82 949 q 9 925 30 949 q -23 843 -11 902 l -73 843 q -30 961 -66 918 q 63 1004 6 1004 q 123 987 96 1004 q 178 947 150 970 q 223 913 201 928 q 264 899 245 899 q 317 923 296 899 q 349 1004 338 948 l 401 1004 q 354 884 390 926 q 264 843 318 843 z "},"ī":{"ha":314,"x_min":-30,"x_max":347,"o":"m 191 0 l 123 0 l 123 737 l 191 737 l 191 0 m -30 904 l 347 904 l 347 848 l -30 848 l -30 904 z "},"ĭ":{"ha":314,"x_min":-30,"x_max":345,"o":"m 191 0 l 123 0 l 123 737 l 191 737 l 191 0 m 157 842 q -30 1008 -15 842 l 26 1008 q 67 924 35 949 q 158 899 98 899 q 249 924 218 899 q 291 1008 281 949 l 345 1008 q 157 842 325 842 z "},"į":{"ha":314,"x_min":26,"x_max":221,"o":"m 191 0 l 123 0 l 123 737 l 191 737 l 191 0 m 114 942 q 157 1007 114 1007 q 190 990 178 1007 q 201 942 201 973 q 190 894 201 911 q 157 876 178 876 q 114 942 114 876 m 94 -168 q 165 -243 94 -243 q 221 -235 199 -243 l 221 -292 q 151 -302 194 -302 q 60 -270 94 -302 q 26 -179 26 -238 q 54 -85 26 -132 q 130 0 81 -38 l 191 0 q 118 -81 142 -43 q 94 -168 94 -119 z "},"ı":{"ha":314,"x_min":123,"x_max":191,"o":"m 191 0 l 123 0 l 123 737 l 191 737 l 191 0 z "},"ĳ":{"ha":628,"x_min":114,"x_max":515,"o":"m 191 0 l 123 0 l 123 737 l 191 737 l 191 0 m 114 942 q 157 1007 114 1007 q 190 990 178 1007 q 201 942 201 973 q 190 894 201 911 q 157 876 178 876 q 114 942 114 876 m 339 -334 q 248 -317 285 -334 l 248 -258 q 335 -272 294 -272 q 437 -153 437 -272 l 437 737 l 505 737 l 505 -143 q 461 -284 505 -235 q 339 -334 418 -334 m 428 942 q 471 1007 428 1007 q 504 990 492 1007 q 515 942 515 973 q 504 894 515 911 q 471 876 492 876 q 428 942 428 876 z "},"Ĵ":{"ha":343,"x_min":-125,"x_max":372,"o":"m -22 -250 q -125 -232 -85 -250 l -125 -172 q -24 -186 -72 -186 q 140 -7 140 -186 l 140 991 l 210 991 l 210 0 q -22 -250 210 -250 m -23 1082 q 66 1187 19 1127 q 141 1293 113 1248 l 208 1293 q 372 1082 254 1212 l 372 1071 l 324 1071 q 174 1211 241 1139 q 24 1071 101 1134 l -23 1071 l -23 1082 z "},"ĵ":{"ha":314,"x_min":-66,"x_max":355,"o":"m 25 -334 q -66 -317 -29 -334 l -66 -258 q 21 -272 -20 -272 q 123 -153 123 -272 l 123 737 l 191 737 l 191 -143 q 148 -284 191 -235 q 25 -334 104 -334 m -39 852 q 50 958 3 898 q 125 1064 97 1019 l 191 1064 q 355 852 237 983 l 355 842 l 308 842 q 158 982 225 910 q 8 842 85 905 l -39 842 l -39 852 z "},"Ķ":{"ha":807,"x_min":140,"x_max":807,"o":"m 807 0 l 722 0 l 342 524 l 210 407 l 210 0 l 140 0 l 140 991 l 210 991 l 210 476 l 319 586 l 708 991 l 796 991 l 390 572 l 807 0 m 355 -296 q 389 -197 372 -259 q 414 -85 406 -136 l 490 -85 l 490 -94 q 447 -208 475 -150 q 392 -307 420 -266 l 355 -307 l 355 -296 z "},"ķ":{"ha":672,"x_min":123,"x_max":672,"o":"m 189 323 l 566 737 l 647 737 l 357 422 l 672 0 l 591 0 l 311 372 l 191 262 l 191 0 l 123 0 l 123 1055 l 191 1055 l 191 526 l 186 323 l 189 323 m 296 -296 q 330 -197 313 -259 q 354 -85 347 -136 l 431 -85 l 431 -94 q 388 -208 415 -150 q 332 -307 360 -266 l 296 -307 l 296 -296 z "},"ĸ":{"ha":672,"x_min":123,"x_max":672,"o":"m 189 323 l 566 737 l 647 737 l 357 422 l 672 0 l 591 0 l 311 372 l 191 262 l 191 0 l 123 0 l 123 737 l 191 737 l 191 526 l 186 323 l 189 323 z "},"Ĺ":{"ha":713,"x_min":140,"x_max":682,"o":"m 140 0 l 140 991 l 210 991 l 210 65 l 682 65 l 682 0 l 140 0 m 153 1082 q 251 1198 203 1135 q 317 1293 300 1261 l 413 1293 l 413 1282 q 330 1188 389 1246 q 201 1071 271 1130 l 153 1071 l 153 1082 z "},"ĺ":{"ha":314,"x_min":92,"x_max":352,"o":"m 191 0 l 123 0 l 123 1055 l 191 1055 l 191 0 m 92 1120 q 190 1237 142 1174 q 256 1332 239 1299 l 352 1332 l 352 1320 q 269 1227 328 1285 q 140 1109 210 1168 l 92 1109 l 92 1120 z "},"Ļ":{"ha":713,"x_min":140,"x_max":682,"o":"m 140 0 l 140 991 l 210 991 l 210 65 l 682 65 l 682 0 l 140 0 m 313 -296 q 347 -197 330 -259 q 371 -85 363 -136 l 448 -85 l 448 -94 q 405 -208 432 -150 q 349 -307 377 -266 l 313 -307 l 313 -296 z "},"ļ":{"ha":314,"x_min":66,"x_max":201,"o":"m 191 0 l 123 0 l 123 1055 l 191 1055 l 191 0 m 66 -296 q 100 -197 83 -259 q 124 -85 117 -136 l 201 -85 l 201 -94 q 158 -208 185 -150 q 102 -307 130 -266 l 66 -307 l 66 -296 z "},"Ľ":{"ha":713,"x_min":140,"x_max":682,"o":"m 140 0 l 140 991 l 210 991 l 210 65 l 682 65 l 682 0 l 140 0 m 458 781 q 491 876 473 812 q 517 992 509 940 l 593 992 l 593 983 q 556 883 583 942 q 494 770 530 824 l 458 770 l 458 781 z "},"ľ":{"ha":314,"x_min":123,"x_max":396,"o":"m 191 0 l 123 0 l 123 1055 l 191 1055 l 191 0 m 262 844 q 294 939 276 875 q 320 1055 313 1003 l 396 1055 l 396 1046 q 360 946 386 1005 q 298 833 334 887 l 262 833 l 262 844 z "},"Ŀ":{"ha":713,"x_min":140,"x_max":682,"o":"m 140 0 l 140 991 l 210 991 l 210 65 l 682 65 l 682 0 l 140 0 m 469 494 q 513 559 469 559 q 545 542 534 559 q 557 494 557 525 q 545 446 557 463 q 513 428 534 428 q 469 494 469 428 z "},"ŀ":{"ha":323,"x_min":123,"x_max":362,"o":"m 191 0 l 123 0 l 123 1055 l 191 1055 l 191 0 m 275 459 q 318 524 275 524 q 351 507 339 524 q 362 459 362 490 q 351 411 362 429 q 318 393 339 393 q 275 459 275 393 z "},"Ł":{"ha":713,"x_min":20,"x_max":682,"o":"m 140 0 l 140 374 l 47 315 l 20 366 l 140 441 l 140 991 l 210 991 l 210 485 l 429 624 l 461 572 l 210 416 l 210 65 l 682 65 l 682 0 l 140 0 z "},"ł":{"ha":314,"x_min":5,"x_max":323,"o":"m 191 554 l 294 624 l 323 576 l 191 488 l 191 0 l 123 0 l 123 443 l 36 385 l 5 433 l 123 511 l 123 1055 l 191 1055 l 191 554 z "},"Ń":{"ha":1002,"x_min":140,"x_max":861,"o":"m 861 0 l 791 0 l 204 880 l 199 880 q 207 643 207 723 l 207 0 l 140 0 l 140 991 l 210 991 l 796 113 l 800 113 q 794 345 794 235 l 794 991 l 861 991 l 861 0 m 419 1082 q 517 1198 469 1135 q 583 1293 566 1261 l 679 1293 l 679 1282 q 596 1188 654 1246 q 467 1071 537 1130 l 419 1071 l 419 1082 z "},"ń":{"ha":819,"x_min":123,"x_max":704,"o":"m 637 0 l 637 478 q 591 640 637 589 q 446 690 544 690 q 252 624 313 690 q 191 407 191 557 l 191 0 l 123 0 l 123 737 l 180 737 l 193 636 l 197 636 q 453 751 269 751 q 704 482 704 751 l 704 0 l 637 0 m 332 852 q 430 969 381 906 q 496 1064 478 1031 l 591 1064 l 591 1053 q 508 959 567 1017 q 379 842 450 901 l 332 842 l 332 852 z "},"Ņ":{"ha":1002,"x_min":140,"x_max":861,"o":"m 861 0 l 791 0 l 204 880 l 199 880 q 207 643 207 723 l 207 0 l 140 0 l 140 991 l 210 991 l 796 113 l 800 113 q 794 345 794 235 l 794 991 l 861 991 l 861 0 m 406 -296 q 439 -197 422 -259 q 464 -85 456 -136 l 541 -85 l 541 -94 q 497 -208 525 -150 q 442 -307 470 -266 l 406 -307 l 406 -296 z "},"ņ":{"ha":819,"x_min":123,"x_max":704,"o":"m 637 0 l 637 478 q 591 640 637 589 q 446 690 544 690 q 252 624 313 690 q 191 407 191 557 l 191 0 l 123 0 l 123 737 l 180 737 l 193 636 l 197 636 q 453 751 269 751 q 704 482 704 751 l 704 0 l 637 0 m 322 -296 q 356 -197 339 -259 q 380 -85 373 -136 l 457 -85 l 457 -94 q 414 -208 441 -150 q 359 -307 387 -266 l 322 -307 l 322 -296 z "},"Ň":{"ha":1002,"x_min":140,"x_max":861,"o":"m 861 0 l 791 0 l 204 880 l 199 880 q 207 643 207 723 l 207 0 l 140 0 l 140 991 l 210 991 l 796 113 l 800 113 q 794 345 794 235 l 794 991 l 861 991 l 861 0 m 697 1282 q 533 1071 582 1154 l 467 1071 q 302 1282 415 1158 l 302 1293 l 350 1293 q 500 1153 427 1230 q 650 1293 573 1230 l 697 1293 l 697 1282 z "},"ň":{"ha":819,"x_min":123,"x_max":704,"o":"m 637 0 l 637 478 q 591 640 637 589 q 446 690 544 690 q 252 624 313 690 q 191 407 191 557 l 191 0 l 123 0 l 123 737 l 180 737 l 193 636 l 197 636 q 453 751 269 751 q 704 482 704 751 l 704 0 l 637 0 m 607 1053 q 443 842 492 925 l 376 842 q 212 1053 325 928 l 212 1064 l 260 1064 q 410 924 337 1000 q 559 1064 483 1001 l 607 1064 l 607 1053 z "},"ŉ":{"ha":871,"x_min":1,"x_max":755,"o":"m 689 0 l 689 478 q 642 640 689 589 q 497 690 595 690 q 303 624 365 690 q 242 407 242 557 l 242 0 l 175 0 l 175 737 l 232 737 l 245 636 l 249 636 q 505 751 321 751 q 755 482 755 751 l 755 0 l 689 0 m 155 991 l 163 978 q 45 652 112 798 l 1 652 q 42 815 20 717 q 75 991 64 914 l 155 991 z "},"Ŋ":{"ha":1002,"x_min":140,"x_max":861,"o":"m 861 0 q 629 -250 861 -250 q 526 -232 566 -250 l 526 -172 q 628 -186 579 -186 q 791 -7 791 -186 l 791 0 l 204 880 l 199 880 q 207 643 207 723 l 207 0 l 140 0 l 140 991 l 210 991 l 796 113 l 800 113 q 794 345 794 235 l 794 991 l 861 991 l 861 0 z "},"ŋ":{"ha":819,"x_min":123,"x_max":704,"o":"m 539 -334 q 447 -317 486 -334 l 447 -258 q 534 -272 494 -272 q 637 -153 637 -272 l 637 478 q 588 640 637 589 q 436 690 539 690 q 249 623 308 690 q 191 407 191 555 l 191 0 l 123 0 l 123 737 l 180 737 l 193 636 l 197 636 q 297 723 234 695 q 436 751 360 751 q 638 684 572 751 q 704 482 704 617 l 704 -143 q 662 -284 704 -234 q 539 -334 619 -334 z "},"Ō":{"ha":1061,"x_min":87,"x_max":974,"o":"m 974 497 q 856 124 974 261 q 530 -14 738 -14 q 205 124 323 -14 q 87 498 87 261 q 207 871 87 735 q 532 1007 326 1007 q 857 870 739 1007 q 974 497 974 734 m 163 497 q 258 168 163 284 q 530 52 353 52 q 804 167 709 52 q 899 497 899 282 q 804 826 899 711 q 532 940 709 940 q 259 825 355 940 q 163 497 163 709 m 343 1133 l 720 1133 l 720 1078 l 343 1078 l 343 1133 z "},"ō":{"ha":814,"x_min":81,"x_max":733,"o":"m 733 370 q 646 88 733 189 q 404 -14 558 -14 q 233 33 307 -14 q 120 168 159 80 q 81 370 81 255 q 168 651 81 550 q 408 751 256 751 q 647 649 560 751 q 733 370 733 547 m 151 370 q 218 133 151 218 q 407 47 285 47 q 596 133 529 47 q 663 370 663 218 q 595 606 663 522 q 406 690 528 690 q 217 607 283 690 q 151 370 151 523 m 220 904 l 596 904 l 596 848 l 220 848 l 220 904 z "},"Ŏ":{"ha":1061,"x_min":87,"x_max":974,"o":"m 974 497 q 856 124 974 261 q 530 -14 738 -14 q 205 124 323 -14 q 87 498 87 261 q 207 871 87 735 q 532 1007 326 1007 q 857 870 739 1007 q 974 497 974 734 m 163 497 q 258 168 163 284 q 530 52 353 52 q 804 167 709 52 q 899 497 899 282 q 804 826 899 711 q 532 940 709 940 q 259 825 355 940 q 163 497 163 709 m 530 1071 q 343 1238 358 1071 l 399 1238 q 440 1153 408 1179 q 531 1128 471 1128 q 622 1153 591 1128 q 664 1238 654 1179 l 718 1238 q 530 1071 698 1071 z "},"ŏ":{"ha":814,"x_min":81,"x_max":733,"o":"m 733 370 q 646 88 733 189 q 404 -14 558 -14 q 233 33 307 -14 q 120 168 159 80 q 81 370 81 255 q 168 651 81 550 q 408 751 256 751 q 647 649 560 751 q 733 370 733 547 m 151 370 q 218 133 151 218 q 407 47 285 47 q 596 133 529 47 q 663 370 663 218 q 595 606 663 522 q 406 690 528 690 q 217 607 283 690 q 151 370 151 523 m 406 842 q 219 1008 234 842 l 275 1008 q 316 924 284 949 q 407 899 347 899 q 498 924 467 899 q 540 1008 530 949 l 594 1008 q 406 842 574 842 z "},"Ő":{"ha":1061,"x_min":87,"x_max":974,"o":"m 974 497 q 856 124 974 261 q 530 -14 738 -14 q 205 124 323 -14 q 87 498 87 261 q 207 871 87 735 q 532 1007 326 1007 q 857 870 739 1007 q 974 497 974 734 m 163 497 q 258 168 163 284 q 530 52 353 52 q 804 167 709 52 q 899 497 899 282 q 804 826 899 711 q 532 940 709 940 q 259 825 355 940 q 163 497 163 709 m 362 1082 q 408 1143 383 1104 q 490 1293 432 1181 l 582 1293 l 582 1282 q 410 1071 490 1145 l 362 1071 l 362 1082 m 591 1082 q 637 1143 612 1104 q 719 1293 661 1181 l 811 1293 l 811 1282 q 639 1071 720 1145 l 591 1071 l 591 1082 z "},"ő":{"ha":814,"x_min":81,"x_max":733,"o":"m 733 370 q 646 88 733 189 q 404 -14 558 -14 q 233 33 307 -14 q 120 168 159 80 q 81 370 81 255 q 168 651 81 550 q 408 751 256 751 q 647 649 560 751 q 733 370 733 547 m 151 370 q 218 133 151 218 q 407 47 285 47 q 596 133 529 47 q 663 370 663 218 q 595 606 663 522 q 406 690 528 690 q 217 607 283 690 q 151 370 151 523 m 232 852 q 277 913 253 875 q 359 1064 302 952 l 452 1064 l 452 1053 q 279 842 360 916 l 232 842 l 232 852 m 461 852 q 507 913 482 875 q 589 1064 531 952 l 681 1064 l 681 1053 q 509 842 589 916 l 461 842 l 461 852 z "},"Œ":{"ha":1247,"x_min":87,"x_max":1162,"o":"m 1162 0 l 650 0 q 530 -11 598 -11 q 205 125 323 -11 q 87 498 87 260 q 206 868 87 734 q 532 1003 324 1003 q 656 991 585 1003 l 1162 991 l 1162 928 l 718 928 l 718 553 l 1136 553 l 1136 489 l 718 489 l 718 64 l 1162 64 l 1162 0 m 530 54 q 648 66 604 54 l 648 925 q 532 936 606 936 q 258 822 354 936 q 163 497 163 709 q 258 169 163 283 q 530 54 353 54 z "},"œ":{"ha":1317,"x_min":81,"x_max":1236,"o":"m 975 -14 q 794 32 869 -14 q 682 167 720 78 q 575 33 642 80 q 404 -14 508 -14 q 233 33 307 -14 q 120 168 159 80 q 81 370 81 255 q 168 651 81 550 q 408 751 256 751 q 578 704 511 751 q 685 562 646 656 q 956 751 760 751 q 1161 661 1086 751 q 1236 414 1236 570 l 1236 359 l 720 359 q 788 125 721 203 q 975 47 854 47 q 1086 56 1038 47 q 1207 94 1134 65 l 1207 33 q 1092 -4 1145 6 q 975 -14 1039 -14 m 151 370 q 218 133 151 218 q 407 47 285 47 q 587 131 525 47 q 648 370 648 214 q 585 606 648 522 q 406 690 522 690 q 217 607 283 690 q 151 370 151 523 m 956 692 q 791 621 850 692 q 722 419 732 551 l 1165 419 q 1109 620 1165 547 q 956 692 1054 692 z "},"Ŕ":{"ha":825,"x_min":140,"x_max":794,"o":"m 210 432 l 210 0 l 140 0 l 140 991 l 376 991 q 649 923 561 991 q 737 718 737 855 q 685 550 737 618 q 525 452 632 481 l 794 0 l 711 0 l 456 432 l 210 432 m 210 492 l 399 492 q 593 548 524 492 q 663 713 663 604 q 595 878 663 826 q 374 929 527 929 l 210 929 l 210 492 m 333 1082 q 431 1198 382 1135 q 497 1293 479 1261 l 593 1293 l 593 1282 q 510 1188 568 1246 q 380 1071 451 1130 l 333 1071 l 333 1082 z "},"ŕ":{"ha":541,"x_min":123,"x_max":514,"o":"m 414 751 q 514 742 460 751 l 501 677 q 406 689 455 689 q 251 609 311 689 q 191 407 191 529 l 191 0 l 123 0 l 123 737 l 180 737 l 187 604 l 192 604 q 289 719 237 686 q 414 751 340 751 m 230 852 q 328 969 279 906 q 394 1064 376 1031 l 490 1064 l 490 1053 q 407 959 465 1017 q 277 842 348 901 l 230 842 l 230 852 z "},"Ŗ":{"ha":825,"x_min":140,"x_max":794,"o":"m 210 432 l 210 0 l 140 0 l 140 991 l 376 991 q 649 923 561 991 q 737 718 737 855 q 685 550 737 618 q 525 452 632 481 l 794 0 l 711 0 l 456 432 l 210 432 m 210 492 l 399 492 q 593 548 524 492 q 663 713 663 604 q 595 878 663 826 q 374 929 527 929 l 210 929 l 210 492 m 355 -296 q 389 -197 372 -259 q 414 -85 406 -136 l 490 -85 l 490 -94 q 447 -208 475 -150 q 392 -307 420 -266 l 355 -307 l 355 -296 z "},"ŗ":{"ha":541,"x_min":74,"x_max":514,"o":"m 414 751 q 514 742 460 751 l 501 677 q 406 689 455 689 q 251 609 311 689 q 191 407 191 529 l 191 0 l 123 0 l 123 737 l 180 737 l 187 604 l 192 604 q 289 719 237 686 q 414 751 340 751 m 74 -296 q 108 -197 91 -259 q 132 -85 125 -136 l 209 -85 l 209 -94 q 166 -208 193 -150 q 111 -307 138 -266 l 74 -307 l 74 -296 z "},"Ř":{"ha":825,"x_min":140,"x_max":794,"o":"m 210 432 l 210 0 l 140 0 l 140 991 l 376 991 q 649 923 561 991 q 737 718 737 855 q 685 550 737 618 q 525 452 632 481 l 794 0 l 711 0 l 456 432 l 210 432 m 210 492 l 399 492 q 593 548 524 492 q 663 713 663 604 q 595 878 663 826 q 374 929 527 929 l 210 929 l 210 492 m 607 1282 q 443 1071 492 1154 l 376 1071 q 212 1282 325 1158 l 212 1293 l 260 1293 q 410 1153 337 1230 q 559 1293 483 1230 l 607 1293 l 607 1282 z "},"ř":{"ha":541,"x_min":111,"x_max":514,"o":"m 414 751 q 514 742 460 751 l 501 677 q 406 689 455 689 q 251 609 311 689 q 191 407 191 529 l 191 0 l 123 0 l 123 737 l 180 737 l 187 604 l 192 604 q 289 719 237 686 q 414 751 340 751 m 505 1053 q 341 842 390 925 l 275 842 q 111 1053 223 928 l 111 1064 l 158 1064 q 308 924 235 1000 q 458 1064 381 1001 l 505 1064 l 505 1053 z "},"Ś":{"ha":757,"x_min":75,"x_max":688,"o":"m 688 256 q 596 59 688 132 q 354 -14 505 -14 q 75 26 172 -14 l 75 96 q 349 50 182 50 q 542 106 471 50 q 614 253 614 162 q 590 346 614 309 q 513 414 566 383 q 355 479 459 444 q 145 592 203 532 q 87 754 87 653 q 175 936 87 865 q 399 1006 262 1006 q 661 953 538 1006 l 636 893 q 400 945 513 945 q 225 894 290 945 q 160 755 160 843 q 180 665 160 701 q 245 602 200 630 q 401 534 291 574 q 576 457 517 494 q 661 371 634 419 q 688 256 688 323 m 309 1082 q 407 1198 359 1135 q 473 1293 456 1261 l 569 1293 l 569 1282 q 486 1188 545 1246 q 357 1071 427 1130 l 309 1071 l 309 1082 z "},"ś":{"ha":647,"x_min":57,"x_max":581,"o":"m 581 192 q 505 40 581 93 q 292 -14 430 -14 q 57 32 144 -14 l 57 104 q 292 49 168 49 q 457 85 401 49 q 514 182 514 121 q 469 275 514 237 q 321 350 424 313 q 165 419 210 390 q 98 484 121 448 q 75 572 75 520 q 145 703 75 655 q 339 751 214 751 q 566 707 458 751 l 541 646 q 339 690 432 690 q 196 661 249 690 q 143 578 143 631 q 184 486 143 520 q 345 408 225 451 q 490 343 444 372 q 558 278 535 315 q 581 192 581 241 m 238 852 q 336 969 288 906 q 402 1064 385 1031 l 498 1064 l 498 1053 q 415 959 473 1017 q 286 842 356 901 l 238 842 l 238 852 z "},"Ŝ":{"ha":757,"x_min":75,"x_max":688,"o":"m 688 256 q 596 59 688 132 q 354 -14 505 -14 q 75 26 172 -14 l 75 96 q 349 50 182 50 q 542 106 471 50 q 614 253 614 162 q 590 346 614 309 q 513 414 566 383 q 355 479 459 444 q 145 592 203 532 q 87 754 87 653 q 175 936 87 865 q 399 1006 262 1006 q 661 953 538 1006 l 636 893 q 400 945 513 945 q 225 894 290 945 q 160 755 160 843 q 180 665 160 701 q 245 602 200 630 q 401 534 291 574 q 576 457 517 494 q 661 371 634 419 q 688 256 688 323 m 190 1082 q 279 1187 232 1127 q 354 1293 326 1248 l 420 1293 q 585 1082 467 1212 l 585 1071 l 537 1071 q 387 1211 454 1139 q 237 1071 314 1134 l 190 1071 l 190 1082 z "},"ŝ":{"ha":647,"x_min":57,"x_max":581,"o":"m 581 192 q 505 40 581 93 q 292 -14 430 -14 q 57 32 144 -14 l 57 104 q 292 49 168 49 q 457 85 401 49 q 514 182 514 121 q 469 275 514 237 q 321 350 424 313 q 165 419 210 390 q 98 484 121 448 q 75 572 75 520 q 145 703 75 655 q 339 751 214 751 q 566 707 458 751 l 541 646 q 339 690 432 690 q 196 661 249 690 q 143 578 143 631 q 184 486 143 520 q 345 408 225 451 q 490 343 444 372 q 558 278 535 315 q 581 192 581 241 m 133 852 q 222 958 175 898 q 297 1064 269 1019 l 363 1064 q 528 852 410 983 l 528 842 l 480 842 q 330 982 397 910 q 180 842 257 905 l 133 842 l 133 852 z "},"Ş":{"ha":757,"x_min":75,"x_max":688,"o":"m 688 256 q 596 59 688 132 q 354 -14 505 -14 q 75 26 172 -14 l 75 96 q 349 50 182 50 q 542 106 471 50 q 614 253 614 162 q 590 346 614 309 q 513 414 566 383 q 355 479 459 444 q 145 592 203 532 q 87 754 87 653 q 175 936 87 865 q 399 1006 262 1006 q 661 953 538 1006 l 636 893 q 400 945 513 945 q 225 894 290 945 q 160 755 160 843 q 180 665 160 701 q 245 602 200 630 q 401 534 291 574 q 576 457 517 494 q 661 371 634 419 q 688 256 688 323 m 488 -197 q 442 -299 488 -265 q 314 -334 396 -334 q 250 -326 268 -334 l 250 -267 q 313 -273 271 -273 q 393 -254 366 -273 q 421 -200 421 -235 q 290 -118 421 -136 l 353 0 l 418 0 l 374 -79 q 488 -197 488 -104 z "},"ş":{"ha":647,"x_min":57,"x_max":581,"o":"m 581 192 q 505 40 581 93 q 292 -14 430 -14 q 57 32 144 -14 l 57 104 q 292 49 168 49 q 457 85 401 49 q 514 182 514 121 q 469 275 514 237 q 321 350 424 313 q 165 419 210 390 q 98 484 121 448 q 75 572 75 520 q 145 703 75 655 q 339 751 214 751 q 566 707 458 751 l 541 646 q 339 690 432 690 q 196 661 249 690 q 143 578 143 631 q 184 486 143 520 q 345 408 225 451 q 490 343 444 372 q 558 278 535 315 q 581 192 581 241 m 427 -197 q 381 -299 427 -265 q 253 -334 335 -334 q 189 -326 207 -334 l 189 -267 q 252 -273 210 -273 q 332 -254 304 -273 q 360 -200 360 -235 q 229 -118 360 -136 l 292 0 l 357 0 l 313 -79 q 427 -197 427 -104 z "},"Š":{"ha":757,"x_min":75,"x_max":688,"o":"m 688 256 q 596 59 688 132 q 354 -14 505 -14 q 75 26 172 -14 l 75 96 q 349 50 182 50 q 542 106 471 50 q 614 253 614 162 q 590 346 614 309 q 513 414 566 383 q 355 479 459 444 q 145 592 203 532 q 87 754 87 653 q 175 936 87 865 q 399 1006 262 1006 q 661 953 538 1006 l 636 893 q 400 945 513 945 q 225 894 290 945 q 160 755 160 843 q 180 665 160 701 q 245 602 200 630 q 401 534 291 574 q 576 457 517 494 q 661 371 634 419 q 688 256 688 323 m 583 1282 q 418 1071 467 1154 l 352 1071 q 188 1282 300 1158 l 188 1293 l 235 1293 q 385 1153 313 1230 q 535 1293 458 1230 l 583 1293 l 583 1282 z "},"š":{"ha":647,"x_min":57,"x_max":581,"o":"m 581 192 q 505 40 581 93 q 292 -14 430 -14 q 57 32 144 -14 l 57 104 q 292 49 168 49 q 457 85 401 49 q 514 182 514 121 q 469 275 514 237 q 321 350 424 313 q 165 419 210 390 q 98 484 121 448 q 75 572 75 520 q 145 703 75 655 q 339 751 214 751 q 566 707 458 751 l 541 646 q 339 690 432 690 q 196 661 249 690 q 143 578 143 631 q 184 486 143 520 q 345 408 225 451 q 490 343 444 372 q 558 278 535 315 q 581 192 581 241 m 515 1053 q 351 842 399 925 l 284 842 q 120 1053 233 928 l 120 1064 l 168 1064 q 317 924 245 1000 q 467 1064 391 1001 l 515 1064 l 515 1053 z "},"Ț":{"ha":728,"x_min":7,"x_max":721,"o":"m 399 0 l 329 0 l 329 926 l 7 926 l 7 991 l 721 991 l 721 926 l 399 926 l 399 0 m 273 -296 q 307 -197 290 -259 q 332 -85 324 -136 l 408 -85 l 408 -94 q 365 -208 393 -150 q 310 -307 338 -266 l 273 -307 l 273 -296 z "},"ț":{"ha":465,"x_min":17,"x_max":429,"o":"m 318 46 q 429 57 382 46 l 429 3 q 317 -14 380 -14 q 173 39 219 -14 q 126 203 126 91 l 126 679 l 17 679 l 17 718 l 126 749 l 160 916 l 195 916 l 195 737 l 411 737 l 411 679 l 195 679 l 195 212 q 224 87 195 127 q 318 46 254 46 m 178 -296 q 212 -197 195 -259 q 237 -85 229 -136 l 313 -85 l 313 -94 q 270 -208 298 -150 q 215 -307 243 -266 l 178 -307 l 178 -296 z "},"Ť":{"ha":728,"x_min":7,"x_max":721,"o":"m 399 0 l 329 0 l 329 926 l 7 926 l 7 991 l 721 991 l 721 926 l 399 926 l 399 0 m 562 1282 q 398 1071 447 1154 l 332 1071 q 168 1282 280 1158 l 168 1293 l 215 1293 q 365 1153 292 1230 q 515 1293 438 1230 l 562 1293 l 562 1282 z "},"ť":{"ha":465,"x_min":17,"x_max":460,"o":"m 318 46 q 429 57 382 46 l 429 3 q 317 -14 380 -14 q 173 39 219 -14 q 126 203 126 91 l 126 679 l 17 679 l 17 718 l 126 749 l 160 916 l 195 916 l 195 737 l 411 737 l 411 679 l 195 679 l 195 212 q 224 87 195 127 q 318 46 254 46 m 326 844 q 358 939 340 875 q 384 1055 376 1003 l 460 1055 l 460 1046 q 424 946 450 1005 q 361 833 397 887 l 326 833 l 326 844 z "},"Ŧ":{"ha":728,"x_min":7,"x_max":721,"o":"m 399 538 l 639 538 l 639 473 l 399 473 l 399 0 l 329 0 l 329 473 l 86 473 l 86 538 l 329 538 l 329 926 l 7 926 l 7 991 l 721 991 l 721 926 l 399 926 l 399 538 z "},"ŧ":{"ha":465,"x_min":17,"x_max":429,"o":"m 28 467 l 126 467 l 126 679 l 17 679 l 17 718 l 126 749 l 160 916 l 195 916 l 195 737 l 411 737 l 411 679 l 195 679 l 195 467 l 404 467 l 404 408 l 195 408 l 195 212 q 224 87 195 127 q 318 46 254 46 q 429 57 382 46 l 429 3 q 317 -14 380 -14 q 173 39 219 -14 q 126 203 126 91 l 126 408 l 28 408 l 28 467 z "},"Ũ":{"ha":999,"x_min":129,"x_max":869,"o":"m 869 991 l 869 350 q 770 83 869 179 q 494 -14 671 -14 q 225 83 322 -14 q 129 353 129 180 l 129 991 l 199 991 l 199 350 q 278 127 199 207 q 503 47 357 47 q 722 126 644 47 q 800 343 800 204 l 800 991 l 869 991 m 606 1072 q 555 1085 581 1072 q 486 1133 528 1097 q 444 1164 465 1151 q 401 1178 423 1178 q 351 1155 371 1178 q 318 1072 330 1131 l 269 1072 q 311 1191 275 1147 q 404 1234 347 1234 q 464 1217 437 1234 q 519 1177 491 1200 q 564 1143 543 1158 q 606 1128 586 1128 q 658 1153 637 1128 q 690 1234 679 1177 l 742 1234 q 695 1114 731 1155 q 606 1072 659 1072 z "},"ũ":{"ha":819,"x_min":115,"x_max":696,"o":"m 182 737 l 182 260 q 229 98 182 149 q 374 47 275 47 q 567 114 505 47 q 629 330 629 180 l 629 737 l 696 737 l 696 0 l 639 0 l 627 102 l 623 102 q 367 -14 551 -14 q 115 256 115 -14 l 115 737 l 182 737 m 519 843 q 468 856 494 843 q 399 904 441 868 q 357 935 378 922 q 315 949 336 949 q 264 925 284 949 q 231 843 243 902 l 182 843 q 224 961 189 918 q 317 1004 260 1004 q 377 987 350 1004 q 433 947 404 970 q 477 913 456 928 q 519 899 499 899 q 571 923 550 899 q 604 1004 592 948 l 655 1004 q 608 884 644 926 q 519 843 572 843 z "},"Ū":{"ha":999,"x_min":129,"x_max":869,"o":"m 869 991 l 869 350 q 770 83 869 179 q 494 -14 671 -14 q 225 83 322 -14 q 129 353 129 180 l 129 991 l 199 991 l 199 350 q 278 127 199 207 q 503 47 357 47 q 722 126 644 47 q 800 343 800 204 l 800 991 l 869 991 m 311 1133 l 688 1133 l 688 1078 l 311 1078 l 311 1133 z "},"ū":{"ha":819,"x_min":115,"x_max":696,"o":"m 182 737 l 182 260 q 229 98 182 149 q 374 47 275 47 q 567 114 505 47 q 629 330 629 180 l 629 737 l 696 737 l 696 0 l 639 0 l 627 102 l 623 102 q 367 -14 551 -14 q 115 256 115 -14 l 115 737 l 182 737 m 222 904 l 599 904 l 599 848 l 222 848 l 222 904 z "},"Ŭ":{"ha":999,"x_min":129,"x_max":869,"o":"m 869 991 l 869 350 q 770 83 869 179 q 494 -14 671 -14 q 225 83 322 -14 q 129 353 129 180 l 129 991 l 199 991 l 199 350 q 278 127 199 207 q 503 47 357 47 q 722 126 644 47 q 800 343 800 204 l 800 991 l 869 991 m 497 1071 q 311 1238 326 1071 l 366 1238 q 407 1153 376 1179 q 498 1128 439 1128 q 590 1153 558 1128 q 631 1238 621 1179 l 686 1238 q 497 1071 665 1071 z "},"ŭ":{"ha":819,"x_min":115,"x_max":696,"o":"m 182 737 l 182 260 q 229 98 182 149 q 374 47 275 47 q 567 114 505 47 q 629 330 629 180 l 629 737 l 696 737 l 696 0 l 639 0 l 627 102 l 623 102 q 367 -14 551 -14 q 115 256 115 -14 l 115 737 l 182 737 m 408 842 q 222 1008 237 842 l 277 1008 q 318 924 287 949 q 410 899 350 899 q 501 924 469 899 q 543 1008 532 949 l 597 1008 q 408 842 576 842 z "},"Ů":{"ha":999,"x_min":129,"x_max":869,"o":"m 869 991 l 869 350 q 770 83 869 179 q 494 -14 671 -14 q 225 83 322 -14 q 129 353 129 180 l 129 991 l 199 991 l 199 350 q 278 127 199 207 q 503 47 357 47 q 722 126 644 47 q 800 343 800 204 l 800 991 l 869 991 m 646 1217 q 605 1112 646 1151 q 498 1072 564 1072 q 392 1112 433 1072 q 351 1217 351 1151 q 392 1320 351 1280 q 498 1360 433 1360 q 605 1320 564 1360 q 646 1217 646 1280 m 406 1217 q 431 1146 406 1172 q 498 1121 456 1121 q 566 1146 541 1121 q 591 1217 591 1172 q 565 1285 591 1260 q 498 1311 538 1311 q 431 1285 456 1311 q 406 1217 406 1259 z "},"ů":{"ha":819,"x_min":115,"x_max":696,"o":"m 182 737 l 182 260 q 229 98 182 149 q 374 47 275 47 q 567 114 505 47 q 629 330 629 180 l 629 737 l 696 737 l 696 0 l 639 0 l 627 102 l 623 102 q 367 -14 551 -14 q 115 256 115 -14 l 115 737 l 182 737 m 557 987 q 516 882 557 922 q 410 843 475 843 q 303 882 344 843 q 262 987 262 922 q 303 1091 262 1051 q 410 1131 344 1131 q 516 1090 475 1131 q 557 987 557 1050 m 317 987 q 342 917 317 943 q 410 892 368 892 q 477 917 452 892 q 503 987 503 943 q 476 1056 503 1031 q 410 1082 450 1082 q 342 1056 368 1082 q 317 987 317 1030 z "},"Ű":{"ha":999,"x_min":129,"x_max":869,"o":"m 869 991 l 869 350 q 770 83 869 179 q 494 -14 671 -14 q 225 83 322 -14 q 129 353 129 180 l 129 991 l 199 991 l 199 350 q 278 127 199 207 q 503 47 357 47 q 722 126 644 47 q 800 343 800 204 l 800 991 l 869 991 m 322 1082 q 368 1143 343 1104 q 450 1293 392 1181 l 542 1293 l 542 1282 q 370 1071 450 1145 l 322 1071 l 322 1082 m 551 1082 q 597 1143 572 1104 q 679 1293 621 1181 l 771 1293 l 771 1282 q 599 1071 680 1145 l 551 1071 l 551 1082 z "},"ű":{"ha":819,"x_min":115,"x_max":696,"o":"m 182 737 l 182 260 q 229 98 182 149 q 374 47 275 47 q 567 114 505 47 q 629 330 629 180 l 629 737 l 696 737 l 696 0 l 639 0 l 627 102 l 623 102 q 367 -14 551 -14 q 115 256 115 -14 l 115 737 l 182 737 m 235 852 q 280 913 256 875 q 362 1064 304 952 l 454 1064 l 454 1053 q 282 842 363 916 l 235 842 l 235 852 m 464 852 q 509 913 485 875 q 591 1064 534 952 l 684 1064 l 684 1053 q 511 842 592 916 l 464 842 l 464 852 z "},"Ų":{"ha":999,"x_min":129,"x_max":869,"o":"m 869 991 l 869 350 q 770 83 869 179 q 494 -14 671 -14 q 225 83 322 -14 q 129 353 129 180 l 129 991 l 199 991 l 199 350 q 278 127 199 207 q 503 47 357 47 q 722 126 644 47 q 800 343 800 204 l 800 991 l 869 991 m 473 -168 q 545 -243 473 -243 q 600 -235 578 -243 l 600 -292 q 530 -302 573 -302 q 439 -270 473 -302 q 406 -179 406 -238 q 433 -85 406 -132 q 509 0 460 -38 l 570 0 q 497 -81 521 -43 q 473 -168 473 -119 z "},"ų":{"ha":819,"x_min":115,"x_max":726,"o":"m 182 737 l 182 260 q 229 98 182 149 q 374 47 275 47 q 567 114 505 47 q 629 330 629 180 l 629 737 l 696 737 l 696 0 q 623 -81 647 -43 q 599 -168 599 -119 q 671 -243 599 -243 q 726 -235 704 -243 l 726 -292 q 656 -302 699 -302 q 565 -270 599 -302 q 532 -179 532 -238 q 559 -85 532 -132 q 638 3 585 -38 l 627 102 l 623 102 q 367 -14 551 -14 q 178 54 241 -14 q 115 256 115 121 l 115 737 l 182 737 z "},"Ŵ":{"ha":1239,"x_min":35,"x_max":1204,"o":"m 930 0 l 873 0 l 656 765 q 615 920 629 859 q 584 784 604 861 q 366 0 564 707 l 307 0 l 35 991 l 107 991 l 281 353 q 300 281 291 314 q 316 219 309 248 q 329 164 323 191 q 339 110 334 137 q 408 390 355 202 l 578 991 l 654 991 l 853 301 q 903 109 888 182 q 925 212 911 157 q 1135 991 939 267 l 1204 991 l 930 0 m 419 1082 q 508 1187 461 1127 q 583 1293 555 1248 l 650 1293 q 814 1082 696 1212 l 814 1071 l 766 1071 q 616 1211 684 1139 q 467 1071 543 1134 l 419 1071 l 419 1082 z "},"ŵ":{"ha":1004,"x_min":21,"x_max":983,"o":"m 713 0 l 551 493 q 511 640 536 543 l 507 640 l 493 590 l 463 492 l 298 0 l 232 0 l 21 737 l 93 737 l 211 310 q 265 77 252 151 l 269 77 q 328 288 309 235 l 479 737 l 541 737 l 685 289 q 745 78 734 130 l 749 78 q 803 314 754 122 l 916 737 l 983 737 l 783 0 l 713 0 m 311 852 q 400 958 353 898 q 475 1064 448 1019 l 542 1064 q 706 852 588 983 l 706 842 l 659 842 q 509 982 576 910 q 359 842 435 905 l 311 842 l 311 852 z "},"Ŷ":{"ha":733,"x_min":0,"x_max":733,"o":"m 368 449 l 659 991 l 733 991 l 403 383 l 403 0 l 332 0 l 332 378 l 0 991 l 79 991 l 368 449 m 170 1082 q 259 1187 212 1127 q 334 1293 307 1248 l 401 1293 q 565 1082 447 1212 l 565 1071 l 517 1071 q 368 1211 435 1139 q 218 1071 294 1134 l 170 1071 l 170 1082 z "},"ŷ":{"ha":637,"x_min":0,"x_max":637,"o":"m 0 737 l 69 737 l 225 323 q 315 66 296 133 l 319 66 q 412 328 348 154 l 568 737 l 637 737 l 307 -119 q 240 -260 267 -224 q 177 -315 213 -297 q 89 -334 140 -334 q 3 -319 50 -334 l 3 -261 q 87 -272 42 -272 q 149 -256 122 -272 q 196 -205 175 -239 q 246 -97 218 -171 q 282 0 274 -22 l 0 737 m 121 852 q 211 958 163 898 q 286 1064 258 1019 l 352 1064 q 516 852 398 983 l 516 842 l 469 842 q 319 982 386 910 q 169 842 245 905 l 121 842 l 121 852 z "},"Ÿ":{"ha":733,"x_min":0,"x_max":733,"o":"m 368 449 l 659 991 l 733 991 l 403 383 l 403 0 l 332 0 l 332 378 l 0 991 l 79 991 l 368 449 m 195 1171 q 206 1216 195 1202 q 238 1230 216 1230 q 281 1171 281 1230 q 238 1113 281 1113 q 195 1171 195 1113 m 454 1171 q 464 1216 454 1202 q 496 1230 475 1230 q 540 1171 540 1230 q 496 1113 540 1113 q 454 1171 454 1113 z "},"Ź":{"ha":800,"x_min":56,"x_max":745,"o":"m 745 0 l 56 0 l 56 52 l 636 926 l 82 926 l 82 991 l 729 991 l 729 940 l 147 65 l 745 65 l 745 0 m 326 1082 q 424 1198 376 1135 q 490 1293 473 1261 l 586 1293 l 586 1282 q 503 1188 562 1246 q 374 1071 444 1130 l 326 1071 l 326 1082 z "},"ź":{"ha":640,"x_min":56,"x_max":582,"o":"m 582 0 l 56 0 l 56 43 l 493 677 l 87 677 l 87 737 l 581 737 l 581 694 l 140 60 l 582 60 l 582 0 m 258 852 q 356 969 307 906 q 422 1064 404 1031 l 517 1064 l 517 1053 q 434 959 493 1017 q 305 842 376 901 l 258 842 l 258 852 z "},"Ż":{"ha":800,"x_min":56,"x_max":745,"o":"m 745 0 l 56 0 l 56 52 l 636 926 l 82 926 l 82 991 l 729 991 l 729 940 l 147 65 l 745 65 l 745 0 m 357 1171 q 400 1236 357 1236 q 433 1219 421 1236 q 444 1171 444 1202 q 433 1123 444 1141 q 400 1105 421 1105 q 357 1171 357 1105 z "},"ż":{"ha":640,"x_min":56,"x_max":582,"o":"m 582 0 l 56 0 l 56 43 l 493 677 l 87 677 l 87 737 l 581 737 l 581 694 l 140 60 l 582 60 l 582 0 m 289 942 q 332 1007 289 1007 q 365 990 353 1007 q 376 942 376 973 q 365 894 376 911 q 332 876 353 876 q 289 942 289 876 z "},"Ž":{"ha":800,"x_min":56,"x_max":745,"o":"m 745 0 l 56 0 l 56 52 l 636 926 l 82 926 l 82 991 l 729 991 l 729 940 l 147 65 l 745 65 l 745 0 m 604 1282 q 440 1071 489 1154 l 374 1071 q 210 1282 322 1158 l 210 1293 l 257 1293 q 407 1153 334 1230 q 557 1293 480 1230 l 604 1293 l 604 1282 z "},"ž":{"ha":640,"x_min":56,"x_max":582,"o":"m 582 0 l 56 0 l 56 43 l 493 677 l 87 677 l 87 737 l 581 737 l 581 694 l 140 60 l 582 60 l 582 0 m 529 1053 q 365 842 414 925 l 298 842 q 134 1053 247 928 l 134 1064 l 182 1064 q 332 924 259 1000 q 481 1064 405 1001 l 529 1064 l 529 1053 z "},"ſ":{"ha":425,"x_min":123,"x_max":458,"o":"m 191 0 l 123 0 l 123 800 q 174 1000 123 938 q 336 1063 224 1063 q 458 1044 397 1063 l 443 986 q 335 1003 389 1003 q 223 957 256 1003 q 191 806 191 910 l 191 0 z "},"ƒ":{"ha":793,"x_min":129,"x_max":685,"o":"m 205 579 l 205 619 l 346 644 l 346 743 q 398 943 346 880 q 561 1006 450 1006 q 685 985 616 1006 l 668 926 q 559 946 608 946 q 447 900 481 946 q 412 749 412 854 l 412 639 l 603 639 l 603 579 l 412 579 l 412 -118 q 364 -278 412 -223 q 224 -334 316 -334 q 129 -321 166 -334 l 129 -260 q 227 -272 182 -272 q 346 -125 346 -272 l 346 579 l 205 579 z "},"Ǻ":{"ha":833,"x_min":-8,"x_max":840,"o":"m 567 957 q 539 867 567 902 q 465 818 511 831 l 840 0 l 762 0 l 627 302 l 208 302 l 66 0 l -8 0 l 375 818 q 300 865 329 829 q 272 957 272 900 q 313 1060 272 1021 q 419 1100 353 1100 q 526 1061 486 1100 q 567 957 567 1021 m 600 366 l 460 673 q 419 778 444 709 q 376 669 404 730 l 235 366 l 600 366 m 326 957 q 352 887 326 912 q 419 861 378 861 q 487 887 461 861 q 513 957 513 912 q 486 1026 513 1000 q 419 1051 460 1051 q 352 1025 378 1051 q 326 957 326 1000 m 380 1146 q 510 1331 450 1221 l 606 1331 l 606 1320 q 523 1224 576 1278 q 428 1135 471 1170 l 380 1135 l 380 1146 z "},"ǻ":{"ha":736,"x_min":66,"x_max":621,"o":"m 571 0 l 554 117 l 549 117 q 434 16 493 45 q 296 -14 376 -14 q 127 42 187 -14 q 66 196 66 98 q 156 363 66 304 q 416 427 246 423 l 557 431 l 557 479 q 514 638 557 585 q 376 692 471 692 q 164 635 274 692 l 139 693 q 379 750 260 750 q 561 687 500 750 q 621 490 621 624 l 621 0 l 571 0 m 300 47 q 486 115 418 47 q 554 302 554 182 l 554 375 l 425 370 q 204 321 270 362 q 138 193 138 280 q 180 86 138 124 q 300 47 222 47 m 317 1161 q 386 1244 349 1195 q 444 1331 422 1294 l 538 1331 l 538 1321 q 461 1240 514 1291 q 363 1153 409 1189 l 317 1153 l 317 1161 m 514 958 q 473 853 514 892 q 367 814 433 814 q 260 853 301 814 q 220 958 220 892 q 260 1062 220 1022 q 367 1101 301 1101 q 473 1061 433 1101 q 514 958 514 1021 m 273 958 q 299 888 273 913 q 367 863 325 863 q 434 888 409 863 q 460 958 460 913 q 433 1027 460 1002 q 367 1053 407 1053 q 300 1027 326 1053 q 273 958 273 1002 z "},"Ǽ":{"ha":1121,"x_min":-1,"x_max":1036,"o":"m 1036 0 l 550 0 l 550 350 l 228 350 l 74 0 l -1 0 l 441 991 l 1036 991 l 1036 928 l 619 928 l 619 553 l 1010 553 l 1010 489 l 619 489 l 619 64 l 1036 64 l 1036 0 m 256 412 l 550 412 l 550 928 l 482 928 l 256 412 m 604 1082 q 702 1198 654 1135 q 768 1293 751 1261 l 864 1293 l 864 1282 q 781 1188 840 1246 q 652 1071 722 1130 l 604 1071 l 604 1082 z "},"ǽ":{"ha":1174,"x_min":66,"x_max":1093,"o":"m 843 -14 q 574 160 643 -14 q 460 28 528 70 q 289 -14 392 -14 q 125 42 183 -14 q 66 196 66 98 q 151 361 66 300 q 407 427 236 421 l 543 431 l 543 479 q 502 638 543 585 q 367 692 460 692 q 160 635 267 692 l 135 693 q 370 750 252 750 q 590 607 547 750 q 825 751 665 751 q 1022 660 950 751 q 1093 414 1093 569 l 1093 359 l 608 359 q 844 47 608 47 q 946 56 902 47 q 1064 94 990 64 l 1064 33 q 952 -4 1002 5 q 843 -14 903 -14 m 294 47 q 475 115 409 47 q 541 302 541 182 l 541 375 l 414 370 q 201 321 265 362 q 138 193 138 280 q 179 86 138 124 q 294 47 220 47 m 825 692 q 612 419 633 692 l 1022 419 q 969 619 1022 547 q 825 692 917 692 m 525 852 q 623 969 574 906 q 689 1064 671 1031 l 785 1064 l 785 1053 q 702 959 760 1017 q 572 842 643 901 l 525 842 l 525 852 z "},"Ǿ":{"ha":1061,"x_min":87,"x_max":974,"o":"m 974 497 q 856 124 974 261 q 530 -14 738 -14 q 262 68 370 -14 l 204 -14 l 154 26 l 215 113 q 87 498 87 248 q 207 871 87 735 q 532 1007 326 1007 q 798 925 689 1007 l 871 1028 l 920 987 l 844 884 q 974 497 974 743 m 899 497 q 804 827 899 711 l 301 123 q 530 52 391 52 q 804 167 709 52 q 899 497 899 282 m 163 497 q 257 170 163 286 l 758 871 q 532 940 668 940 q 259 825 355 940 q 163 497 163 709 m 465 1082 q 563 1198 515 1135 q 629 1293 612 1261 l 725 1293 l 725 1282 q 642 1188 701 1246 q 513 1071 583 1130 l 465 1071 l 465 1082 z "},"ǿ":{"ha":814,"x_min":81,"x_max":733,"o":"m 733 370 q 646 88 733 189 q 404 -14 558 -14 q 207 53 287 -14 l 149 -24 l 100 16 l 163 97 q 81 370 81 201 q 168 651 81 550 q 408 751 256 751 q 612 681 530 751 l 677 765 l 728 728 l 657 635 q 733 370 733 535 m 151 370 q 204 151 151 234 l 572 629 q 406 690 506 690 q 217 607 283 690 q 151 370 151 523 m 663 370 q 614 579 663 498 l 245 103 q 407 47 309 47 q 596 133 529 47 q 663 370 663 218 m 338 852 q 436 969 388 906 q 503 1064 485 1031 l 598 1064 l 598 1053 q 515 959 574 1017 q 386 842 456 901 l 338 842 l 338 852 z "},"Ș":{"ha":757,"x_min":75,"x_max":688,"o":"m 688 256 q 596 59 688 132 q 354 -14 505 -14 q 75 26 172 -14 l 75 96 q 349 50 182 50 q 542 106 471 50 q 614 253 614 162 q 590 346 614 309 q 513 414 566 383 q 355 479 459 444 q 145 592 203 532 q 87 754 87 653 q 175 936 87 865 q 399 1006 262 1006 q 661 953 538 1006 l 636 893 q 400 945 513 945 q 225 894 290 945 q 160 755 160 843 q 180 665 160 701 q 245 602 200 630 q 401 534 291 574 q 576 457 517 494 q 661 371 634 419 q 688 256 688 323 m 290 -296 q 324 -197 307 -259 q 349 -85 341 -136 l 425 -85 l 425 -94 q 382 -208 410 -150 q 327 -307 355 -266 l 290 -307 l 290 -296 z "},"ș":{"ha":647,"x_min":57,"x_max":581,"o":"m 581 192 q 505 40 581 93 q 292 -14 430 -14 q 57 32 144 -14 l 57 104 q 292 49 168 49 q 457 85 401 49 q 514 182 514 121 q 469 275 514 237 q 321 350 424 313 q 165 419 210 390 q 98 484 121 448 q 75 572 75 520 q 145 703 75 655 q 339 751 214 751 q 566 707 458 751 l 541 646 q 339 690 432 690 q 196 661 249 690 q 143 578 143 631 q 184 486 143 520 q 345 408 225 451 q 490 343 444 372 q 558 278 535 315 q 581 192 581 241 m 221 -296 q 255 -197 238 -259 q 279 -85 272 -136 l 356 -85 l 356 -94 q 313 -208 340 -150 q 258 -307 286 -266 l 221 -307 l 221 -296 z "},"ˆ":{"ha":802,"x_min":203,"x_max":597,"o":"m 203 852 q 292 958 245 898 q 367 1064 339 1019 l 433 1064 q 597 852 479 983 l 597 842 l 550 842 q 400 982 467 910 q 250 842 327 905 l 203 842 l 203 852 z "},"ˇ":{"ha":802,"x_min":203,"x_max":597,"o":"m 597 1053 q 433 842 482 925 l 367 842 q 203 1053 315 928 l 203 1064 l 250 1064 q 400 924 328 1000 q 550 1064 473 1001 l 597 1064 l 597 1053 z "},"ˉ":{"ha":774,"x_min":199,"x_max":575,"o":"m 199 904 l 575 904 l 575 848 l 199 848 l 199 904 z "},"˘":{"ha":802,"x_min":211,"x_max":586,"o":"m 397 842 q 211 1008 226 842 l 267 1008 q 308 924 276 949 q 399 899 339 899 q 490 924 458 899 q 532 1008 522 949 l 586 1008 q 397 842 566 842 z "},"˙":{"ha":328,"x_min":121,"x_max":208,"o":"m 121 942 q 164 1007 121 1007 q 197 990 185 1007 q 208 942 208 973 q 197 894 208 911 q 164 876 185 876 q 121 942 121 876 z "},"˚":{"ha":802,"x_min":252,"x_max":546,"o":"m 546 987 q 505 882 546 922 q 399 843 465 843 q 292 882 333 843 q 252 987 252 922 q 292 1091 252 1051 q 399 1131 333 1131 q 505 1090 465 1131 q 546 987 546 1050 m 306 987 q 331 917 306 943 q 399 892 357 892 q 466 917 441 892 q 492 987 492 943 q 465 1056 492 1031 q 399 1082 439 1082 q 331 1056 357 1082 q 306 987 306 1030 z "},"˛":{"ha":241,"x_min":43,"x_max":237,"o":"m 110 -168 q 182 -243 110 -243 q 237 -235 215 -243 l 237 -292 q 167 -302 210 -302 q 76 -270 110 -302 q 43 -179 43 -238 q 70 -85 43 -132 q 146 0 97 -38 l 207 0 q 134 -81 158 -43 q 110 -168 110 -119 z "},"˜":{"ha":802,"x_min":192,"x_max":665,"o":"m 529 843 q 478 856 505 843 q 410 904 452 868 q 367 935 388 922 q 325 949 347 949 q 274 925 294 949 q 241 843 254 902 l 192 843 q 235 961 199 918 q 328 1004 271 1004 q 387 987 360 1004 q 443 947 414 970 q 488 913 466 928 q 529 899 509 899 q 581 923 560 899 q 614 1004 602 948 l 665 1004 q 618 884 654 926 q 529 843 583 843 z "},"˝":{"ha":802,"x_min":175,"x_max":624,"o":"m 175 852 q 220 913 196 875 q 302 1064 245 952 l 395 1064 l 395 1053 q 222 842 303 916 l 175 842 l 175 852 m 404 852 q 450 913 425 875 q 532 1064 474 952 l 624 1064 l 624 1053 q 452 842 532 916 l 404 842 l 404 852 z "},"΄":{"ha":802,"x_min":359,"x_max":507,"o":"m 359 852 q 398 977 379 903 q 427 1120 417 1051 l 507 1120 l 507 1108 q 465 979 495 1056 q 399 842 434 901 l 359 842 l 359 852 z "},"΅":{"ha":802,"x_min":210,"x_max":591,"o":"m 357 953 q 435 1164 408 1064 l 514 1164 l 514 1152 q 465 1053 500 1116 q 396 942 430 990 l 357 942 l 357 953 m 210 942 q 253 1000 210 1000 q 296 942 296 1000 q 253 884 296 884 q 210 942 210 884 m 505 942 q 549 1000 505 1000 q 591 942 591 1000 q 549 884 591 884 q 505 942 505 884 z "},"Ά":{"ha":833,"x_min":0,"x_max":833,"o":"m 618 350 l 215 350 l 77 0 l 0 0 l 399 996 l 443 996 l 833 0 l 755 0 l 618 350 m 240 412 l 595 412 l 460 770 q 419 886 443 812 q 379 768 401 821 l 240 412 m 52 781 q 90 906 71 832 q 119 1048 109 980 l 199 1048 l 199 1037 q 157 907 187 985 q 91 770 126 830 l 52 770 l 52 781 z "},"·":{"ha":330,"x_min":110,"x_max":220,"o":"m 110 489 q 164 555 110 555 q 220 489 220 555 q 164 422 220 422 q 110 489 110 422 z "},"Έ":{"ha":828,"x_min":-27,"x_max":743,"o":"m 743 0 l 201 0 l 201 991 l 743 991 l 743 928 l 271 928 l 271 553 l 717 553 l 717 489 l 271 489 l 271 64 l 743 64 l 743 0 m -27 781 q 12 906 -7 832 q 40 1048 31 980 l 121 1048 l 121 1037 q 78 907 109 985 q 12 770 47 830 l -27 770 l -27 781 z "},"Ή":{"ha":1060,"x_min":-27,"x_max":920,"o":"m 920 0 l 850 0 l 850 488 l 271 488 l 271 0 l 201 0 l 201 991 l 271 991 l 271 551 l 850 551 l 850 991 l 920 991 l 920 0 m -27 781 q 12 906 -7 832 q 40 1048 31 980 l 121 1048 l 121 1037 q 78 907 109 985 q 12 770 47 830 l -27 770 l -27 781 z "},"Ό":{"ha":1069,"x_min":-27,"x_max":982,"o":"m 982 497 q 864 124 982 261 q 538 -14 746 -14 q 214 124 332 -14 q 96 498 96 261 q 215 871 96 735 q 540 1007 334 1007 q 865 870 747 1007 q 982 497 982 734 m 171 497 q 266 168 171 284 q 538 52 361 52 q 812 167 718 52 q 907 497 907 282 q 812 826 907 711 q 540 940 718 940 q 267 825 363 940 q 171 497 171 709 m -27 781 q 12 906 -7 832 q 40 1048 31 980 l 121 1048 l 121 1037 q 78 907 109 985 q 12 770 47 830 l -27 770 l -27 781 z "},"Ύ":{"ha":896,"x_min":-27,"x_max":896,"o":"m 531 449 l 821 991 l 896 991 l 566 383 l 566 0 l 494 0 l 494 378 l 163 991 l 242 991 l 531 449 m -27 781 q 12 906 -7 832 q 40 1048 31 980 l 121 1048 l 121 1037 q 78 907 109 985 q 12 770 47 830 l -27 770 l -27 781 z "},"Ώ":{"ha":1090,"x_min":-27,"x_max":1034,"o":"m 551 945 q 281 842 381 945 q 180 562 180 739 q 242 293 180 409 q 454 49 303 176 l 454 0 l 69 0 l 69 64 l 345 64 q 206 216 255 144 q 131 373 157 288 q 105 557 105 458 q 159 795 105 692 q 315 952 214 897 q 551 1007 416 1007 q 880 889 762 1007 q 998 558 998 771 q 944 298 998 416 q 761 64 889 179 l 1034 64 l 1034 0 l 651 0 l 651 49 q 860 286 797 168 q 923 561 923 405 q 824 842 923 739 q 551 945 725 945 m -27 781 q 12 906 -7 832 q 40 1048 31 980 l 121 1048 l 121 1037 q 78 907 109 985 q 12 770 47 830 l -27 770 l -27 781 z "},"ΐ":{"ha":427,"x_min":-34,"x_max":401,"o":"m 179 737 l 179 212 q 211 84 179 121 q 314 46 242 46 q 401 57 358 46 l 401 0 q 360 -9 388 -5 q 307 -14 332 -14 q 158 41 204 -14 q 113 205 113 95 l 113 737 l 179 737 m 113 953 q 191 1164 164 1064 l 271 1164 l 271 1152 q 221 1053 256 1116 q 153 942 186 990 l 113 942 l 113 953 m -34 942 q 9 1000 -34 1000 q 52 942 52 1000 q 9 884 52 884 q -34 942 -34 884 m 262 942 q 305 1000 262 1000 q 348 942 348 1000 q 305 884 348 884 q 262 942 262 884 z "},"Α":{"ha":833,"x_min":0,"x_max":833,"o":"m 618 350 l 215 350 l 77 0 l 0 0 l 399 996 l 443 996 l 833 0 l 755 0 l 618 350 m 240 412 l 595 412 l 460 770 q 419 886 443 812 q 379 768 401 821 l 240 412 z "},"Β":{"ha":871,"x_min":140,"x_max":793,"o":"m 140 991 l 412 991 q 682 929 596 991 q 768 741 768 867 q 716 597 768 654 q 562 524 663 540 l 562 519 q 737 445 681 502 q 793 285 793 387 q 702 74 793 148 q 444 0 611 0 l 140 0 l 140 991 m 210 550 l 428 550 q 631 596 568 550 q 694 742 694 643 q 623 886 694 841 q 410 930 551 930 l 210 930 l 210 550 m 210 489 l 210 61 l 443 61 q 718 285 718 61 q 428 489 718 489 l 210 489 z "},"Γ":{"ha":697,"x_min":140,"x_max":684,"o":"m 210 0 l 140 0 l 140 991 l 684 991 l 684 928 l 210 928 l 210 0 z "},"Δ":{"ha":793,"x_min":14,"x_max":779,"o":"m 14 40 l 367 991 l 421 991 l 779 39 l 779 0 l 14 0 l 14 40 m 393 892 q 94 65 357 788 l 697 65 q 393 892 432 780 z "},"Ε":{"ha":766,"x_min":140,"x_max":682,"o":"m 682 0 l 140 0 l 140 991 l 682 991 l 682 928 l 210 928 l 210 553 l 656 553 l 656 489 l 210 489 l 210 64 l 682 64 l 682 0 z "},"Ζ":{"ha":800,"x_min":56,"x_max":745,"o":"m 745 0 l 56 0 l 56 52 l 636 926 l 82 926 l 82 991 l 729 991 l 729 940 l 147 65 l 745 65 l 745 0 z "},"Η":{"ha":999,"x_min":140,"x_max":859,"o":"m 859 0 l 789 0 l 789 488 l 210 488 l 210 0 l 140 0 l 140 991 l 210 991 l 210 551 l 789 551 l 789 991 l 859 991 l 859 0 z "},"Θ":{"ha":1061,"x_min":87,"x_max":974,"o":"m 304 538 l 755 538 l 755 473 l 304 473 l 304 538 m 974 497 q 856 124 974 261 q 530 -14 738 -14 q 205 124 323 -14 q 87 498 87 261 q 207 871 87 735 q 532 1007 326 1007 q 857 870 739 1007 q 974 497 974 734 m 163 497 q 258 168 163 284 q 530 52 353 52 q 804 167 709 52 q 899 497 899 282 q 804 826 899 711 q 532 940 709 940 q 259 825 355 940 q 163 497 163 709 z "},"Κ":{"ha":807,"x_min":140,"x_max":807,"o":"m 807 0 l 722 0 l 342 524 l 210 407 l 210 0 l 140 0 l 140 991 l 210 991 l 210 476 l 319 586 l 708 991 l 796 991 l 390 572 l 807 0 z "},"Λ":{"ha":833,"x_min":0,"x_max":833,"o":"m 77 0 l 0 0 l 404 996 l 437 996 l 833 0 l 755 0 l 460 760 q 419 876 444 800 q 379 758 399 808 l 77 0 z "},"Μ":{"ha":1198,"x_min":140,"x_max":1059,"o":"m 576 0 l 207 916 l 201 916 q 207 743 207 831 l 207 0 l 140 0 l 140 991 l 248 991 l 599 119 l 603 119 l 954 991 l 1059 991 l 1059 0 l 989 0 l 989 751 q 997 914 989 830 l 991 914 l 621 0 l 576 0 z "},"Ν":{"ha":1002,"x_min":140,"x_max":861,"o":"m 861 0 l 791 0 l 204 880 l 199 880 q 207 643 207 723 l 207 0 l 140 0 l 140 991 l 210 991 l 796 113 l 800 113 q 794 345 794 235 l 794 991 l 861 991 l 861 0 z "},"Ξ":{"ha":737,"x_min":28,"x_max":710,"o":"m 111 553 l 627 553 l 627 489 l 111 489 l 111 553 m 56 991 l 682 991 l 682 928 l 56 928 l 56 991 m 710 64 l 710 0 l 28 0 l 28 64 l 710 64 z "},"Ο":{"ha":1061,"x_min":87,"x_max":974,"o":"m 974 497 q 856 124 974 261 q 530 -14 738 -14 q 205 124 323 -14 q 87 498 87 261 q 207 871 87 735 q 532 1007 326 1007 q 857 870 739 1007 q 974 497 974 734 m 163 497 q 258 168 163 284 q 530 52 353 52 q 804 167 709 52 q 899 497 899 282 q 804 826 899 711 q 532 940 709 940 q 259 825 355 940 q 163 497 163 709 z "},"Π":{"ha":991,"x_min":140,"x_max":851,"o":"m 851 0 l 782 0 l 782 926 l 210 926 l 210 0 l 140 0 l 140 991 l 851 991 l 851 0 z "},"Ρ":{"ha":812,"x_min":140,"x_max":737,"o":"m 737 707 q 640 486 737 563 q 363 410 542 410 l 210 410 l 210 0 l 140 0 l 140 991 l 383 991 q 737 707 737 991 m 210 469 l 346 469 q 588 525 513 469 q 663 704 663 580 q 592 874 663 819 q 374 929 522 929 l 210 929 l 210 469 z "},"Σ":{"ha":765,"x_min":41,"x_max":745,"o":"m 41 0 l 41 57 l 403 515 l 50 936 l 50 991 l 704 991 l 704 928 l 265 928 l 142 929 l 490 519 l 131 64 l 745 64 l 745 0 l 41 0 z "},"Τ":{"ha":728,"x_min":7,"x_max":721,"o":"m 399 0 l 329 0 l 329 926 l 7 926 l 7 991 l 721 991 l 721 926 l 399 926 l 399 0 z "},"Υ":{"ha":733,"x_min":0,"x_max":733,"o":"m 368 449 l 659 991 l 733 991 l 403 383 l 403 0 l 332 0 l 332 378 l 0 991 l 79 991 l 368 449 z "},"Φ":{"ha":1059,"x_min":75,"x_max":983,"o":"m 494 1006 l 564 1006 l 564 884 l 593 884 q 881 788 779 884 q 983 522 983 692 q 936 318 983 404 q 797 185 889 232 q 571 139 704 139 l 564 139 l 564 -14 l 494 -14 l 494 139 l 482 139 q 260 185 351 139 q 122 315 169 231 q 75 514 75 398 q 123 705 75 620 q 259 837 170 790 q 469 884 348 884 l 494 884 l 494 1006 m 564 196 l 574 196 q 821 280 734 196 q 908 519 908 365 q 827 747 908 668 q 593 827 745 827 l 564 827 l 564 196 m 494 827 l 467 827 q 234 744 318 827 q 150 518 150 661 q 237 280 150 364 q 484 196 324 196 l 494 196 l 494 827 z "},"Χ":{"ha":747,"x_min":0,"x_max":747,"o":"m 747 0 l 668 0 l 375 463 l 77 0 l 0 0 l 334 517 l 31 991 l 109 991 l 376 567 l 648 991 l 722 991 l 415 518 l 747 0 z "},"Ψ":{"ha":1061,"x_min":83,"x_max":964,"o":"m 558 0 l 489 0 l 489 307 l 471 307 q 182 396 281 307 q 83 664 83 484 l 83 991 l 153 991 l 153 667 q 232 441 153 513 q 473 368 311 368 l 489 368 l 489 991 l 558 991 l 558 368 l 574 368 q 815 441 736 368 q 895 667 895 513 l 895 991 l 964 991 l 964 664 q 865 396 964 484 q 576 307 766 307 l 558 307 l 558 0 z "},"Ω":{"ha":1076,"x_min":56,"x_max":1021,"o":"m 538 945 q 267 842 368 945 q 167 562 167 739 q 228 293 167 409 q 440 49 290 176 l 440 0 l 56 0 l 56 64 l 332 64 q 192 216 241 144 q 117 373 143 288 q 92 557 92 458 q 146 795 92 692 q 301 952 200 897 q 538 1007 403 1007 q 867 889 749 1007 q 985 558 985 771 q 930 298 985 416 q 747 64 876 179 l 1021 64 l 1021 0 l 637 0 l 637 49 q 846 286 783 168 q 909 561 909 405 q 810 842 909 739 q 538 945 711 945 z "},"Ϋ":{"ha":733,"x_min":0,"x_max":733,"o":"m 368 449 l 659 991 l 733 991 l 403 383 l 403 0 l 332 0 l 332 378 l 0 991 l 79 991 l 368 449 m 195 1171 q 206 1216 195 1202 q 238 1230 216 1230 q 281 1171 281 1230 q 238 1113 281 1113 q 195 1171 195 1113 m 454 1171 q 464 1216 454 1202 q 496 1230 475 1230 q 540 1171 540 1230 q 496 1113 540 1113 q 454 1171 454 1113 z "},"ά":{"ha":819,"x_min":81,"x_max":800,"o":"m 392 46 q 572 120 514 46 q 629 359 629 193 l 629 383 q 571 617 629 544 q 390 690 513 690 q 213 607 275 690 q 151 367 151 523 q 392 46 151 46 m 392 -14 q 160 83 239 -14 q 81 366 81 180 q 162 652 81 552 q 397 751 244 751 q 544 713 484 751 q 640 593 604 675 l 644 593 q 657 674 647 628 q 673 737 667 720 l 724 737 q 696 472 696 646 l 696 136 q 757 40 696 40 q 800 47 782 40 l 800 -1 q 745 -14 781 -14 q 633 114 646 -14 l 628 114 q 528 17 585 47 q 392 -14 470 -14 m 385 852 q 423 977 404 903 q 452 1120 442 1051 l 532 1120 l 532 1108 q 490 979 520 1056 q 424 842 459 901 l 385 842 l 385 852 z "},"έ":{"ha":629,"x_min":64,"x_max":578,"o":"m 456 419 l 456 361 l 361 361 q 191 318 246 361 q 135 200 135 276 q 194 88 135 129 q 359 47 253 47 q 454 57 411 47 q 572 102 498 66 l 572 39 q 354 -14 481 -14 q 140 41 217 -14 q 64 195 64 96 q 232 387 64 347 l 232 393 q 86 555 86 436 q 156 699 86 646 q 347 751 226 751 q 466 741 412 751 q 578 705 519 730 l 553 648 q 347 692 452 692 q 204 656 251 692 q 157 554 157 620 q 378 419 157 419 l 456 419 m 306 852 q 345 977 326 903 q 373 1120 363 1051 l 454 1120 l 454 1108 q 411 979 441 1056 q 345 842 380 901 l 306 842 l 306 852 z "},"ή":{"ha":819,"x_min":123,"x_max":704,"o":"m 637 -334 l 637 478 q 588 640 637 589 q 436 690 539 690 q 249 623 308 690 q 191 407 191 555 l 191 0 l 123 0 l 123 737 l 180 737 l 193 636 l 197 636 q 297 723 234 695 q 436 751 360 751 q 638 684 572 751 q 704 482 704 617 l 704 -334 l 637 -334 m 380 852 q 419 977 400 903 q 448 1120 438 1051 l 528 1120 l 528 1108 q 486 979 516 1056 q 420 842 455 901 l 380 842 l 380 852 z "},"ί":{"ha":427,"x_min":113,"x_max":401,"o":"m 179 737 l 179 212 q 211 84 179 121 q 314 46 242 46 q 401 57 358 46 l 401 0 q 360 -9 388 -5 q 307 -14 332 -14 q 158 41 204 -14 q 113 205 113 95 l 113 737 l 179 737 m 116 852 q 155 977 136 903 q 183 1120 174 1051 l 264 1120 l 264 1108 q 221 979 252 1056 q 155 842 191 901 l 116 842 l 116 852 z "},"ΰ":{"ha":827,"x_min":113,"x_max":736,"o":"m 408 -14 q 186 71 260 -14 q 113 334 113 156 l 113 737 l 179 737 l 179 326 q 235 118 179 190 q 414 46 291 46 q 605 136 542 46 q 668 410 668 225 q 659 570 668 496 q 628 737 650 645 l 694 737 q 726 580 715 659 q 736 404 736 502 q 653 87 736 189 q 408 -14 571 -14 m 368 953 q 446 1164 418 1064 l 525 1164 l 525 1152 q 476 1053 511 1116 q 407 942 441 990 l 368 942 l 368 953 m 220 942 q 264 1000 220 1000 q 307 942 307 1000 q 264 884 307 884 q 220 942 220 884 m 516 942 q 559 1000 516 1000 q 602 942 602 1000 q 559 884 602 884 q 516 942 516 884 z "},"α":{"ha":819,"x_min":81,"x_max":800,"o":"m 392 46 q 572 120 514 46 q 629 359 629 193 l 629 383 q 571 617 629 544 q 390 690 513 690 q 213 607 275 690 q 151 367 151 523 q 392 46 151 46 m 392 -14 q 160 83 239 -14 q 81 366 81 180 q 162 652 81 552 q 397 751 244 751 q 544 713 484 751 q 640 593 604 675 l 644 593 q 657 674 647 628 q 673 737 667 720 l 724 737 q 696 472 696 646 l 696 136 q 757 40 696 40 q 800 47 782 40 l 800 -1 q 745 -14 781 -14 q 633 114 646 -14 l 628 114 q 528 17 585 47 q 392 -14 470 -14 z "},"β":{"ha":844,"x_min":123,"x_max":775,"o":"m 440 1063 q 656 994 578 1063 q 734 802 734 924 q 685 644 734 707 q 541 564 636 581 l 541 559 q 718 475 660 543 q 775 281 775 408 q 686 68 775 144 q 443 -8 596 -8 q 191 60 319 -8 l 191 -334 l 123 -334 l 123 742 q 205 978 123 894 q 440 1063 288 1063 m 439 1003 q 253 937 315 1003 q 191 745 191 871 l 191 115 q 322 60 264 76 q 441 45 380 45 q 640 106 568 45 q 711 279 711 168 q 446 526 711 526 l 366 526 l 366 586 l 437 586 q 606 641 549 586 q 664 803 664 696 q 605 950 664 897 q 439 1003 546 1003 z "},"γ":{"ha":667,"x_min":7,"x_max":660,"o":"m 311 -334 l 244 -334 q 264 -172 244 -271 q 314 8 285 -73 l 7 737 l 77 737 l 258 300 l 343 87 l 347 87 l 406 249 l 590 737 l 660 737 l 386 32 q 335 -151 356 -47 q 311 -334 315 -254 z "},"δ":{"ha":807,"x_min":79,"x_max":726,"o":"m 389 637 q 239 752 281 698 q 197 875 197 807 q 261 1010 197 958 q 425 1063 324 1063 q 552 1049 491 1063 q 697 994 614 1035 l 667 936 q 537 989 591 975 q 427 1003 483 1003 q 310 969 353 1003 q 267 878 267 935 q 302 782 267 821 q 464 669 338 743 q 627 557 576 605 q 702 453 678 509 q 726 319 726 397 q 641 75 726 164 q 403 -14 555 -14 q 168 71 256 -14 q 79 294 79 155 q 154 511 79 427 q 389 637 228 595 m 656 321 q 608 478 656 412 q 447 602 560 544 q 296 550 347 577 q 214 488 245 524 q 166 405 183 452 q 150 294 150 357 q 219 114 150 182 q 404 46 288 46 q 590 117 524 46 q 656 321 656 188 z "},"ε":{"ha":629,"x_min":64,"x_max":578,"o":"m 456 419 l 456 361 l 361 361 q 191 318 246 361 q 135 200 135 276 q 194 88 135 129 q 359 47 253 47 q 454 57 411 47 q 572 102 498 66 l 572 39 q 354 -14 481 -14 q 140 41 217 -14 q 64 195 64 96 q 232 387 64 347 l 232 393 q 86 555 86 436 q 156 699 86 646 q 347 751 226 751 q 466 741 412 751 q 578 705 519 730 l 553 648 q 347 692 452 692 q 204 656 251 692 q 157 554 157 620 q 378 419 157 419 l 456 419 z "},"ζ":{"ha":648,"x_min":81,"x_max":610,"o":"m 123 997 l 123 1055 l 610 1055 l 610 1004 q 337 728 436 844 q 195 515 239 612 q 151 314 151 419 q 171 194 151 237 q 235 124 191 151 q 370 78 280 98 q 516 36 473 56 q 579 -13 559 16 q 599 -87 599 -42 q 582 -171 599 -128 q 522 -272 565 -214 l 457 -272 q 534 -97 534 -167 q 517 -45 534 -64 q 459 -12 499 -26 q 347 17 419 3 q 143 113 205 43 q 81 311 81 184 q 98 441 81 379 q 146 563 115 504 q 223 682 178 623 q 327 805 268 741 q 526 1002 387 869 q 279 997 455 997 l 123 997 z "},"η":{"ha":819,"x_min":123,"x_max":704,"o":"m 637 -334 l 637 478 q 588 640 637 589 q 436 690 539 690 q 249 623 308 690 q 191 407 191 555 l 191 0 l 123 0 l 123 737 l 180 737 l 193 636 l 197 636 q 297 723 234 695 q 436 751 360 751 q 638 684 572 751 q 704 482 704 617 l 704 -334 l 637 -334 z "},"θ":{"ha":791,"x_min":81,"x_max":711,"o":"m 711 530 q 631 123 711 260 q 393 -14 551 -14 q 81 529 81 -14 q 162 933 81 795 q 397 1071 243 1071 q 711 530 711 1071 m 395 46 q 644 515 634 46 l 147 515 q 395 46 155 46 m 393 1011 q 215 900 274 1011 q 147 574 155 788 l 643 574 q 573 904 635 796 q 393 1011 511 1011 z "},"ι":{"ha":427,"x_min":113,"x_max":401,"o":"m 179 737 l 179 212 q 211 84 179 121 q 314 46 242 46 q 401 57 358 46 l 401 0 q 360 -9 388 -5 q 307 -14 332 -14 q 158 41 204 -14 q 113 205 113 95 l 113 737 l 179 737 z "},"κ":{"ha":672,"x_min":123,"x_max":672,"o":"m 189 323 l 566 737 l 647 737 l 357 422 l 672 0 l 591 0 l 311 372 l 191 262 l 191 0 l 123 0 l 123 737 l 191 737 l 191 526 l 186 323 l 189 323 z "},"λ":{"ha":699,"x_min":-8,"x_max":699,"o":"m -8 0 l 315 741 l 278 852 q 237 953 254 925 q 198 996 220 981 q 143 1010 176 1010 q 74 1002 113 1010 l 74 1053 q 151 1064 117 1064 q 227 1048 197 1064 q 280 997 257 1033 q 335 871 303 960 l 607 98 q 629 55 617 69 q 661 40 642 40 q 699 47 682 40 l 699 -3 q 646 -14 678 -14 q 588 8 610 -14 q 547 79 565 30 l 431 411 q 347 675 366 601 l 345 675 q 293 538 323 610 q 62 0 262 465 l -8 0 z "},"μ":{"ha":828,"x_min":123,"x_max":704,"o":"m 191 737 l 191 260 q 237 98 191 149 q 382 47 284 47 q 575 114 513 47 q 637 330 637 180 l 637 737 l 704 737 l 704 0 l 647 0 l 635 102 l 631 102 q 529 18 597 50 q 382 -14 461 -14 q 268 5 315 -14 q 187 62 222 24 q 191 -53 191 0 l 191 -334 l 123 -334 l 123 737 l 191 737 z "},"ν":{"ha":713,"x_min":-1,"x_max":656,"o":"m -1 737 l 68 737 q 283 155 264 208 q 317 60 302 102 l 321 60 q 591 737 591 310 l 656 737 q 581 325 656 498 q 345 0 507 152 l 275 0 l -1 737 z "},"ξ":{"ha":637,"x_min":81,"x_max":599,"o":"m 549 529 l 447 529 q 231 464 311 529 q 151 290 151 398 q 173 187 151 227 q 240 121 195 146 q 396 72 285 96 q 556 12 514 46 q 599 -89 599 -23 q 522 -272 599 -170 l 457 -272 q 534 -98 534 -165 q 516 -45 534 -64 q 459 -11 498 -25 q 347 17 419 3 q 144 110 207 43 q 81 286 81 177 q 135 454 81 384 q 288 553 189 524 l 288 559 q 166 632 205 584 q 127 755 127 680 q 185 909 127 844 q 351 1003 243 974 q 183 997 304 997 l 123 997 l 123 1055 l 578 1055 l 578 1002 l 567 1002 q 373 970 462 1002 q 237 883 284 938 q 189 758 189 827 q 447 586 189 586 l 549 586 l 549 529 z "},"ο":{"ha":814,"x_min":81,"x_max":733,"o":"m 733 370 q 646 88 733 189 q 404 -14 558 -14 q 233 33 307 -14 q 120 168 159 80 q 81 370 81 255 q 168 651 81 550 q 408 751 256 751 q 647 649 560 751 q 733 370 733 547 m 151 370 q 218 133 151 218 q 407 47 285 47 q 596 133 529 47 q 663 370 663 218 q 595 606 663 522 q 406 690 528 690 q 217 607 283 690 q 151 370 151 523 z "},"π":{"ha":850,"x_min":17,"x_max":811,"o":"m 736 46 q 782 54 764 46 l 782 -3 q 726 -14 757 -14 q 630 26 665 -14 q 595 142 595 65 l 595 679 l 233 679 l 233 0 l 167 0 l 167 679 l 17 679 l 17 718 l 129 737 l 811 737 l 811 679 l 661 679 l 661 151 q 736 46 661 46 z "},"ρ":{"ha":811,"x_min":119,"x_max":730,"o":"m 730 371 q 646 84 730 182 q 397 -14 562 -14 q 284 4 340 -14 q 183 58 227 22 l 182 58 l 184 -5 l 186 -132 l 186 -334 l 119 -334 l 119 385 q 197 659 119 566 q 425 751 274 751 q 653 655 575 751 q 730 371 730 559 m 419 690 q 242 615 298 690 q 186 382 186 541 l 186 129 q 282 67 232 87 q 399 46 333 46 q 595 126 531 46 q 660 371 660 205 q 602 609 660 528 q 419 690 544 690 z "},"ς":{"ha":660,"x_min":81,"x_max":611,"o":"m 151 349 q 175 204 151 253 q 252 123 199 155 q 400 71 306 90 q 554 12 509 47 q 599 -87 599 -23 q 590 -145 599 -117 q 569 -199 582 -174 q 522 -272 557 -224 l 457 -272 q 514 -176 494 -222 q 534 -96 534 -130 q 494 -28 534 -52 q 354 16 454 -4 q 190 78 248 37 q 107 187 133 119 q 81 345 81 254 q 172 645 81 538 q 429 751 262 751 q 611 718 523 751 l 593 659 q 500 682 546 674 q 427 690 455 690 q 151 349 151 690 z "},"σ":{"ha":815,"x_min":81,"x_max":782,"o":"m 728 351 q 641 84 728 182 q 401 -14 555 -14 q 166 83 251 -14 q 81 349 81 180 q 182 638 81 540 q 478 737 283 737 l 782 737 l 782 679 l 610 679 q 728 351 728 543 m 151 349 q 217 127 151 207 q 404 47 283 47 q 591 126 524 47 q 657 342 657 205 q 534 679 657 543 l 481 679 q 233 598 314 679 q 151 349 151 517 z "},"τ":{"ha":619,"x_min":14,"x_max":575,"o":"m 575 737 l 575 679 l 283 679 l 283 220 q 320 88 283 131 q 439 45 357 45 q 538 58 490 45 l 538 1 q 424 -14 499 -14 q 268 44 320 -14 q 215 211 215 102 l 215 679 l 14 679 l 14 718 l 123 737 l 575 737 z "},"υ":{"ha":827,"x_min":113,"x_max":736,"o":"m 408 -14 q 186 71 260 -14 q 113 334 113 156 l 113 737 l 179 737 l 179 326 q 235 118 179 190 q 414 46 291 46 q 605 136 542 46 q 668 410 668 225 q 659 570 668 496 q 628 737 650 645 l 694 737 q 726 580 715 659 q 736 404 736 502 q 653 87 736 189 q 408 -14 571 -14 z "},"φ":{"ha":942,"x_min":81,"x_max":861,"o":"m 432 -334 l 432 -14 q 170 96 258 -2 q 81 375 81 194 q 216 739 81 572 l 271 701 q 176 533 201 608 q 151 375 151 458 q 221 142 151 225 q 432 46 291 58 l 432 509 q 624 751 432 751 q 799 656 736 751 q 861 395 861 561 q 817 183 861 273 q 690 44 772 94 q 498 -14 608 -6 l 498 -334 l 432 -334 m 790 393 q 743 611 790 532 q 619 690 696 690 q 529 643 559 690 q 498 510 498 596 l 498 46 q 652 97 585 54 q 754 216 719 141 q 790 393 790 292 z "},"χ":{"ha":714,"x_min":-14,"x_max":701,"o":"m 97 747 q 143 738 124 747 q 177 708 162 728 q 205 656 192 688 q 353 286 219 623 l 586 737 l 661 737 l 386 218 l 517 -102 q 570 -222 553 -193 q 605 -265 587 -252 q 647 -278 623 -278 q 701 -272 675 -278 l 701 -323 q 636 -334 676 -334 q 569 -317 597 -334 q 519 -265 542 -300 q 458 -134 496 -229 l 343 157 l 62 -334 l -14 -334 l 310 227 l 155 608 q 119 673 137 654 q 78 693 102 693 q 33 688 58 693 l 33 736 q 97 747 64 747 z "},"ψ":{"ha":1002,"x_min":113,"x_max":911,"o":"m 534 1054 l 534 50 q 765 150 686 62 q 843 397 843 239 q 835 558 843 483 q 803 737 827 633 l 868 737 q 911 404 911 584 q 814 107 911 216 q 534 -12 718 -1 l 534 -334 l 468 -334 l 468 -12 q 203 93 294 -4 q 113 372 113 191 l 113 737 l 179 737 l 179 371 q 254 140 179 221 q 468 50 328 59 l 468 1054 l 534 1054 z "},"ω":{"ha":1019,"x_min":81,"x_max":939,"o":"m 701 -14 q 581 21 625 -14 q 514 121 538 56 l 507 121 q 436 19 481 51 q 321 -14 392 -14 q 144 81 207 -14 q 81 354 81 176 q 100 554 81 463 q 164 737 120 645 l 233 737 q 170 543 189 633 q 151 351 151 453 q 197 125 151 203 q 326 47 242 47 q 437 98 399 47 q 476 244 476 149 l 476 464 l 543 464 l 543 244 q 583 100 543 152 q 697 47 623 47 q 825 126 781 47 q 868 351 868 205 q 849 544 868 455 q 786 737 831 632 l 856 737 q 919 556 899 648 q 939 354 939 465 q 877 83 939 179 q 701 -14 815 -14 z "},"ϊ":{"ha":427,"x_min":2,"x_max":401,"o":"m 179 737 l 179 212 q 211 84 179 121 q 314 46 242 46 q 401 57 358 46 l 401 0 q 360 -9 388 -5 q 307 -14 332 -14 q 158 41 204 -14 q 113 205 113 95 l 113 737 l 179 737 m 2 942 q 13 987 2 973 q 45 1000 23 1000 q 88 942 88 1000 q 45 884 88 884 q 2 942 2 884 m 260 942 q 271 987 260 973 q 303 1000 281 1000 q 347 942 347 1000 q 303 884 347 884 q 260 942 260 884 z "},"ϋ":{"ha":827,"x_min":113,"x_max":736,"o":"m 408 -14 q 186 71 260 -14 q 113 334 113 156 l 113 737 l 179 737 l 179 326 q 235 118 179 190 q 414 46 291 46 q 605 136 542 46 q 668 410 668 225 q 659 570 668 496 q 628 737 650 645 l 694 737 q 726 580 715 659 q 736 404 736 502 q 653 87 736 189 q 408 -14 571 -14 m 235 942 q 245 987 235 973 q 277 1000 256 1000 q 321 942 321 1000 q 277 884 321 884 q 235 942 235 884 m 493 942 q 504 987 493 973 q 536 1000 514 1000 q 579 942 579 1000 q 536 884 579 884 q 493 942 493 884 z "},"ό":{"ha":814,"x_min":81,"x_max":733,"o":"m 733 370 q 646 88 733 189 q 404 -14 558 -14 q 233 33 307 -14 q 120 168 159 80 q 81 370 81 255 q 168 651 81 550 q 408 751 256 751 q 647 649 560 751 q 733 370 733 547 m 151 370 q 218 133 151 218 q 407 47 285 47 q 596 133 529 47 q 663 370 663 218 q 595 606 663 522 q 406 690 528 690 q 217 607 283 690 q 151 370 151 523 m 375 852 q 414 977 395 903 q 442 1120 433 1051 l 523 1120 l 523 1108 q 480 979 511 1056 q 414 842 450 901 l 375 842 l 375 852 z "},"ύ":{"ha":827,"x_min":113,"x_max":736,"o":"m 408 -14 q 186 71 260 -14 q 113 334 113 156 l 113 737 l 179 737 l 179 326 q 235 118 179 190 q 414 46 291 46 q 605 136 542 46 q 668 410 668 225 q 659 570 668 496 q 628 737 650 645 l 694 737 q 726 580 715 659 q 736 404 736 502 q 653 87 736 189 q 408 -14 571 -14 m 375 852 q 414 977 395 903 q 442 1120 433 1051 l 523 1120 l 523 1108 q 480 979 511 1056 q 414 842 450 901 l 375 842 l 375 852 z "},"ώ":{"ha":1019,"x_min":81,"x_max":939,"o":"m 701 -14 q 581 21 625 -14 q 514 121 538 56 l 507 121 q 436 19 481 51 q 321 -14 392 -14 q 144 81 207 -14 q 81 354 81 176 q 100 554 81 463 q 164 737 120 645 l 233 737 q 170 543 189 633 q 151 351 151 453 q 197 125 151 203 q 326 47 242 47 q 437 98 399 47 q 476 244 476 149 l 476 464 l 543 464 l 543 244 q 583 100 543 152 q 697 47 623 47 q 825 126 781 47 q 868 351 868 205 q 849 544 868 455 q 786 737 831 632 l 856 737 q 919 556 899 648 q 939 354 939 465 q 877 83 939 179 q 701 -14 815 -14 m 469 852 q 508 977 489 903 q 536 1120 527 1051 l 617 1120 l 617 1108 q 574 979 605 1056 q 509 842 544 901 l 469 842 l 469 852 z "},"Ё":{"ha":766,"x_min":140,"x_max":682,"o":"m 682 0 l 140 0 l 140 991 l 682 991 l 682 928 l 210 928 l 210 553 l 656 553 l 656 489 l 210 489 l 210 64 l 682 64 l 682 0 m 240 1171 q 251 1216 240 1202 q 283 1230 261 1230 q 326 1171 326 1230 q 283 1113 326 1113 q 240 1171 240 1113 m 498 1171 q 509 1216 498 1202 q 541 1230 519 1230 q 585 1171 585 1230 q 541 1113 585 1113 q 498 1171 498 1113 z "},"Ђ":{"ha":966,"x_min":7,"x_max":854,"o":"m 629 -14 q 533 -1 566 -14 l 533 66 q 629 54 572 54 q 743 103 703 54 q 783 241 783 151 l 783 350 q 736 490 783 449 q 582 532 689 532 l 304 532 l 304 0 l 235 0 l 235 926 l 7 926 l 7 991 l 654 991 l 654 926 l 304 926 l 304 596 l 602 596 q 792 536 730 596 q 854 353 854 477 l 854 244 q 796 53 854 120 q 629 -14 738 -14 z "},"Ѓ":{"ha":697,"x_min":140,"x_max":684,"o":"m 210 0 l 140 0 l 140 991 l 684 991 l 684 928 l 210 928 l 210 0 m 328 1082 q 426 1198 377 1135 q 492 1293 474 1261 l 587 1293 l 587 1282 q 504 1188 563 1246 q 375 1071 446 1130 l 328 1071 l 328 1082 z "},"Є":{"ha":863,"x_min":87,"x_max":819,"o":"m 564 943 q 284 840 390 943 q 164 551 178 736 l 690 551 l 690 488 l 161 488 q 267 163 165 277 q 553 50 369 50 q 782 82 677 50 l 782 21 q 536 -14 684 -14 q 208 121 328 -14 q 87 498 87 256 q 145 765 87 650 q 310 943 202 880 q 559 1006 417 1006 q 819 951 705 1006 l 791 889 q 564 943 683 943 z "},"Ѕ":{"ha":757,"x_min":75,"x_max":688,"o":"m 688 256 q 596 59 688 132 q 354 -14 505 -14 q 75 26 172 -14 l 75 96 q 349 50 182 50 q 542 106 471 50 q 614 253 614 162 q 590 346 614 309 q 513 414 566 383 q 355 479 459 444 q 145 592 203 532 q 87 754 87 653 q 175 936 87 865 q 399 1006 262 1006 q 661 953 538 1006 l 636 893 q 400 945 513 945 q 225 894 290 945 q 160 755 160 843 q 180 665 160 701 q 245 602 200 630 q 401 534 291 574 q 576 457 517 494 q 661 371 634 419 q 688 256 688 323 z "},"Ј":{"ha":343,"x_min":-125,"x_max":210,"o":"m -22 -250 q -125 -232 -85 -250 l -125 -172 q -24 -186 -72 -186 q 140 -7 140 -186 l 140 991 l 210 991 l 210 0 q -22 -250 210 -250 z "},"Љ":{"ha":1271,"x_min":0,"x_max":1194,"o":"m 1194 288 q 1109 74 1194 149 q 868 0 1023 0 l 654 0 l 654 926 l 382 926 q 306 409 334 583 q 252 147 278 235 q 186 22 226 60 q 79 -16 146 -16 q 0 1 37 -16 l 0 64 q 74 49 41 49 q 146 83 120 49 q 196 209 173 118 q 250 490 219 299 q 323 991 281 681 l 724 991 l 724 554 l 856 554 q 1110 490 1025 554 q 1194 288 1194 427 m 724 61 l 852 61 q 1055 116 989 61 q 1120 288 1120 170 q 1056 445 1120 397 q 843 493 992 493 l 724 493 l 724 61 z "},"Њ":{"ha":1315,"x_min":140,"x_max":1239,"o":"m 768 554 l 900 554 q 1154 490 1069 554 q 1239 288 1239 427 q 1154 75 1239 149 q 913 0 1068 0 l 699 0 l 699 490 l 210 490 l 210 0 l 140 0 l 140 991 l 210 991 l 210 554 l 699 554 l 699 991 l 768 991 l 768 554 m 768 61 l 897 61 q 1099 115 1034 61 q 1164 288 1164 169 q 1100 445 1164 397 q 888 493 1036 493 l 768 493 l 768 61 z "},"Ћ":{"ha":970,"x_min":7,"x_max":854,"o":"m 304 596 l 610 596 q 796 538 738 596 q 854 353 854 481 l 854 0 l 783 0 l 783 357 q 743 493 783 455 q 600 532 702 532 l 304 532 l 304 0 l 235 0 l 235 926 l 7 926 l 7 991 l 672 991 l 672 926 l 304 926 l 304 596 z "},"Ќ":{"ha":794,"x_min":140,"x_max":794,"o":"m 794 0 l 700 0 l 210 505 l 210 0 l 140 0 l 140 991 l 210 991 l 210 511 l 686 991 l 778 991 l 298 511 l 794 0 m 375 1082 q 473 1198 425 1135 q 539 1293 522 1261 l 635 1293 l 635 1282 q 552 1188 610 1246 q 422 1071 493 1130 l 375 1071 l 375 1082 z "},"Ў":{"ha":817,"x_min":7,"x_max":817,"o":"m 187 -14 q 57 7 106 -14 l 57 77 q 180 52 115 52 q 264 68 229 52 q 329 122 299 85 q 401 245 359 159 l 7 991 l 89 991 l 392 412 q 435 315 416 366 l 437 315 l 454 357 l 739 991 l 817 991 l 498 294 q 440 171 468 227 q 378 73 412 114 q 299 9 345 33 q 187 -14 254 -14 m 422 1071 q 269 1116 321 1071 q 207 1261 216 1161 l 267 1261 q 313 1156 277 1187 q 424 1125 349 1125 q 535 1157 498 1125 q 579 1261 571 1189 l 639 1261 q 422 1071 625 1071 z "},"Џ":{"ha":991,"x_min":140,"x_max":851,"o":"m 851 0 l 529 0 l 529 -250 l 463 -250 l 463 0 l 140 0 l 140 991 l 210 991 l 210 65 l 782 65 l 782 991 l 851 991 l 851 0 z "},"А":{"ha":833,"x_min":0,"x_max":833,"o":"m 618 350 l 215 350 l 77 0 l 0 0 l 399 996 l 443 996 l 833 0 l 755 0 l 618 350 m 240 412 l 595 412 l 460 770 q 419 886 443 812 q 379 768 401 821 l 240 412 z "},"Б":{"ha":827,"x_min":140,"x_max":750,"o":"m 408 554 q 665 489 579 554 q 750 285 750 425 q 666 74 750 148 q 424 0 581 0 l 140 0 l 140 991 l 697 991 l 697 926 l 210 926 l 210 554 l 408 554 m 210 61 l 412 61 q 610 115 546 61 q 675 285 675 169 q 610 445 675 397 q 399 493 545 493 l 210 493 l 210 61 z "},"В":{"ha":871,"x_min":140,"x_max":793,"o":"m 140 991 l 412 991 q 682 929 596 991 q 768 741 768 867 q 716 597 768 654 q 562 524 663 540 l 562 519 q 737 445 681 502 q 793 285 793 387 q 702 74 793 148 q 444 0 611 0 l 140 0 l 140 991 m 210 550 l 428 550 q 631 596 568 550 q 694 742 694 643 q 623 886 694 841 q 410 930 551 930 l 210 930 l 210 550 m 210 489 l 210 61 l 443 61 q 718 285 718 61 q 428 489 718 489 l 210 489 z "},"Г":{"ha":697,"x_min":140,"x_max":684,"o":"m 210 0 l 140 0 l 140 991 l 684 991 l 684 928 l 210 928 l 210 0 z "},"Д":{"ha":907,"x_min":9,"x_max":865,"o":"m 865 -250 l 799 -250 l 799 0 l 77 0 l 77 -250 l 9 -250 l 9 65 l 81 65 q 257 508 181 239 q 342 991 333 776 l 764 991 l 764 65 l 865 65 l 865 -250 m 693 65 l 693 926 l 401 926 q 316 466 385 713 q 158 65 247 219 l 693 65 z "},"Е":{"ha":766,"x_min":140,"x_max":682,"o":"m 682 0 l 140 0 l 140 991 l 682 991 l 682 928 l 210 928 l 210 553 l 656 553 l 656 489 l 210 489 l 210 64 l 682 64 l 682 0 z "},"Ж":{"ha":1083,"x_min":0,"x_max":1083,"o":"m 424 505 l 22 991 l 109 991 l 507 511 l 507 991 l 576 991 l 576 511 l 975 991 l 1061 991 l 659 510 l 1083 0 l 991 0 l 576 503 l 576 0 l 507 0 l 507 503 l 92 0 l 0 0 l 424 505 z "},"З":{"ha":777,"x_min":56,"x_max":699,"o":"m 679 760 q 473 521 679 566 l 473 517 q 699 275 699 469 q 603 63 699 139 q 332 -14 507 -14 q 56 45 168 -14 l 56 115 q 193 67 120 84 q 332 50 267 50 q 546 109 467 50 q 624 273 624 168 q 548 429 624 376 q 319 482 471 482 l 172 482 l 172 547 l 325 547 q 537 602 469 547 q 606 755 606 656 q 543 891 606 840 q 379 942 480 942 q 241 921 304 942 q 104 847 178 899 l 65 901 q 379 1006 202 1006 q 598 939 518 1006 q 679 760 679 873 z "},"И":{"ha":1002,"x_min":140,"x_max":861,"o":"m 140 991 l 207 991 l 207 343 q 201 111 207 274 l 205 111 l 791 991 l 861 991 l 861 0 l 794 0 l 794 644 q 803 882 794 754 l 798 882 l 210 0 l 140 0 l 140 991 z "},"Й":{"ha":1002,"x_min":140,"x_max":861,"o":"m 140 991 l 207 991 l 207 343 q 201 111 207 274 l 205 111 l 791 991 l 861 991 l 861 0 l 794 0 l 794 644 q 803 882 794 754 l 798 882 l 210 0 l 140 0 l 140 991 m 500 1071 q 346 1116 399 1071 q 284 1261 293 1161 l 344 1261 q 390 1156 354 1187 q 501 1125 426 1125 q 612 1157 576 1125 q 656 1261 648 1189 l 716 1261 q 500 1071 702 1071 z "},"К":{"ha":794,"x_min":140,"x_max":794,"o":"m 794 0 l 700 0 l 210 505 l 210 0 l 140 0 l 140 991 l 210 991 l 210 511 l 686 991 l 778 991 l 298 511 l 794 0 z "},"Л":{"ha":946,"x_min":0,"x_max":806,"o":"m 806 0 l 736 0 l 736 926 l 376 926 q 317 490 349 696 q 265 197 286 284 q 220 67 243 109 q 163 4 197 24 q 79 -16 130 -16 q 0 1 34 -16 l 0 64 q 77 49 41 49 q 169 122 136 49 q 240 438 201 195 q 318 991 279 681 l 806 991 l 806 0 z "},"М":{"ha":1198,"x_min":140,"x_max":1059,"o":"m 576 0 l 207 916 l 201 916 q 207 743 207 831 l 207 0 l 140 0 l 140 991 l 248 991 l 599 119 l 603 119 l 954 991 l 1059 991 l 1059 0 l 989 0 l 989 751 q 997 914 989 830 l 991 914 l 621 0 l 576 0 z "},"Н":{"ha":999,"x_min":140,"x_max":859,"o":"m 859 0 l 789 0 l 789 488 l 210 488 l 210 0 l 140 0 l 140 991 l 210 991 l 210 551 l 789 551 l 789 991 l 859 991 l 859 0 z "},"О":{"ha":1061,"x_min":87,"x_max":974,"o":"m 974 497 q 856 124 974 261 q 530 -14 738 -14 q 205 124 323 -14 q 87 498 87 261 q 207 871 87 735 q 532 1007 326 1007 q 857 870 739 1007 q 974 497 974 734 m 163 497 q 258 168 163 284 q 530 52 353 52 q 804 167 709 52 q 899 497 899 282 q 804 826 899 711 q 532 940 709 940 q 259 825 355 940 q 163 497 163 709 z "},"П":{"ha":991,"x_min":140,"x_max":851,"o":"m 851 0 l 782 0 l 782 926 l 210 926 l 210 0 l 140 0 l 140 991 l 851 991 l 851 0 z "},"Р":{"ha":812,"x_min":140,"x_max":737,"o":"m 737 707 q 640 486 737 563 q 363 410 542 410 l 210 410 l 210 0 l 140 0 l 140 991 l 383 991 q 737 707 737 991 m 210 469 l 346 469 q 588 525 513 469 q 663 704 663 580 q 592 874 663 819 q 374 929 522 929 l 210 929 l 210 469 z "},"С":{"ha":863,"x_min":87,"x_max":819,"o":"m 564 943 q 270 824 377 943 q 163 497 163 705 q 264 168 163 285 q 553 50 365 50 q 782 82 677 50 l 782 21 q 536 -14 684 -14 q 208 121 328 -14 q 87 498 87 256 q 145 765 87 650 q 310 943 202 880 q 559 1006 417 1006 q 819 951 705 1006 l 791 889 q 564 943 683 943 z "},"Т":{"ha":728,"x_min":7,"x_max":721,"o":"m 399 0 l 329 0 l 329 926 l 7 926 l 7 991 l 721 991 l 721 926 l 399 926 l 399 0 z "},"У":{"ha":817,"x_min":7,"x_max":817,"o":"m 187 -14 q 57 7 106 -14 l 57 77 q 180 52 115 52 q 264 68 229 52 q 329 122 299 85 q 401 245 359 159 l 7 991 l 89 991 l 392 412 q 435 315 416 366 l 437 315 l 454 357 l 739 991 l 817 991 l 498 294 q 440 171 468 227 q 378 73 412 114 q 299 9 345 33 q 187 -14 254 -14 z "},"Ф":{"ha":1059,"x_min":75,"x_max":983,"o":"m 494 1006 l 564 1006 l 564 884 l 593 884 q 881 788 779 884 q 983 522 983 692 q 936 318 983 404 q 797 185 889 232 q 571 139 704 139 l 564 139 l 564 -14 l 494 -14 l 494 139 l 482 139 q 260 185 351 139 q 122 315 169 231 q 75 514 75 398 q 123 705 75 620 q 259 837 170 790 q 469 884 348 884 l 494 884 l 494 1006 m 564 196 l 574 196 q 821 280 734 196 q 908 519 908 365 q 827 747 908 668 q 593 827 745 827 l 564 827 l 564 196 m 494 827 l 467 827 q 234 744 318 827 q 150 518 150 661 q 237 280 150 364 q 484 196 324 196 l 494 196 l 494 827 z "},"Х":{"ha":747,"x_min":0,"x_max":747,"o":"m 747 0 l 668 0 l 375 463 l 77 0 l 0 0 l 334 517 l 31 991 l 109 991 l 376 567 l 648 991 l 722 991 l 415 518 l 747 0 z "},"Ц":{"ha":999,"x_min":140,"x_max":957,"o":"m 851 65 l 957 65 l 957 -250 l 890 -250 l 890 0 l 140 0 l 140 991 l 210 991 l 210 65 l 782 65 l 782 991 l 851 991 l 851 65 z "},"Ч":{"ha":930,"x_min":123,"x_max":790,"o":"m 790 0 l 721 0 l 721 431 q 408 361 544 361 q 197 422 270 361 q 123 610 123 484 l 123 991 l 193 991 l 193 607 q 414 427 193 427 q 544 438 479 427 q 721 490 609 450 l 721 991 l 790 991 l 790 0 z "},"Ш":{"ha":1397,"x_min":140,"x_max":1257,"o":"m 1257 0 l 140 0 l 140 991 l 210 991 l 210 65 l 664 65 l 664 991 l 733 991 l 733 65 l 1187 65 l 1187 991 l 1257 991 l 1257 0 z "},"Щ":{"ha":1404,"x_min":140,"x_max":1362,"o":"m 140 0 l 140 991 l 210 991 l 210 65 l 664 65 l 664 991 l 733 991 l 733 65 l 1187 65 l 1187 991 l 1257 991 l 1257 65 l 1362 65 l 1362 -250 l 1296 -250 l 1296 0 l 140 0 z "},"Ъ":{"ha":914,"x_min":7,"x_max":838,"o":"m 235 0 l 235 926 l 7 926 l 7 991 l 304 991 l 304 554 l 496 554 q 752 489 667 554 q 838 285 838 425 q 753 74 838 148 q 511 0 669 0 l 235 0 m 304 61 l 500 61 q 698 115 633 61 q 762 285 762 169 q 697 445 762 397 q 486 493 632 493 l 304 493 l 304 61 z "},"Ы":{"ha":1132,"x_min":140,"x_max":991,"o":"m 991 0 l 922 0 l 922 991 l 991 991 l 991 0 m 210 554 l 401 554 q 657 489 572 554 q 743 285 743 425 q 659 74 743 148 q 416 0 575 0 l 140 0 l 140 991 l 210 991 l 210 554 m 210 61 l 406 61 q 606 117 544 61 q 668 285 668 174 q 604 444 668 395 q 392 493 539 493 l 210 493 l 210 61 z "},"Ь":{"ha":827,"x_min":140,"x_max":751,"o":"m 210 554 l 410 554 q 666 489 581 554 q 751 285 751 425 q 667 74 751 147 q 425 0 583 0 l 140 0 l 140 991 l 210 991 l 210 554 m 210 61 l 414 61 q 612 115 547 61 q 676 285 676 169 q 611 445 676 397 q 400 493 546 493 l 210 493 l 210 61 z "},"Э":{"ha":859,"x_min":47,"x_max":771,"o":"m 294 943 q 190 931 240 943 q 79 890 139 920 l 52 953 q 301 1006 163 1006 q 646 876 521 1006 q 771 519 771 745 q 715 237 771 357 q 552 51 659 116 q 307 -14 446 -14 q 47 21 146 -14 l 47 85 q 294 50 161 50 q 583 165 477 50 q 697 488 688 279 l 172 488 l 172 551 l 696 551 q 577 842 681 740 q 294 943 474 943 z "},"Ю":{"ha":1428,"x_min":140,"x_max":1340,"o":"m 1340 497 q 1227 124 1340 261 q 916 -14 1115 -14 q 604 122 717 -14 q 490 488 492 257 l 210 488 l 210 0 l 140 0 l 140 991 l 210 991 l 210 551 l 492 551 q 617 885 505 763 q 917 1007 730 1007 q 1228 870 1116 1007 q 1340 497 1340 734 m 566 497 q 656 168 566 285 q 916 52 746 52 q 1175 167 1085 52 q 1265 497 1265 283 q 1176 825 1265 711 q 917 940 1086 940 q 657 825 749 940 q 566 497 566 709 z "},"Я":{"ha":815,"x_min":21,"x_max":675,"o":"m 370 432 l 104 0 l 21 0 l 300 446 q 139 534 196 466 q 82 707 82 603 q 439 991 82 991 l 675 991 l 675 0 l 606 0 l 606 432 l 370 432 m 606 929 l 441 929 q 224 877 292 929 q 157 710 157 825 q 223 547 157 602 q 418 492 290 492 l 606 492 l 606 929 z "},"а":{"ha":736,"x_min":66,"x_max":621,"o":"m 571 0 l 554 117 l 549 117 q 434 16 493 45 q 296 -14 376 -14 q 127 42 187 -14 q 66 196 66 98 q 156 363 66 304 q 416 427 246 423 l 557 431 l 557 479 q 514 638 557 585 q 376 692 471 692 q 164 635 274 692 l 139 693 q 379 750 260 750 q 561 687 500 750 q 621 490 621 624 l 621 0 l 571 0 m 300 47 q 486 115 418 47 q 554 302 554 182 l 554 375 l 425 370 q 204 321 270 362 q 138 193 138 280 q 180 86 138 124 q 300 47 222 47 z "},"б":{"ha":798,"x_min":83,"x_max":718,"o":"m 83 443 q 354 990 83 923 q 536 1030 449 1014 q 690 1060 623 1047 l 703 1002 l 621 986 q 355 928 420 948 q 212 801 264 901 q 153 526 160 701 l 157 526 q 298 649 229 612 q 439 686 366 686 q 646 599 574 686 q 718 350 718 511 q 635 82 718 178 q 403 -14 553 -14 q 167 105 251 -14 q 83 443 83 224 m 408 47 q 586 125 524 47 q 647 347 647 202 q 592 555 647 485 q 432 625 538 625 q 280 576 353 625 q 151 440 206 527 q 181 227 151 319 q 269 92 212 136 q 408 47 327 47 z "},"в":{"ha":786,"x_min":123,"x_max":710,"o":"m 689 559 q 654 450 689 490 q 542 395 620 410 l 542 390 q 670 339 631 380 q 710 221 710 298 q 640 57 710 115 q 435 0 570 0 l 123 0 l 123 737 l 436 737 q 626 692 562 737 q 689 559 689 646 m 639 222 q 431 358 639 358 l 191 358 l 191 64 l 440 64 q 639 222 639 64 m 618 554 q 572 646 618 618 q 433 673 526 673 l 191 673 l 191 421 l 425 421 q 573 453 528 421 q 618 554 618 485 z "},"г":{"ha":585,"x_min":123,"x_max":557,"o":"m 557 679 l 191 679 l 191 0 l 123 0 l 123 737 l 557 737 l 557 679 z "},"д":{"ha":758,"x_min":28,"x_max":725,"o":"m 725 -250 l 659 -250 l 659 0 l 94 0 l 94 -250 l 28 -250 l 28 64 l 77 64 q 219 364 169 193 q 272 737 269 535 l 627 737 l 627 64 l 725 64 l 725 -250 m 559 64 l 559 675 l 330 675 q 153 64 314 308 l 559 64 z "},"е":{"ha":762,"x_min":81,"x_max":682,"o":"m 421 -14 q 171 85 260 -14 q 81 363 81 184 q 168 645 81 539 q 401 751 254 751 q 607 661 532 751 q 682 414 682 570 l 682 359 l 151 359 q 222 127 153 208 q 421 47 292 47 q 532 56 484 47 q 653 94 580 65 l 653 33 q 538 -4 591 6 q 421 -14 485 -14 m 401 692 q 231 622 295 692 q 155 419 166 551 l 611 419 q 555 620 611 547 q 401 692 500 692 z "},"ж":{"ha":924,"x_min":4,"x_max":920,"o":"m 428 737 l 496 737 l 496 379 l 812 737 l 895 737 l 575 379 l 920 0 l 833 0 l 496 374 l 496 0 l 428 0 l 428 374 l 90 0 l 4 0 l 347 376 l 29 737 l 111 737 l 428 379 l 428 737 z "},"з":{"ha":628,"x_min":46,"x_max":558,"o":"m 262 419 q 463 557 463 419 q 416 657 463 623 q 285 692 370 692 q 184 679 231 692 q 83 643 137 667 l 58 699 q 288 751 176 751 q 471 701 408 751 q 533 562 533 651 q 401 399 533 434 l 401 395 q 521 327 484 374 q 558 207 558 280 q 483 45 558 104 q 275 -14 408 -14 q 144 0 203 -14 q 46 37 85 14 l 46 104 q 167 59 116 71 q 275 47 218 47 q 432 90 376 47 q 488 211 488 132 q 434 324 488 288 q 273 361 380 361 l 171 361 l 171 419 l 262 419 z "},"и":{"ha":833,"x_min":123,"x_max":710,"o":"m 187 737 l 187 204 l 183 65 l 621 737 l 710 737 l 710 0 l 646 0 l 646 530 l 648 672 l 211 0 l 123 0 l 123 737 l 187 737 z "},"й":{"ha":833,"x_min":123,"x_max":710,"o":"m 187 737 l 187 204 l 183 65 l 621 737 l 710 737 l 710 0 l 646 0 l 646 530 l 648 672 l 211 0 l 123 0 l 123 737 l 187 737 m 417 842 q 263 887 316 842 q 201 1032 210 932 l 261 1032 q 307 927 271 958 q 418 896 343 896 q 529 928 493 896 q 574 1032 566 960 l 633 1032 q 417 842 619 842 z "},"к":{"ha":637,"x_min":123,"x_max":631,"o":"m 524 737 l 607 737 l 277 380 l 631 0 l 541 0 l 192 374 l 192 0 l 123 0 l 123 737 l 192 737 l 192 379 l 524 737 z "},"л":{"ha":757,"x_min":14,"x_max":633,"o":"m 633 0 l 567 0 l 567 675 l 306 675 q 256 266 286 407 q 180 59 227 125 q 60 -7 134 -7 q 14 -1 33 -7 l 14 60 q 50 56 26 56 q 174 217 127 56 q 245 737 221 379 l 633 737 l 633 0 z "},"м":{"ha":937,"x_min":123,"x_max":814,"o":"m 467 72 l 509 191 l 721 737 l 814 737 l 814 0 l 750 0 l 750 656 q 719 568 735 613 q 497 0 702 524 l 437 0 l 233 518 q 209 584 220 549 q 184 659 198 618 l 184 0 l 123 0 l 123 737 l 212 737 l 425 195 q 467 72 450 129 z "},"н":{"ha":848,"x_min":123,"x_max":725,"o":"m 191 737 l 191 414 l 659 414 l 659 737 l 725 737 l 725 0 l 659 0 l 659 355 l 191 355 l 191 0 l 123 0 l 123 737 l 191 737 z "},"о":{"ha":814,"x_min":81,"x_max":733,"o":"m 733 370 q 646 88 733 189 q 404 -14 558 -14 q 233 33 307 -14 q 120 168 159 80 q 81 370 81 255 q 168 651 81 550 q 408 751 256 751 q 647 649 560 751 q 733 370 733 547 m 151 370 q 218 133 151 218 q 407 47 285 47 q 596 133 529 47 q 663 370 663 218 q 595 606 663 522 q 406 690 528 690 q 217 607 283 690 q 151 370 151 523 z "},"п":{"ha":835,"x_min":123,"x_max":711,"o":"m 191 0 l 123 0 l 123 737 l 711 737 l 711 0 l 644 0 l 644 673 l 191 673 l 191 0 z "},"р":{"ha":827,"x_min":123,"x_max":746,"o":"m 439 -14 q 191 114 269 -14 l 186 114 l 188 57 q 191 -53 191 7 l 191 -334 l 123 -334 l 123 737 l 180 737 l 193 632 l 197 632 q 440 751 273 751 q 668 653 589 751 q 746 368 746 555 q 664 86 746 186 q 439 -14 581 -14 m 437 46 q 613 130 551 46 q 675 366 675 214 q 440 690 675 690 q 251 620 311 690 q 191 389 191 549 l 191 367 q 249 120 191 194 q 437 46 307 46 z "},"с":{"ha":660,"x_min":81,"x_max":611,"o":"m 418 -14 q 170 86 260 -14 q 81 364 81 186 q 174 649 81 547 q 428 751 267 751 q 611 718 524 751 l 593 659 q 427 690 497 690 q 221 607 291 690 q 151 366 151 523 q 221 132 151 216 q 416 47 291 47 q 603 83 517 47 l 603 21 q 418 -14 532 -14 z "},"т":{"ha":619,"x_min":28,"x_max":591,"o":"m 591 679 l 346 679 l 346 0 l 279 0 l 279 679 l 28 679 l 28 737 l 591 737 l 591 679 z "},"у":{"ha":637,"x_min":0,"x_max":637,"o":"m 0 737 l 69 737 l 225 323 q 315 66 296 133 l 319 66 q 412 328 348 154 l 568 737 l 637 737 l 307 -119 q 240 -260 267 -224 q 177 -315 213 -297 q 89 -334 140 -334 q 3 -319 50 -334 l 3 -261 q 87 -272 42 -272 q 149 -256 122 -272 q 196 -205 175 -239 q 246 -97 218 -171 q 282 0 274 -22 l 0 737 z "},"ф":{"ha":930,"x_min":81,"x_max":850,"o":"m 850 370 q 758 99 850 199 q 500 -14 666 -1 l 500 -334 l 433 -334 l 433 -14 q 174 96 268 -4 q 81 370 81 197 q 173 640 81 540 q 433 751 265 739 l 433 1055 l 500 1055 l 500 751 q 758 640 667 739 q 850 370 850 540 m 151 370 q 225 142 151 225 q 433 49 298 59 l 433 689 q 223 595 294 677 q 151 370 151 513 m 779 370 q 707 594 779 511 q 500 689 634 677 l 500 49 q 707 145 635 60 q 779 370 779 230 z "},"х":{"ha":692,"x_min":37,"x_max":654,"o":"m 304 379 l 47 737 l 125 737 l 345 427 l 562 737 l 636 737 l 383 379 l 654 0 l 576 0 l 345 329 l 111 0 l 37 0 l 304 379 z "},"ц":{"ha":829,"x_min":123,"x_max":796,"o":"m 796 -250 l 729 -250 l 729 0 l 123 0 l 123 737 l 191 737 l 191 64 l 631 64 l 631 737 l 697 737 l 697 64 l 796 64 l 796 -250 z "},"ч":{"ha":806,"x_min":111,"x_max":682,"o":"m 178 737 l 178 490 q 223 355 178 397 q 363 314 269 314 q 490 338 429 314 q 615 414 550 361 l 615 737 l 682 737 l 682 0 l 615 0 l 615 350 q 482 275 547 298 q 340 253 416 253 q 169 312 227 253 q 111 482 111 371 l 111 737 l 178 737 z "},"ш":{"ha":1183,"x_min":123,"x_max":1060,"o":"m 625 64 l 993 64 l 993 737 l 1060 737 l 1060 0 l 123 0 l 123 737 l 191 737 l 191 64 l 558 64 l 558 737 l 625 737 l 625 64 z "},"щ":{"ha":1192,"x_min":123,"x_max":1158,"o":"m 625 64 l 993 64 l 993 737 l 1060 737 l 1060 64 l 1158 64 l 1158 -250 l 1092 -250 l 1092 0 l 123 0 l 123 737 l 191 737 l 191 64 l 558 64 l 558 737 l 625 737 l 625 64 z "},"ъ":{"ha":897,"x_min":28,"x_max":817,"o":"m 318 427 l 557 427 q 817 222 817 427 q 744 59 817 117 q 536 0 671 0 l 252 0 l 252 679 l 28 679 l 28 737 l 318 737 l 318 427 m 318 363 l 318 64 l 547 64 q 695 106 645 64 q 746 225 746 148 q 701 330 746 297 q 543 363 655 363 l 318 363 z "},"ы":{"ha":1004,"x_min":123,"x_max":880,"o":"m 191 427 l 425 427 q 685 222 685 427 q 612 59 685 117 q 404 0 540 0 l 123 0 l 123 737 l 191 737 l 191 427 m 191 363 l 191 64 l 415 64 q 562 104 511 64 q 614 224 614 144 q 568 330 614 297 q 411 363 523 363 l 191 363 m 880 0 l 814 0 l 814 737 l 880 737 l 880 0 z "},"ь":{"ha":790,"x_min":123,"x_max":710,"o":"m 191 427 l 450 427 q 710 222 710 427 q 637 59 710 117 q 429 0 565 0 l 123 0 l 123 737 l 191 737 l 191 427 m 191 363 l 191 64 l 440 64 q 588 104 536 64 q 639 224 639 145 q 593 330 639 297 q 436 363 548 363 l 191 363 z "},"э":{"ha":682,"x_min":46,"x_max":602,"o":"m 243 -14 q 127 -3 180 -14 q 46 21 73 7 l 46 83 q 239 47 132 47 q 451 132 372 47 q 532 359 530 216 l 111 359 l 111 419 l 529 419 q 448 622 517 553 q 257 690 378 690 q 77 650 185 690 l 57 710 q 152 739 95 726 q 256 751 209 751 q 511 654 421 751 q 602 378 602 556 q 506 91 602 195 q 243 -14 410 -14 z "},"ю":{"ha":1108,"x_min":123,"x_max":1028,"o":"m 1028 370 q 947 88 1028 189 q 725 -14 866 -14 q 511 86 592 -14 q 428 355 430 186 l 191 355 l 191 0 l 123 0 l 123 737 l 191 737 l 191 414 l 429 414 q 518 662 439 573 q 729 751 597 751 q 948 649 867 751 q 1028 370 1028 547 m 498 370 q 558 133 498 218 q 728 47 618 47 q 897 133 837 47 q 957 370 957 218 q 897 606 957 522 q 726 690 836 690 q 558 607 617 690 q 498 370 498 523 z "},"я":{"ha":734,"x_min":28,"x_max":611,"o":"m 113 0 l 28 0 l 250 318 q 103 389 149 337 q 58 521 58 440 q 126 679 58 621 q 307 737 193 737 l 611 737 l 611 0 l 545 0 l 545 310 l 319 310 l 113 0 m 129 524 q 178 411 129 448 q 326 374 227 374 l 545 374 l 545 673 l 306 673 q 175 635 222 673 q 129 524 129 597 z "},"ё":{"ha":762,"x_min":81,"x_max":682,"o":"m 421 -14 q 171 85 260 -14 q 81 363 81 184 q 168 645 81 539 q 401 751 254 751 q 607 661 532 751 q 682 414 682 570 l 682 359 l 151 359 q 222 127 153 208 q 421 47 292 47 q 532 56 484 47 q 653 94 580 65 l 653 33 q 538 -4 591 6 q 421 -14 485 -14 m 401 692 q 231 622 295 692 q 155 419 166 551 l 611 419 q 555 620 611 547 q 401 692 500 692 m 224 942 q 235 987 224 973 q 267 1000 245 1000 q 311 942 311 1000 q 267 884 311 884 q 224 942 224 884 m 483 942 q 493 987 483 973 q 526 1000 504 1000 q 569 942 569 1000 q 526 884 569 884 q 483 942 483 884 z "},"ђ":{"ha":819,"x_min":18,"x_max":704,"o":"m 539 -334 q 447 -317 486 -334 l 447 -258 q 534 -272 494 -272 q 637 -153 637 -272 l 637 457 q 591 619 637 568 q 446 669 545 669 q 251 603 312 669 q 191 386 191 536 l 191 0 l 123 0 l 123 863 l 18 863 l 18 918 l 123 918 l 123 1055 l 191 1055 l 191 918 l 511 918 l 511 863 l 191 863 l 191 699 l 187 604 l 192 604 q 296 701 233 671 q 453 730 359 730 q 704 461 704 730 l 704 -143 q 662 -284 704 -234 q 539 -334 619 -334 z "},"ѓ":{"ha":585,"x_min":123,"x_max":557,"o":"m 557 679 l 191 679 l 191 0 l 123 0 l 123 737 l 557 737 l 557 679 m 256 852 q 354 969 306 906 q 420 1064 403 1031 l 516 1064 l 516 1053 q 433 959 492 1017 q 304 842 374 901 l 256 842 l 256 852 z "},"є":{"ha":673,"x_min":81,"x_max":625,"o":"m 425 -14 q 173 88 264 -14 q 81 364 81 189 q 176 648 81 544 q 435 751 271 751 q 531 743 477 751 q 625 718 586 734 l 606 659 q 516 682 566 673 q 433 690 466 690 q 236 619 308 690 q 153 419 164 548 l 576 419 l 576 359 l 150 359 q 225 130 151 212 q 424 47 299 47 q 616 83 530 47 l 616 21 q 534 -4 585 5 q 425 -14 484 -14 z "},"ѕ":{"ha":647,"x_min":57,"x_max":581,"o":"m 581 192 q 505 40 581 93 q 292 -14 430 -14 q 57 32 144 -14 l 57 104 q 292 49 168 49 q 457 85 401 49 q 514 182 514 121 q 469 275 514 237 q 321 350 424 313 q 165 419 210 390 q 98 484 121 448 q 75 572 75 520 q 145 703 75 655 q 339 751 214 751 q 566 707 458 751 l 541 646 q 339 690 432 690 q 196 661 249 690 q 143 578 143 631 q 184 486 143 520 q 345 408 225 451 q 490 343 444 372 q 558 278 535 315 q 581 192 581 241 z "},"і":{"ha":314,"x_min":114,"x_max":201,"o":"m 191 0 l 123 0 l 123 737 l 191 737 l 191 0 m 114 942 q 157 1007 114 1007 q 190 990 178 1007 q 201 942 201 973 q 190 894 201 911 q 157 876 178 876 q 114 942 114 876 z "},"ї":{"ha":314,"x_min":-14,"x_max":330,"o":"m 191 0 l 123 0 l 123 737 l 191 737 l 191 0 m -14 942 q -4 987 -14 973 q 28 1000 7 1000 q 72 942 72 1000 q 28 884 72 884 q -14 942 -14 884 m 244 942 q 255 987 244 973 q 287 1000 265 1000 q 330 942 330 1000 q 287 884 330 884 q 244 942 244 884 z "},"ј":{"ha":314,"x_min":-66,"x_max":201,"o":"m 25 -334 q -66 -317 -29 -334 l -66 -258 q 21 -272 -20 -272 q 123 -153 123 -272 l 123 737 l 191 737 l 191 -143 q 148 -284 191 -235 q 25 -334 104 -334 m 114 942 q 157 1007 114 1007 q 190 990 178 1007 q 201 942 201 973 q 190 894 201 911 q 157 876 178 876 q 114 942 114 876 z "},"љ":{"ha":1122,"x_min":14,"x_max":1042,"o":"m 585 421 l 778 421 q 979 373 917 421 q 1042 220 1042 324 q 757 0 1042 0 l 518 0 l 518 675 l 306 675 q 257 266 286 408 q 180 59 227 124 q 57 -7 132 -7 q 14 -1 32 -7 l 14 60 q 49 56 27 56 q 173 212 126 56 q 245 737 220 369 l 585 737 l 585 421 m 585 357 l 585 64 l 768 64 q 922 103 873 64 q 971 222 971 142 q 952 301 971 273 q 893 343 933 330 q 764 357 854 357 l 585 357 z "},"њ":{"ha":1193,"x_min":123,"x_max":1112,"o":"m 656 737 l 656 421 l 856 421 q 1050 373 989 421 q 1112 220 1112 325 q 1041 55 1112 111 q 835 0 970 0 l 589 0 l 589 357 l 191 357 l 191 0 l 123 0 l 123 737 l 191 737 l 191 421 l 589 421 l 589 737 l 656 737 m 656 357 l 656 64 l 846 64 q 992 101 942 64 q 1042 221 1042 138 q 1023 301 1042 272 q 964 344 1004 331 q 842 357 924 357 l 656 357 z "},"ћ":{"ha":819,"x_min":18,"x_max":704,"o":"m 637 0 l 637 457 q 591 619 637 568 q 446 669 544 669 q 251 603 312 669 q 191 386 191 536 l 191 0 l 123 0 l 123 863 l 18 863 l 18 918 l 123 918 l 123 1055 l 191 1055 l 191 918 l 511 918 l 511 863 l 191 863 l 191 699 l 187 604 l 192 604 q 296 701 233 671 q 453 730 359 730 q 704 461 704 730 l 704 0 l 637 0 z "},"ќ":{"ha":637,"x_min":123,"x_max":631,"o":"m 524 737 l 607 737 l 277 380 l 631 0 l 541 0 l 192 374 l 192 0 l 123 0 l 123 737 l 192 737 l 192 379 l 524 737 m 286 852 q 384 969 336 906 q 450 1064 433 1031 l 546 1064 l 546 1053 q 463 959 522 1017 q 334 842 404 901 l 286 842 l 286 852 z "},"ў":{"ha":637,"x_min":0,"x_max":637,"o":"m 0 737 l 69 737 l 225 323 q 315 66 296 133 l 319 66 q 412 328 348 154 l 568 737 l 637 737 l 307 -119 q 240 -260 267 -224 q 177 -315 213 -297 q 89 -334 140 -334 q 3 -319 50 -334 l 3 -261 q 87 -272 42 -272 q 149 -256 122 -272 q 196 -205 175 -239 q 246 -97 218 -171 q 282 0 274 -22 l 0 737 m 319 842 q 165 887 218 842 q 103 1032 112 932 l 163 1032 q 209 927 173 958 q 320 896 245 896 q 431 928 395 896 q 475 1032 467 960 l 535 1032 q 319 842 521 842 z "},"џ":{"ha":835,"x_min":123,"x_max":711,"o":"m 385 0 l 123 0 l 123 737 l 191 737 l 191 64 l 644 64 l 644 737 l 711 737 l 711 0 l 452 0 l 452 -250 l 385 -250 l 385 0 z "},"Ґ":{"ha":697,"x_min":140,"x_max":684,"o":"m 616 991 l 616 1196 l 684 1196 l 684 928 l 210 928 l 210 0 l 140 0 l 140 991 l 616 991 z "},"ґ":{"ha":585,"x_min":123,"x_max":557,"o":"m 557 679 l 191 679 l 191 0 l 123 0 l 123 737 l 492 737 l 492 961 l 557 961 l 557 679 z "},"Ẁ":{"ha":1239,"x_min":35,"x_max":1204,"o":"m 930 0 l 873 0 l 656 765 q 615 920 629 859 q 584 784 604 861 q 366 0 564 707 l 307 0 l 35 991 l 107 991 l 281 353 q 300 281 291 314 q 316 219 309 248 q 329 164 323 191 q 339 110 334 137 q 408 390 355 202 l 578 991 l 654 991 l 853 301 q 903 109 888 182 q 925 212 911 157 q 1135 991 939 267 l 1204 991 l 930 0 m 697 1071 l 650 1071 q 523 1187 585 1124 q 437 1282 460 1250 l 437 1293 l 534 1293 q 601 1197 551 1261 q 697 1082 650 1133 l 697 1071 z "},"ẁ":{"ha":1004,"x_min":21,"x_max":983,"o":"m 713 0 l 551 493 q 511 640 536 543 l 507 640 l 493 590 l 463 492 l 298 0 l 232 0 l 21 737 l 93 737 l 211 310 q 265 77 252 151 l 269 77 q 328 288 309 235 l 479 737 l 541 737 l 685 289 q 745 78 734 130 l 749 78 q 803 314 754 122 l 916 737 l 983 737 l 783 0 l 713 0 m 586 842 l 539 842 q 411 958 474 895 q 326 1053 349 1021 l 326 1064 l 422 1064 q 489 968 440 1031 q 586 852 538 904 l 586 842 z "},"Ẃ":{"ha":1239,"x_min":35,"x_max":1204,"o":"m 930 0 l 873 0 l 656 765 q 615 920 629 859 q 584 784 604 861 q 366 0 564 707 l 307 0 l 35 991 l 107 991 l 281 353 q 300 281 291 314 q 316 219 309 248 q 329 164 323 191 q 339 110 334 137 q 408 390 355 202 l 578 991 l 654 991 l 853 301 q 903 109 888 182 q 925 212 911 157 q 1135 991 939 267 l 1204 991 l 930 0 m 553 1082 q 651 1198 602 1135 q 717 1293 699 1261 l 812 1293 l 812 1282 q 729 1188 788 1246 q 600 1071 671 1130 l 553 1071 l 553 1082 z "},"ẃ":{"ha":1004,"x_min":21,"x_max":983,"o":"m 713 0 l 551 493 q 511 640 536 543 l 507 640 l 493 590 l 463 492 l 298 0 l 232 0 l 21 737 l 93 737 l 211 310 q 265 77 252 151 l 269 77 q 328 288 309 235 l 479 737 l 541 737 l 685 289 q 745 78 734 130 l 749 78 q 803 314 754 122 l 916 737 l 983 737 l 783 0 l 713 0 m 448 852 q 546 969 498 906 q 612 1064 595 1031 l 708 1064 l 708 1053 q 625 959 684 1017 q 496 842 566 901 l 448 842 l 448 852 z "},"Ẅ":{"ha":1239,"x_min":35,"x_max":1204,"o":"m 930 0 l 873 0 l 656 765 q 615 920 629 859 q 584 784 604 861 q 366 0 564 707 l 307 0 l 35 991 l 107 991 l 281 353 q 300 281 291 314 q 316 219 309 248 q 329 164 323 191 q 339 110 334 137 q 408 390 355 202 l 578 991 l 654 991 l 853 301 q 903 109 888 182 q 925 212 911 157 q 1135 991 939 267 l 1204 991 l 930 0 m 444 1171 q 455 1216 444 1202 q 487 1230 465 1230 q 530 1171 530 1230 q 487 1113 530 1113 q 444 1171 444 1113 m 703 1171 q 713 1216 703 1202 q 745 1230 724 1230 q 789 1171 789 1230 q 745 1113 789 1113 q 703 1171 703 1113 z "},"ẅ":{"ha":1004,"x_min":21,"x_max":983,"o":"m 713 0 l 551 493 q 511 640 536 543 l 507 640 l 493 590 l 463 492 l 298 0 l 232 0 l 21 737 l 93 737 l 211 310 q 265 77 252 151 l 269 77 q 328 288 309 235 l 479 737 l 541 737 l 685 289 q 745 78 734 130 l 749 78 q 803 314 754 122 l 916 737 l 983 737 l 783 0 l 713 0 m 338 942 q 348 987 338 973 q 380 1000 359 1000 q 424 942 424 1000 q 380 884 424 884 q 338 942 338 884 m 596 942 q 607 987 596 973 q 639 1000 617 1000 q 682 942 682 1000 q 639 884 682 884 q 596 942 596 884 z "},"Ỳ":{"ha":733,"x_min":0,"x_max":733,"o":"m 368 449 l 659 991 l 733 991 l 403 383 l 403 0 l 332 0 l 332 378 l 0 991 l 79 991 l 368 449 m 438 1071 l 391 1071 q 263 1187 326 1124 q 178 1282 201 1250 l 178 1293 l 275 1293 q 341 1197 292 1261 q 438 1082 391 1133 l 438 1071 z "},"ỳ":{"ha":637,"x_min":0,"x_max":637,"o":"m 0 737 l 69 737 l 225 323 q 315 66 296 133 l 319 66 q 412 328 348 154 l 568 737 l 637 737 l 307 -119 q 240 -260 267 -224 q 177 -315 213 -297 q 89 -334 140 -334 q 3 -319 50 -334 l 3 -261 q 87 -272 42 -272 q 149 -256 122 -272 q 196 -205 175 -239 q 246 -97 218 -171 q 282 0 274 -22 l 0 737 m 382 842 l 336 842 q 208 958 271 895 q 123 1053 145 1021 l 123 1064 l 219 1064 q 286 968 237 1031 q 382 852 335 904 l 382 842 z "},"–":{"ha":694,"x_min":56,"x_max":639,"o":"m 56 347 l 56 403 l 639 403 l 639 347 l 56 347 z "},"—":{"ha":1389,"x_min":56,"x_max":1333,"o":"m 56 347 l 56 403 l 1333 403 l 1333 347 l 56 347 z "},"―":{"ha":1389,"x_min":56,"x_max":1333,"o":"m 56 347 l 56 403 l 1333 403 l 1333 347 l 56 347 z "},"‗":{"ha":571,"x_min":-3,"x_max":574,"o":"m 574 -86 l -3 -86 l -3 -31 l 574 -31 l 574 -86 m 574 -274 l -3 -274 l -3 -218 l 574 -218 l 574 -274 z "},"‘":{"ha":201,"x_min":20,"x_max":182,"o":"m 28 652 l 20 665 q 75 836 41 741 q 138 991 109 930 l 182 991 q 138 817 161 923 q 107 652 115 711 l 28 652 z "},"’":{"ha":201,"x_min":20,"x_max":182,"o":"m 174 991 l 182 978 q 64 652 131 798 l 20 652 q 61 815 39 717 q 94 991 83 914 l 174 991 z "},"‚":{"ha":306,"x_min":46,"x_max":208,"o":"m 200 161 l 208 148 q 90 -178 157 -32 l 46 -178 q 87 -15 66 -113 q 121 161 109 84 l 200 161 z "},"‛":{"ha":201,"x_min":20,"x_max":182,"o":"m 107 991 q 138 827 115 932 q 182 652 161 721 l 138 652 q 77 801 111 709 q 20 978 43 894 l 28 991 l 107 991 z "},"“":{"ha":416,"x_min":20,"x_max":397,"o":"m 243 652 l 235 665 q 291 838 258 747 q 353 991 324 930 l 397 991 q 355 823 377 925 q 322 652 332 721 l 243 652 m 28 652 l 20 665 q 75 836 41 741 q 138 991 109 930 l 182 991 q 138 817 161 923 q 107 652 115 711 l 28 652 z "},"”":{"ha":416,"x_min":20,"x_max":397,"o":"m 174 991 l 182 978 q 64 652 131 798 l 20 652 q 61 815 39 717 q 94 991 83 914 l 174 991 m 389 991 l 397 978 q 340 801 373 891 q 279 652 307 711 l 235 652 q 277 820 255 718 q 310 991 300 922 l 389 991 z "},"„":{"ha":521,"x_min":46,"x_max":424,"o":"m 200 161 l 208 148 q 90 -178 157 -32 l 46 -178 q 87 -15 66 -113 q 121 161 109 84 l 200 161 m 415 161 l 424 148 q 366 -29 399 61 q 306 -178 333 -119 l 261 -178 q 304 -10 281 -112 q 336 161 326 92 l 415 161 z "},"†":{"ha":682,"x_min":83,"x_max":599,"o":"m 599 715 l 355 729 l 374 0 l 294 0 l 313 729 l 83 715 l 83 791 l 313 772 l 294 1055 l 374 1055 l 355 772 l 599 791 l 599 715 z "},"‡":{"ha":682,"x_min":83,"x_max":599,"o":"m 355 313 l 599 329 l 599 253 l 355 269 l 374 0 l 294 0 l 313 269 l 83 253 l 83 329 l 313 313 l 301 533 l 313 732 l 83 715 l 83 791 l 313 775 l 294 1055 l 374 1055 l 355 775 l 599 791 l 599 715 l 355 732 l 367 533 l 355 313 z "},"•":{"ha":522,"x_min":157,"x_max":366,"o":"m 157 507 q 184 598 157 568 q 261 629 212 629 q 338 597 311 629 q 366 507 366 566 q 338 417 366 450 q 261 385 310 385 q 184 416 212 385 q 157 507 157 448 z "},"…":{"ha":994,"x_min":110,"x_max":884,"o":"m 110 53 q 164 119 110 119 q 220 53 220 119 q 164 -14 220 -14 q 110 53 110 -14 m 441 53 q 496 119 441 119 q 551 53 551 119 q 496 -14 551 -14 q 441 53 441 -14 m 774 53 q 828 119 774 119 q 884 53 884 119 q 828 -14 884 -14 q 774 53 774 -14 z "},"‰":{"ha":1581,"x_min":77,"x_max":1504,"o":"m 143 696 q 174 506 143 570 q 269 443 204 443 q 400 696 400 443 q 367 883 400 821 q 269 946 333 946 q 174 883 204 946 q 143 696 143 821 m 467 696 q 416 463 467 543 q 269 383 365 383 q 128 465 179 383 q 77 696 77 547 q 125 926 77 847 q 269 1006 174 1006 q 415 924 363 1006 q 467 696 467 842 m 721 297 q 751 109 721 172 q 847 46 782 46 q 978 297 978 46 q 847 547 978 547 q 751 485 782 547 q 721 297 721 423 m 1044 297 q 994 64 1044 144 q 848 -16 944 -16 q 705 67 756 -16 q 654 297 654 149 q 704 528 654 450 q 848 607 754 607 q 993 526 941 607 q 1044 297 1044 444 m 868 991 l 318 0 l 253 0 l 803 991 l 868 991 m 1181 297 q 1211 109 1181 172 q 1307 46 1242 46 q 1438 297 1438 46 q 1307 547 1438 547 q 1211 485 1242 547 q 1181 297 1181 423 m 1504 297 q 1454 64 1504 144 q 1308 -16 1404 -16 q 1165 66 1217 -16 q 1114 297 1114 148 q 1163 528 1114 450 q 1308 607 1213 607 q 1453 526 1401 607 q 1504 297 1504 444 z "},"′":{"ha":267,"x_min":90,"x_max":176,"o":"m 176 991 l 154 633 l 113 633 l 90 991 l 176 991 z "},"″":{"ha":490,"x_min":90,"x_max":400,"o":"m 176 991 l 154 633 l 113 633 l 90 991 l 176 991 m 400 991 l 378 633 l 336 633 l 314 991 l 400 991 z "},"‹":{"ha":355,"x_min":56,"x_max":307,"o":"m 56 368 l 265 635 l 307 606 l 135 359 l 307 114 l 265 85 l 56 350 l 56 368 z "},"›":{"ha":355,"x_min":49,"x_max":300,"o":"m 300 351 l 90 85 l 49 114 l 221 359 l 49 606 l 90 635 l 300 370 l 300 351 z "},"‼":{"ha":623,"x_min":111,"x_max":510,"o":"m 187 256 l 146 256 l 126 991 l 207 991 l 187 256 m 111 53 q 165 119 111 119 q 221 53 221 119 q 165 -14 221 -14 q 111 53 111 -14 m 476 256 l 435 256 l 415 991 l 496 991 l 476 256 m 400 53 q 454 119 400 119 q 510 53 510 119 q 454 -14 510 -14 q 400 53 400 -14 z "},"⁄":{"ha":167,"x_min":-225,"x_max":389,"o":"m 389 991 l -161 0 l -225 0 l 325 991 l 389 991 z "},"ⁿ":{"ha":519,"x_min":77,"x_max":450,"o":"m 389 551 l 389 832 q 360 923 389 895 q 273 950 331 950 q 169 913 200 950 q 138 791 138 876 l 138 551 l 77 551 l 77 996 l 127 996 l 135 935 l 139 935 q 282 1003 186 1003 q 450 833 450 1003 l 450 551 l 389 551 z "},"₣":{"ha":793,"x_min":71,"x_max":708,"o":"m 262 258 l 515 258 l 515 203 l 262 203 l 262 0 l 193 0 l 193 203 l 71 203 l 71 258 l 193 258 l 193 991 l 708 991 l 708 928 l 262 928 l 262 514 l 682 514 l 682 450 l 262 450 l 262 258 z "},"₤":{"ha":793,"x_min":53,"x_max":728,"o":"m 279 542 l 279 396 l 558 396 l 558 340 l 279 340 l 279 285 q 256 152 279 206 q 179 65 232 98 l 728 65 l 728 0 l 53 0 l 53 57 q 169 132 127 71 q 211 283 211 192 l 211 340 l 68 340 l 68 396 l 211 396 l 211 542 l 68 542 l 68 597 l 211 597 l 211 715 q 277 929 211 854 q 468 1004 344 1004 q 692 958 587 1004 l 668 900 q 468 945 562 945 q 326 890 372 945 q 279 718 279 835 l 279 597 l 558 597 l 558 542 l 279 542 z "},"₧":{"ha":1018,"x_min":115,"x_max":968,"o":"m 895 45 q 968 53 934 45 l 968 -3 q 879 -14 935 -14 q 725 158 725 -14 l 725 515 l 616 515 l 616 555 l 725 585 l 751 717 l 793 717 l 793 574 l 951 574 l 951 515 l 793 515 l 793 175 q 817 74 793 103 q 895 45 840 45 m 591 707 q 215 403 591 403 l 184 403 l 184 0 l 115 0 l 115 991 l 248 991 q 591 707 591 991 m 184 463 l 224 463 q 447 520 376 463 q 518 704 518 578 q 452 875 518 821 q 243 929 385 929 l 184 929 l 184 463 z "},"€":{"ha":793,"x_min":50,"x_max":754,"o":"m 545 947 q 349 862 427 947 q 244 615 272 777 l 585 615 l 585 559 l 239 559 l 236 489 l 236 473 q 239 414 236 429 l 543 414 l 543 358 l 243 358 q 343 129 263 211 q 547 46 422 46 q 742 90 648 46 l 742 26 q 640 -5 687 3 q 545 -14 593 -14 q 295 81 390 -14 q 172 358 201 176 l 50 358 l 50 414 l 167 414 q 164 490 164 439 l 167 559 l 50 559 l 50 615 l 175 615 q 299 903 201 800 q 545 1007 397 1007 q 654 996 604 1007 q 754 957 703 984 l 728 899 q 545 947 638 947 z "},"℅":{"ha":1116,"x_min":97,"x_max":1018,"o":"m 1018 227 q 965 56 1018 118 q 815 -5 911 -5 q 668 57 720 -5 q 615 227 615 119 q 670 397 615 336 q 819 458 724 458 q 966 396 914 458 q 1018 227 1018 334 m 682 227 q 717 98 682 142 q 818 54 752 54 q 917 99 882 54 q 951 227 951 144 q 917 355 951 311 q 818 399 883 399 q 716 355 751 399 q 682 227 682 311 m 322 534 q 155 595 214 534 q 97 765 97 656 q 160 936 97 873 q 332 999 224 999 q 463 978 399 999 l 443 918 q 334 939 385 939 q 208 895 252 939 q 164 766 164 850 q 204 636 164 677 q 329 595 244 595 q 454 616 397 595 l 454 559 q 322 534 396 534 m 863 991 l 313 0 l 249 0 l 799 991 l 863 991 z "},"ℓ":{"ha":694,"x_min":78,"x_max":595,"o":"m 408 49 q 542 204 524 49 l 595 204 q 539 46 591 105 q 400 -12 486 -12 q 258 44 303 -12 q 212 211 212 100 l 212 404 q 78 361 142 375 l 78 418 q 212 463 150 437 l 212 806 q 255 955 212 903 q 375 1006 297 1006 q 498 954 454 1006 q 542 807 542 902 q 475 583 542 680 q 279 428 408 486 l 279 224 q 309 91 279 133 q 408 49 339 49 m 478 806 q 451 913 478 877 q 375 949 423 949 q 302 916 326 949 q 279 806 279 884 l 279 492 q 430 621 382 544 q 478 806 478 697 z "},"№":{"ha":1406,"x_min":140,"x_max":1328,"o":"m 819 0 l 749 0 l 204 879 l 199 879 q 207 643 207 722 l 207 0 l 140 0 l 140 991 l 210 991 l 754 117 l 758 117 q 753 345 753 274 l 753 991 l 819 991 l 819 0 m 1328 414 q 1274 243 1328 301 q 1126 186 1220 186 q 982 243 1035 186 q 929 414 929 301 q 983 585 929 525 q 1131 646 1036 646 q 1276 585 1224 646 q 1328 414 1328 524 m 996 414 q 1029 288 996 330 q 1129 245 1063 245 q 1227 289 1193 245 q 1261 414 1261 332 q 1228 542 1261 498 q 1129 586 1194 586 q 996 414 996 586 m 966 0 l 966 58 l 1287 58 l 1287 0 l 966 0 z "},"™":{"ha":1007,"x_min":7,"x_max":884,"o":"m 212 503 l 154 503 l 154 939 l 7 939 l 7 991 l 361 991 l 361 939 l 212 939 l 212 503 m 619 503 l 469 916 l 465 916 l 468 779 l 468 503 l 412 503 l 412 991 l 497 991 l 647 581 l 799 991 l 884 991 l 884 503 l 825 503 l 825 772 l 828 913 l 823 913 l 669 503 l 619 503 z "},"Ω":{"ha":1076,"x_min":56,"x_max":1021,"o":"m 538 945 q 267 842 368 945 q 167 562 167 739 q 228 293 167 409 q 440 49 290 176 l 440 0 l 56 0 l 56 64 l 332 64 q 192 216 241 144 q 117 373 143 288 q 92 557 92 458 q 146 795 92 692 q 301 952 200 897 q 538 1007 403 1007 q 867 889 749 1007 q 985 558 985 771 q 930 298 985 416 q 747 64 876 179 l 1021 64 l 1021 0 l 637 0 l 637 49 q 846 286 783 168 q 909 561 909 405 q 810 842 909 739 q 538 945 711 945 z "},"℮":{"ha":860,"x_min":69,"x_max":789,"o":"m 429 -24 q 241 26 323 -24 q 114 164 159 76 q 69 359 69 253 q 116 562 69 475 q 245 696 163 648 q 429 743 328 743 q 615 695 532 743 q 743 559 697 647 q 789 359 789 471 l 228 359 l 228 118 q 317 58 261 82 q 429 35 374 35 q 580 70 518 35 q 697 193 642 106 l 746 165 q 606 18 680 60 q 429 -24 532 -24 m 632 418 l 632 606 q 543 664 598 642 q 428 686 488 686 q 228 607 311 686 l 228 418 l 632 418 z "},"⅛":{"ha":1028,"x_min":15,"x_max":949,"o":"m 750 606 q 881 564 832 606 q 930 453 930 522 q 814 313 930 361 q 915 247 882 288 q 949 155 949 206 q 895 33 949 79 q 749 -14 841 -14 q 604 30 656 -14 q 551 151 551 74 q 582 243 551 201 q 671 312 612 284 q 590 375 612 344 q 568 450 568 406 q 619 563 568 519 q 750 606 669 606 m 618 151 q 654 74 618 102 q 750 45 690 45 q 846 73 813 45 q 880 151 880 101 q 851 220 880 191 q 749 278 822 250 l 735 284 q 645 228 672 260 q 618 151 618 195 m 749 548 q 668 522 698 548 q 637 452 637 496 q 662 389 637 415 q 750 340 687 362 q 836 388 808 360 q 863 453 863 415 q 832 522 863 496 q 749 548 802 548 m 736 991 l 186 0 l 122 0 l 672 991 l 736 991 m 201 991 l 263 991 l 263 397 l 197 397 l 197 768 q 205 926 197 836 q 47 828 187 911 l 15 880 l 201 991 z "},"⅜":{"ha":1028,"x_min":22,"x_max":1006,"o":"m 807 606 q 938 564 889 606 q 987 453 987 522 q 871 313 987 361 q 972 247 939 288 q 1006 155 1006 206 q 952 33 1006 79 q 806 -14 898 -14 q 661 30 713 -14 q 608 151 608 74 q 638 243 608 201 q 728 312 669 284 q 647 375 669 344 q 625 450 625 406 q 676 563 625 519 q 807 606 726 606 m 675 151 q 711 74 675 102 q 807 45 747 45 q 903 73 870 45 q 937 151 937 101 q 908 220 937 191 q 806 278 879 250 l 792 284 q 702 228 729 260 q 675 151 675 195 m 806 548 q 725 522 755 548 q 694 452 694 496 q 719 389 694 415 q 807 340 744 362 q 892 388 865 360 q 920 453 920 415 q 889 522 920 496 q 806 548 859 548 m 826 991 l 276 0 l 212 0 l 762 991 l 826 991 m 412 854 q 382 765 412 802 q 302 714 352 729 q 429 571 429 684 q 369 434 429 483 q 201 386 309 386 q 22 427 103 386 l 22 486 q 202 444 114 444 q 320 477 280 444 q 361 570 361 511 q 320 652 361 626 q 199 679 280 679 l 111 679 l 111 736 l 202 736 q 309 765 273 736 q 345 847 345 795 q 313 920 345 892 q 227 947 281 947 q 60 895 140 947 l 28 942 q 227 1006 117 1006 q 362 965 313 1006 q 412 854 412 924 z "},"⅝":{"ha":1028,"x_min":36,"x_max":994,"o":"m 210 761 q 365 712 308 761 q 422 581 422 664 q 363 438 422 491 q 201 386 304 386 q 111 397 157 386 q 36 425 64 408 l 36 489 q 202 444 117 444 q 315 479 275 444 q 355 579 355 514 q 316 670 355 637 q 199 703 276 703 q 90 686 149 703 l 55 713 l 76 991 l 398 991 l 398 932 l 134 932 l 122 751 q 210 761 160 761 m 818 991 l 268 0 l 204 0 l 754 991 l 818 991 m 795 606 q 927 564 878 606 q 976 453 976 522 q 859 313 976 361 q 961 247 927 288 q 994 155 994 206 q 940 33 994 79 q 794 -14 886 -14 q 649 30 702 -14 q 597 151 597 74 q 627 243 597 201 q 716 312 657 284 q 636 375 658 344 q 614 450 614 406 q 664 563 614 519 q 795 606 715 606 m 664 151 q 700 74 664 102 q 795 45 735 45 q 892 73 859 45 q 925 151 925 101 q 896 220 925 191 q 794 278 867 250 l 781 284 q 691 228 718 260 q 664 151 664 195 m 794 548 q 713 522 743 548 q 683 452 683 496 q 708 389 683 415 q 795 340 732 362 q 881 388 854 360 q 908 453 908 415 q 878 522 908 496 q 794 548 847 548 z "},"⅞":{"ha":1028,"x_min":61,"x_max":981,"o":"m 782 606 q 913 564 864 606 q 962 453 962 522 q 846 313 962 361 q 947 247 913 288 q 981 155 981 206 q 927 33 981 79 q 781 -14 873 -14 q 636 30 688 -14 q 583 151 583 74 q 613 243 583 201 q 703 312 644 284 q 622 375 644 344 q 600 450 600 406 q 651 563 600 519 q 782 606 701 606 m 650 151 q 686 74 650 102 q 782 45 722 45 q 878 73 845 45 q 911 151 911 101 q 883 220 911 191 q 781 278 854 250 l 767 284 q 677 228 704 260 q 650 151 650 195 m 781 548 q 700 522 730 548 q 669 452 669 496 q 694 389 669 415 q 782 340 719 362 q 867 388 840 360 q 895 453 895 415 q 864 522 895 496 q 781 548 833 548 m 744 991 l 194 0 l 130 0 l 680 991 l 744 991 m 131 397 l 378 932 l 61 932 l 61 991 l 452 991 l 452 946 l 205 397 l 131 397 z "},"∂":{"ha":793,"x_min":81,"x_max":704,"o":"m 314 -14 q 141 56 202 -14 q 81 249 81 125 q 127 473 81 368 q 250 631 174 578 q 425 685 327 685 q 629 532 564 685 q 635 629 635 583 q 585 867 635 789 q 431 945 536 945 q 345 933 389 945 q 267 905 300 922 l 267 972 q 440 1007 353 1007 q 704 635 704 1007 q 652 298 704 454 q 512 64 600 142 q 314 -14 425 -14 m 315 49 q 504 161 423 49 q 615 452 585 274 q 541 579 589 535 q 429 623 494 623 q 287 575 349 623 q 186 437 224 527 q 149 249 149 347 q 192 102 149 155 q 315 49 235 49 z "},"∆":{"ha":793,"x_min":14,"x_max":779,"o":"m 14 40 l 367 991 l 421 991 l 779 39 l 779 0 l 14 0 l 14 40 m 393 892 q 94 65 357 788 l 697 65 q 393 892 432 780 z "},"∏":{"ha":1018,"x_min":140,"x_max":878,"o":"m 808 -346 l 808 926 l 210 926 l 210 -346 l 140 -346 l 140 991 l 878 991 l 878 -346 l 808 -346 z "},"∑":{"ha":863,"x_min":58,"x_max":821,"o":"m 58 -346 l 58 -298 l 509 359 l 69 945 l 69 991 l 775 991 l 775 928 l 167 928 l 593 366 l 153 -282 l 821 -282 l 821 -346 l 58 -346 z "},"−":{"ha":793,"x_min":75,"x_max":718,"o":"m 75 463 l 75 518 l 718 518 l 718 463 l 75 463 z "},"√":{"ha":762,"x_min":25,"x_max":808,"o":"m 414 -9 l 339 -9 l 149 532 l 25 532 l 25 591 l 195 591 l 378 71 l 745 1129 l 808 1129 l 414 -9 z "},"∞":{"ha":972,"x_min":83,"x_max":889,"o":"m 282 701 q 393 665 344 701 q 486 546 442 629 q 578 664 529 627 q 690 701 627 701 q 833 641 777 701 q 889 490 889 581 q 832 339 889 399 q 690 279 776 279 q 578 316 627 279 q 486 435 529 353 q 392 315 441 351 q 282 279 343 279 q 140 339 196 279 q 83 490 83 399 q 140 642 83 582 q 282 701 197 701 m 690 636 q 597 600 636 636 q 521 490 558 563 q 597 381 558 418 q 690 345 636 345 q 785 385 750 345 q 821 490 821 425 q 785 596 821 556 q 690 636 749 636 m 282 636 q 187 596 223 636 q 151 490 151 556 q 187 385 151 425 q 282 345 223 345 q 371 378 332 345 q 452 490 410 411 q 372 603 411 569 q 282 636 332 636 z "},"∫":{"ha":505,"x_min":3,"x_max":473,"o":"m 214 793 q 412 1055 214 1055 q 473 1047 445 1055 l 473 986 q 412 994 442 994 q 314 948 347 994 q 281 796 281 902 l 281 -71 q 232 -269 281 -205 q 85 -334 184 -334 q 3 -321 40 -334 l 3 -260 q 87 -272 38 -272 q 214 -77 214 -272 l 214 793 z "},"≈":{"ha":793,"x_min":75,"x_max":718,"o":"m 227 637 q 155 618 194 637 q 75 555 116 598 l 75 619 q 233 694 148 694 q 315 684 277 694 q 416 646 354 674 q 566 607 500 607 q 718 692 640 607 l 718 627 q 559 550 645 550 q 376 599 481 550 q 227 637 292 637 m 227 387 q 153 367 193 387 q 75 306 113 346 l 75 370 q 233 444 149 444 q 311 435 275 444 q 416 396 348 426 q 566 357 502 357 q 640 377 604 357 q 718 441 676 398 l 718 376 q 559 300 645 300 q 376 349 481 300 q 227 387 292 387 z "},"≠":{"ha":793,"x_min":75,"x_max":718,"o":"m 349 323 l 254 121 l 203 146 l 286 323 l 75 323 l 75 379 l 313 379 l 416 600 l 75 600 l 75 656 l 443 656 l 541 863 l 590 836 l 505 656 l 718 656 l 718 600 l 479 600 l 375 379 l 718 379 l 718 323 l 349 323 z "},"≤":{"ha":793,"x_min":75,"x_max":718,"o":"m 718 180 l 75 463 l 75 504 l 718 825 l 718 761 l 160 486 l 718 245 l 718 180 m 75 1 l 75 56 l 718 56 l 718 1 l 75 1 z "},"≥":{"ha":793,"x_min":75,"x_max":718,"o":"m 75 245 l 633 486 l 75 761 l 75 825 l 718 504 l 718 463 l 75 180 l 75 245 m 75 1 l 75 56 l 718 56 l 718 1 l 75 1 z "},"◊":{"ha":806,"x_min":81,"x_max":725,"o":"m 81 498 l 386 1000 l 419 1000 l 725 498 l 419 0 l 386 0 l 81 498 m 657 498 l 403 920 l 149 498 l 403 82 l 657 498 z "},"ﬁ":{"ha":730,"x_min":20,"x_max":618,"o":"m 397 679 l 224 679 l 224 0 l 157 0 l 157 679 l 20 679 l 20 718 l 157 743 l 157 800 q 207 999 157 936 q 370 1063 256 1063 q 492 1044 431 1063 l 476 986 q 368 1003 422 1003 q 257 957 290 1003 q 224 806 224 910 l 224 737 l 397 737 l 397 679 m 607 0 l 540 0 l 540 737 l 607 737 l 607 0 m 530 942 q 573 1007 530 1007 q 606 990 594 1007 q 618 942 618 973 q 606 894 618 911 q 573 876 594 876 q 530 942 530 876 z "},"ﬂ":{"ha":730,"x_min":20,"x_max":607,"o":"m 397 679 l 224 679 l 224 0 l 157 0 l 157 679 l 20 679 l 20 718 l 157 743 l 157 800 q 207 999 157 936 q 370 1063 256 1063 q 492 1044 431 1063 l 476 986 q 368 1003 422 1003 q 257 957 290 1003 q 224 806 224 910 l 224 737 l 397 737 l 397 679 m 607 0 l 540 0 l 540 1055 l 607 1055 l 607 0 z "},"ȷ":{"ha":314,"x_min":-66,"x_max":191,"o":"m 25 -334 q -66 -317 -29 -334 l -66 -258 q 21 -272 -20 -272 q 123 -153 123 -272 l 123 737 l 191 737 l 191 -143 q 148 -284 191 -235 q 25 -334 104 -334 z "},"⁰":{"ha":467,"x_min":33,"x_max":433,"o":"m 100 697 q 131 506 100 568 q 233 444 161 444 q 335 506 304 444 q 367 697 367 568 q 335 886 367 824 q 233 947 304 947 q 131 886 161 947 q 100 697 100 824 m 433 696 q 384 463 433 540 q 235 386 335 386 q 82 462 130 386 q 33 696 33 538 q 235 1006 33 1006 q 385 930 336 1006 q 433 696 433 854 z "},"⁴":{"ha":467,"x_min":17,"x_max":446,"o":"m 446 561 l 358 561 l 358 397 l 297 397 l 297 561 l 17 561 l 17 602 l 293 996 l 358 996 l 358 614 l 446 614 l 446 561 m 297 614 l 297 764 q 302 921 297 853 q 288 897 298 913 q 87 614 277 881 l 297 614 z "},"⁵":{"ha":467,"x_min":46,"x_max":432,"o":"m 220 761 q 375 712 318 761 q 432 581 432 664 q 373 438 432 491 q 211 386 314 386 q 121 397 167 386 q 46 425 75 408 l 46 489 q 212 444 127 444 q 325 479 285 444 q 366 579 366 514 q 326 670 366 637 q 210 703 286 703 q 100 686 159 703 l 65 713 l 86 991 l 408 991 l 408 932 l 144 932 l 132 751 q 220 761 170 761 z "},"⁶":{"ha":467,"x_min":29,"x_max":439,"o":"m 439 593 q 382 445 439 504 q 239 386 326 386 q 86 449 142 386 q 29 619 29 511 q 114 859 29 762 q 371 1008 199 955 l 395 954 q 193 856 263 916 q 98 704 122 795 l 103 704 q 257 781 163 781 q 388 729 338 781 q 439 593 439 678 m 239 444 q 335 486 298 444 q 372 591 372 527 q 338 688 372 653 q 243 722 304 722 q 139 688 180 722 q 97 603 97 654 q 136 487 97 529 q 239 444 176 444 z "},"⁷":{"ha":467,"x_min":41,"x_max":432,"o":"m 111 397 l 358 932 l 41 932 l 41 991 l 432 991 l 432 946 l 186 397 l 111 397 z "},"⁸":{"ha":467,"x_min":35,"x_max":432,"o":"m 233 1006 q 365 964 315 1006 q 414 852 414 922 q 297 713 414 760 q 398 646 365 687 q 432 554 432 606 q 378 432 432 479 q 232 386 324 386 q 87 430 140 386 q 35 550 35 473 q 65 642 35 601 q 154 711 95 684 q 74 774 96 743 q 52 850 52 805 q 102 962 52 918 q 233 1006 153 1006 m 102 550 q 137 473 102 502 q 233 444 173 444 q 330 472 296 444 q 363 550 363 500 q 334 620 363 590 q 232 677 305 650 l 218 684 q 129 627 155 660 q 102 550 102 595 m 232 947 q 151 921 181 947 q 121 851 121 895 q 145 788 121 814 q 233 739 170 762 q 319 787 292 760 q 346 852 346 814 q 315 921 346 895 q 232 947 285 947 z "},"⁹":{"ha":467,"x_min":25,"x_max":435,"o":"m 435 751 q 365 473 435 560 q 151 386 294 386 q 64 397 100 386 l 64 458 q 153 444 100 444 q 310 506 253 444 q 372 692 366 567 l 367 692 q 300 636 342 656 q 214 615 259 615 q 75 666 125 615 q 25 804 25 717 q 80 950 25 896 q 224 1004 135 1004 q 334 974 286 1004 q 409 886 382 944 q 435 751 435 829 m 220 947 q 123 910 158 947 q 87 808 87 872 q 119 710 87 747 q 216 673 151 673 q 324 707 281 673 q 367 789 367 741 q 327 903 367 858 q 220 947 286 947 z "}," ":{"ha":694,"x_min":0,"x_max":0,"o":""}," ":{"ha":1389,"x_min":0,"x_max":0,"o":""}," ":{"ha":694,"x_min":0,"x_max":0,"o":""}," ":{"ha":1389,"x_min":0,"x_max":0,"o":""}," ":{"ha":463,"x_min":0,"x_max":0,"o":""}," ":{"ha":347,"x_min":0,"x_max":0,"o":""}," ":{"ha":232,"x_min":0,"x_max":0,"o":""}," ":{"ha":777,"x_min":0,"x_max":0,"o":""}," ":{"ha":359,"x_min":0,"x_max":0,"o":""}," ":{"ha":278,"x_min":0,"x_max":0,"o":""}," ":{"ha":139,"x_min":0,"x_max":0,"o":""},"​":{"ha":0,"x_min":0,"x_max":0,"o":""},"﻿":{"ha":0,"x_min":0,"x_max":0,"o":""}}}
